<?xml version="1.0" standalone="no"?>
<!DOCTYPE svg PUBLIC "-//W3C//DTD SVG 1.1//EN" "http://www.w3.org/Graphics/SVG/1.1/DTD/svg11.dtd" >
<svg>
<metadata>
Created by FontForge 20090914 at Fri Jun 15 15:45:26 2012
 By www-data
Copyright (c) 2006 The Hoefler Type Foundry, Inc., dba Hoefler &#38; Frere-Jones. All Rights Reserved.
</metadata>
<defs>
<font id="Verlag-Light" horiz-adv-x="474" >
  <font-face 
    font-family="Verlag Light"
    font-weight="300"
    font-stretch="normal"
    units-per-em="1000"
    panose-1="0 0 0 0 0 0 0 0 0 0"
    ascent="800"
    descent="-200"
    x-height="418"
    cap-height="733"
    bbox="-73 -262.002 1099 1093"
    underline-thickness="50"
    underline-position="-50"
    unicode-range="U+0020-U+2212"
  />
<missing-glyph horiz-adv-x="500" 
 />
    <glyph glyph-name="fi" unicode="fi" horiz-adv-x="466" 
d="M345 0v418h55v-418h-55zM297 682c-7.33301 2.66699 -15.668 4.66699 -25.001 6s-17.666 2 -24.999 2c-33.333 0 -58 -9.83301 -74 -29.5s-24 -52.5 -24 -98.5v-144h124v-49h-124v-369h-55v369h-70v13l70 39v134c0 62 12.833 108.333 38.5 139s62.167 46 109.5 46
c11.333 0 22.5 -0.666992 33.5 -2s21.5 -4 31.5 -8zM411.998 573c0 -11.333 -3.83301 -20.833 -11.5 -28.5s-17.167 -11.5 -28.5 -11.5s-20.833 3.83301 -28.5 11.5s-11.5 17.167 -11.5 28.5s3.83301 21 11.5 29s17.167 12 28.5 12s20.833 -4 28.5 -12
s11.5 -17.667 11.5 -29z" />
    <glyph glyph-name="fl" unicode="fl" horiz-adv-x="468" 
d="M345 0v733h55v-733h-55zM297 682c-7.33301 2.66699 -15.668 4.66699 -25.001 6s-17.666 2 -24.999 2c-33.333 0 -58 -9.83301 -74 -29.5s-24 -52.5 -24 -98.5v-144h124v-49h-124v-369h-55v369h-70v13l70 39v134c0 62 12.833 108.333 38.5 139s62.167 46 109.5 46
c11.333 0 22.5 -0.666992 33.5 -2s21.5 -4 31.5 -8z" />
    <glyph glyph-name=".notdef" horiz-adv-x="500" 
 />
    <glyph glyph-name="space" unicode=" " horiz-adv-x="214" 
 />
    <glyph glyph-name="exclam" unicode="!" horiz-adv-x="203" 
d="M146 36c0 -12.667 -4.33301 -23.167 -13 -31.5s-19 -12.5 -31 -12.5s-22.333 4.16699 -31 12.5s-13 18.833 -13 31.5c0 12 4.33301 22.167 13 30.5s19 12.5 31 12.5s22.333 -4.16699 31 -12.5s13 -18.5 13 -30.5zM123 182h-43l-8 551h60z" />
    <glyph glyph-name="quotedbl" unicode="&#x22;" horiz-adv-x="356" 
d="M211 464l-32 20l93 183l56 -35zM79 475l-31 20l92 182l55 -34z" />
    <glyph glyph-name="numbersign" unicode="#" horiz-adv-x="563" 
d="M230 372l-38 -168h142l37 168h-141zM533 372h-111l-38 -168h112l-10 -45h-112l-35 -159h-51l36 159h-142l-35 -159h-51l36 159h-111l10 45h111l37 168h-111l10 45h111l36 160h51l-36 -160h141l36 160h50l-35 -160h110z" />
    <glyph glyph-name="dollar" unicode="$" horiz-adv-x="429" 
d="M111 436c0 -25.333 8.83301 -46.1699 26.5 -62.5029s38.5 -30.166 62.5 -41.499l16 205c-36 -3.33301 -62.5 -14.666 -79.5 -33.999s-25.5 -41.666 -25.5 -66.999zM329 148.996c0 27.333 -8.5 49.167 -25.5 65.5s-38.833 30.833 -65.5 43.5l-17 -219
c30 3.33301 55.5 14 76.5 32s31.5 44 31.5 78zM269 645.997l-4.99805 -62.0039c21.333 -2.66699 41.166 -7.83398 59.499 -15.501s34.833 -16.167 49.5 -25.5l-25 -44c-10 7.33301 -22.833 14.5 -38.5 21.5s-32.167 12.167 -49.5 15.5l-18 -223
c22.667 -10 42.667 -20.167 60 -30.5s32 -21.833 44 -34.5s21.167 -26.667 27.5 -42s9.5 -33 9.5 -53c0 -23.333 -4.33301 -44.666 -13 -63.999s-20.5 -36 -35.5 -50s-32.5 -25.167 -52.5 -33.5s-41.667 -13.166 -65 -14.499l-5 -66l-44 3l5 64
c-26 3.33301 -50.833 9.83301 -74.5 19.5s-46.834 21.834 -69.501 36.501l28 45c16.667 -12.667 35.5 -23.667 56.5 -33s42.167 -15.666 63.5 -18.999l19 235c-20.667 9.33301 -39.5 18.833 -56.5 28.5s-31.5 20.5 -43.5 32.5s-21.333 25.833 -28 41.5s-10 33.5 -10 53.5
s3.83301 39 11.5 57s18.5 33.833 32.5 47.5s31 24.834 51 33.501s42.333 13.667 67 15l5 65z" />
    <glyph glyph-name="percent" unicode="%" horiz-adv-x="642" 
d="M550 137c0 28.667 -6.5 53.334 -19.5 74.001s-32.167 31 -57.5 31s-44.333 -10.333 -57 -31s-19 -45.334 -19 -74.001c0 -28 6.33301 -52.333 19 -73s31.667 -31 57 -31s44.5 10.333 57.5 31s19.5 45 19.5 73zM245 440c0 28.667 -6.33301 53.334 -19 74.001
s-31.667 31 -57 31s-44.5 -10.333 -57.5 -31s-19.5 -45.334 -19.5 -74.001c0 -28 6.5 -52.333 19.5 -73s32.167 -31 57.5 -31s44.333 10.333 57 31s19 45 19 73zM595 137c0 -19.333 -2.66797 -37.833 -8.00098 -55.5s-13.166 -33.167 -23.499 -46.5s-23.166 -24 -38.499 -32
s-32.666 -12 -51.999 -12c-20 0 -37.5 4 -52.5 12s-27.5 18.667 -37.5 32s-17.667 28.833 -23 46.5s-8 36.167 -8 55.5c0 20 2.66699 38.833 8 56.5s13.166 33.167 23.499 46.5s23 23.833 38 31.5s32.5 11.5 52.5 11.5c19.333 0 36.5 -3.83301 51.5 -11.5
s27.667 -18.167 38 -31.5s18.166 -28.833 23.499 -46.5s8 -36.5 8 -56.5zM103.999 -16l-32 27l466 582l32 -27zM290.999 440c0 -19.333 -2.66406 -37.833 -7.99707 -55.5s-13.333 -33.167 -24 -46.5s-23.5 -24 -38.5 -32s-32.5 -12 -52.5 -12c-19.333 0 -36.5 4 -51.5 12
s-27.667 18.667 -38 32s-18.166 28.833 -23.499 46.5s-8 36.167 -8 55.5c0 20 2.66699 38.833 8 56.5s13.166 33.167 23.499 46.5s23.166 23.833 38.499 31.5s32.666 11.5 51.999 11.5c20 0 37.5 -3.83301 52.5 -11.5s27.667 -18.167 38 -31.5s18.166 -28.833 23.499 -46.5
s8 -36.5 8 -56.5z" />
    <glyph glyph-name="ampersand" unicode="&#x26;" horiz-adv-x="595" 
d="M375 109l-88.999 88.5c-28 29 -51.667 56.167 -71 81.5c-34 -13.333 -60.833 -31 -80.5 -53s-29.5 -48.333 -29.5 -79c0 -32 11.333 -58 34 -78s52 -30 88 -30c26.667 0 52.167 6.5 76.5 19.5s48.166 29.833 71.499 50.5zM367.001 460
c0 21.333 -7.16895 40.165 -21.502 56.498s-34.166 24.5 -59.499 24.5c-11.333 0 -22.333 -2.5 -33 -7.5s-20 -12 -28 -21s-14.5 -19.667 -19.5 -32s-7.5 -25.5 -7.5 -39.5c0 -16.667 3.83301 -34.167 11.5 -52.5s17.834 -37.166 30.501 -56.499
c48.667 19.333 82 39.333 100 60s27 43.334 27 68.001zM557.999 251.999l-52.999 -69.501c-18.667 -24.333 -38.334 -47.5 -59.001 -69.5l52 -46l52 -44l-33 -38l-52 43.5l-55 49.5c-28 -25.333 -57.167 -46 -87.5 -62s-62.833 -24 -97.5 -24
c-25.333 0 -48.666 3.5 -69.999 10.5s-39.833 17.333 -55.5 31s-27.834 30.167 -36.501 49.5s-13 41 -13 65c0 40 12.5 73.333 37.5 100s59.167 49.334 102.5 68.001c-13.333 21.333 -24.166 42.333 -32.499 63s-12.5 40.667 -12.5 60c0 21.333 4 40.833 12 58.5
s18.667 33 32 46s28.5 23.167 45.5 30.5s34.5 11 52.5 11c21.333 0 40.166 -3.5 56.499 -10.5s30 -16.333 41 -28s19.333 -24.667 25 -39s8.5 -28.833 8.5 -43.5c0 -34 -12 -65 -36 -93s-62.333 -52.667 -115 -74c16.667 -22 37.5 -46.167 62.5 -72.5
s52.167 -52.833 81.5 -79.5c20.667 21.333 40 43.833 58 67.5l50 67.5z" />
    <glyph glyph-name="quotesingle" unicode="'" horiz-adv-x="223" 
d="M79 475l-31 20l92 182l55 -34z" />
    <glyph glyph-name="parenleft" unicode="(" horiz-adv-x="335" 
d="M316 -228c-44 26.667 -82.499 58.168 -115.499 94.501s-60.5 75.666 -82.5 117.999s-38.667 86.833 -50 133.5s-17 93.334 -17 140.001c0 47.333 5.66699 94.166 17 140.499s28 90.666 50 132.999s49.5 81.833 82.5 118.5s71.5 68.334 115.5 95.001l25 -41
c-38 -23.333 -71.833 -51.333 -101.5 -84s-54.667 -68.334 -75 -107.001s-35.666 -79.667 -45.999 -123s-15.5 -87.333 -15.5 -132s5.16699 -88.5 15.5 -131.5s25.666 -83.833 45.999 -122.5s45.166 -74.167 74.499 -106.5s63 -60.166 101 -83.499z" />
    <glyph glyph-name="parenright" unicode=")" horiz-adv-x="335" 
d="M284 258c0 -46.667 -5.66699 -93.335 -17 -140.002s-28 -91.167 -50 -133.5s-49.5 -81.666 -82.5 -117.999s-71.5 -67.833 -115.5 -94.5l-25 42c38 23.333 71.833 51.166 101.5 83.499s54.667 67.833 75 106.5s35.666 79.5 45.999 122.5s15.5 86.833 15.5 131.5
s-5.16699 88.667 -15.5 132s-25.666 84.333 -45.999 123s-45.333 74.334 -75 107.001s-63.5 60.667 -101.5 84l25 41c44 -26.667 82.5 -58.334 115.5 -95.001s60.5 -76.167 82.5 -118.5s38.667 -86.666 50 -132.999s17 -93.166 17 -140.499z" />
    <glyph glyph-name="asterisk" unicode="*" horiz-adv-x="369" 
d="M215 577l77 -98l-35 -25l-72 102l-72 -102l-35 25l76 98l-121 37l14 41l119 -42l-4 124h45l-4 -124l120 42l13 -41z" />
    <glyph glyph-name="plus" unicode="+" horiz-adv-x="460" 
d="M256 256v-151h-52v151h-144v49h144v151h52v-151h144v-49h-144z" />
    <glyph glyph-name="comma" unicode="," horiz-adv-x="182" 
d="M138 23c0 -24.667 -8.49805 -49.832 -25.498 -75.499s-38.167 -46.167 -63.5 -61.5l-11 13c16 14.667 28.667 30.167 38 46.5s15.666 32.166 18.999 47.499c-14.667 1.33301 -26.167 6.33301 -34.5 15s-12.5 18.667 -12.5 30s4.16699 21 12.5 29s18.166 12 29.499 12
c14 0 25.5 -5.16699 34.5 -15.5s13.5 -23.833 13.5 -40.5z" />
    <glyph glyph-name="hyphen" unicode="-" horiz-adv-x="339" 
d="M50 218v49h239v-49h-239z" />
    <glyph glyph-name="period" unicode="." horiz-adv-x="182" 
d="M48 36c0 12 4.16699 22.167 12.5 30.5s18.5 12.5 30.5 12.5c12.667 0 23.167 -4.16699 31.5 -12.5s12.5 -18.5 12.5 -30.5c0 -12.667 -4.16699 -23.167 -12.5 -31.5s-18.833 -12.5 -31.5 -12.5c-12 0 -22.167 4.16699 -30.5 12.5s-12.5 18.833 -12.5 31.5z" />
    <glyph glyph-name="slash" unicode="/" horiz-adv-x="319" 
d="M80 -216h-52l239 949h51z" />
    <glyph glyph-name="zero" unicode="0" horiz-adv-x="522" 
d="M422 288c0 34 -3.33301 66.167 -10 96.5s-16.667 56.833 -30 79.5s-30 40.667 -50 54s-43.333 20 -70 20s-50 -6.66699 -70 -20s-36.833 -31.333 -50.5 -54s-23.834 -49.167 -30.501 -79.5s-10 -62.5 -10 -96.5s3.33301 -66 10 -96s16.834 -56.167 30.501 -78.5
s30.5 -40.166 50.5 -53.499s43.333 -20 70 -20s50 6.66699 70 20s36.667 31.166 50 53.499s23.333 48.5 30 78.5s10 62 10 96zM480 288c0 -40.667 -4.83496 -79 -14.502 -115s-23.834 -67.5 -42.501 -94.5s-41.5 -48.333 -68.5 -64s-58.167 -23.5 -93.5 -23.5
s-66.5 7.83301 -93.5 23.5s-49.667 37 -68 64s-32.166 58.5 -41.499 94.5s-14 74.333 -14 115s4.83301 79.167 14.5 115.5s23.834 68 42.501 95s41.667 48.333 69 64s58.333 23.5 93 23.5c35.333 0 66.333 -7.83301 93 -23.5s49.334 -37 68.001 -64s32.667 -58.667 42 -95
s14 -74.833 14 -115.5z" />
    <glyph glyph-name="one" unicode="1" horiz-adv-x="333" 
d="M158 0v516l-102 -36l-17 48l165 61h9v-589h-55z" />
    <glyph glyph-name="two" unicode="2" horiz-adv-x="436" 
d="M19 0l-4 9l126.5 135c34.333 37.333 63.166 70.333 86.499 99c28 32.667 49.667 62.5 65 89.5s23 55.5 23 85.5c0 36 -11.333 64.5 -34 85.5s-53.334 31.5 -92.001 31.5c-20.667 0 -42.5 -3.5 -65.5 -10.5s-45.167 -17.5 -66.5 -31.5l-16 46
c21.333 14 44.833 25.333 70.5 34s51.167 13 76.5 13c28.667 0 54.334 -4 77.001 -12s42 -19.333 58 -34s28.167 -31.834 36.5 -51.501s12.5 -41.5 12.5 -65.5c0 -33.333 -8.33301 -65.666 -25 -96.999s-41 -66 -73 -104l-69 -78.5
c-25.333 -28.333 -54.666 -59.5 -87.999 -93.5h265v-50h-364z" />
    <glyph glyph-name="three" unicode="3" horiz-adv-x="422" 
d="M177 327c3.33301 0.666992 5.99902 1.00098 7.99902 1.00098h7c54.667 -4 98.667 -20.667 132 -50s50 -68 50 -116c0 -24.667 -4.66699 -47.5 -14 -68.5s-22.5 -39.167 -39.5 -54.5s-37.5 -27.333 -61.5 -36s-50.667 -13 -80 -13c-27.333 0 -52.166 2.16699 -74.499 6.5
s-46.5 11.166 -72.5 20.499l16 47c24 -8 46.167 -14.167 66.5 -18.5s40.833 -6.5 61.5 -6.5c45.333 0 80.5 11.333 105.5 34s37.5 52.667 37.5 90c0 38 -14.167 67.833 -42.5 89.5s-67.5 32.5 -117.5 32.5c-24 0 -47 -2 -69 -6l-6 9l209 238h-259v50h348l5 -9z" />
    <glyph glyph-name="four" unicode="4" horiz-adv-x="476" 
d="M306 468l-200 -246h200v246zM358 173v-174h-52v174h-288v14l325 400h15v-365h96v-49h-96z" />
    <glyph glyph-name="five" unicode="5" horiz-adv-x="458" 
d="M404 176c0 -26 -4.66602 -50.332 -13.999 -72.999s-22.5 -42.167 -39.5 -58.5s-37.667 -29.333 -62 -39s-51.5 -14.5 -81.5 -14.5c-26.667 0 -52.334 2.66699 -77.001 8s-48.667 12.333 -72 21l16 46c19.333 -7.33301 39.833 -13.5 61.5 -18.5s44.5 -7.5 68.5 -7.5
c46 0 81.667 12.5 107 37.5s38 57.5 38 97.5c0 36 -12.5 65.667 -37.5 89s-62.167 35 -111.5 35c-22 0 -42.167 -1.16699 -60.5 -3.5s-35.166 -5.5 -50.499 -9.5l-7 8v283h297v-50h-244v-183c18.667 3.33301 40.667 5 66 5c33.333 0 62.666 -4.33301 87.999 -13
s46.5 -20.834 63.5 -36.501s29.833 -34 38.5 -55s13 -43.833 13 -68.5z" />
    <glyph glyph-name="six" unicode="6" horiz-adv-x="477" 
d="M374 179c0 42 -12.332 75.666 -36.999 100.999s-56.667 38 -96 38c-20.667 0 -39.5 -3.5 -56.5 -10.5s-31.5 -16.5 -43.5 -28.5s-21.167 -26.167 -27.5 -42.5s-9.5 -34.166 -9.5 -53.499c0 -20.667 3.33301 -39.667 10 -57s16 -32.5 28 -45.5s26.167 -23.167 42.5 -30.5
s34.166 -11 53.499 -11c20 0 38.333 3.5 55 10.5s31 16.833 43 29.5s21.333 27.5 28 44.5s10 35.5 10 55.5zM428.001 185.999c0 -26 -4.49902 -50.665 -13.499 -73.998s-21.833 -44 -38.5 -62s-36.667 -32.333 -60 -43s-49.333 -16 -78 -16c-28 0 -53.667 5 -77 15
s-43.333 24.167 -60 42.5s-29.667 40 -39 65s-14 52.5 -14 82.5c0 35.333 5.66699 70.666 17 105.999s29.5 70 54.5 104s57.5 67.167 97.5 99.5s88.333 62.833 145 91.5l24 -43c-68 -34 -124.167 -71.833 -168.5 -113.5s-76.166 -87.5 -95.499 -137.5
c15.333 19.333 33.666 34 54.999 44s46.666 15 75.999 15c24.667 0 47.667 -4.33301 69 -13s39.833 -20.834 55.5 -36.501s28 -34.167 37 -55.5s13.5 -45 13.5 -71z" />
    <glyph glyph-name="seven" unicode="7" horiz-adv-x="407" 
d="M131 0h-54l237 527h-292v50h366z" />
    <glyph glyph-name="eight" unicode="8" horiz-adv-x="464" 
d="M353 155c0 16.667 -3 32.167 -9 46.5s-14.5 26.666 -25.5 36.999s-24 18.5 -39 24.5s-31.167 9 -48.5 9s-33.333 -3 -48 -9s-27.334 -14.167 -38.001 -24.5s-19 -22.666 -25 -36.999s-9 -29.833 -9 -46.5s3 -32.334 9 -47.001s14.333 -27.167 25 -37.5
s23.334 -18.5 38.001 -24.5s30.667 -9 48 -9s33.5 3 48.5 9s28 14.167 39 24.5s19.5 22.833 25.5 37.5s9 30.334 9 47.001zM343 429c0 31.333 -10.168 57.668 -30.501 79.001s-47.5 32 -81.5 32c-33.333 0 -60.166 -10.833 -80.499 -32.5s-30.5 -47.834 -30.5 -78.501
s10.167 -57 30.5 -79s47.166 -33 80.499 -33c17.333 0 32.833 3 46.5 9s25.334 14 35.001 24s17.167 21.833 22.5 35.5s8 28.167 8 43.5zM407.999 154.002c0 -22.667 -4.33008 -44 -12.9971 -64s-20.834 -37.333 -36.501 -52s-34.334 -26.167 -56.001 -34.5
s-45.5 -12.5 -71.5 -12.5s-49.667 4.16699 -71 12.5s-39.833 19.833 -55.5 34.5s-27.667 32 -36 52s-12.5 41.333 -12.5 64c0 32 9 60.5 27 85.5s42 43.5 72 55.5c-28 13.333 -49.667 31.666 -65 54.999s-23 50 -23 80c0 22 4 42.5 12 61.5s19.333 35.5 34 49.5s32 25 52 33
s42 12 66 12c24.667 0 47.167 -4 67.5 -12s37.666 -19 51.999 -33s25.5 -30.5 33.5 -49.5s12 -39.5 12 -61.5c0 -30 -7.66699 -56.667 -23 -80s-37 -41.666 -65 -54.999c30 -12 54.167 -30.5 72.5 -55.5s27.5 -53.5 27.5 -85.5z" />
    <glyph glyph-name="nine" unicode="9" horiz-adv-x="470" 
d="M369 398c0 20.667 -3.33105 39.668 -9.99805 57.001s-15.834 32.166 -27.501 44.499s-25.5 22 -41.5 29s-33.667 10.5 -53 10.5c-20 0 -38.167 -3.5 -54.5 -10.5s-30.333 -16.5 -42 -28.5s-20.834 -26.5 -27.501 -43.5s-10 -35.5 -10 -55.5c0 -42 12 -75.333 36 -100
s56 -37 96 -37c42 0 74.833 12.667 98.5 38s35.5 57.333 35.5 96zM425.002 382.001c0 -34.667 -5.66699 -69.833 -17 -105.5s-29.5 -70.667 -54.5 -105s-57.333 -67.666 -97 -99.999s-87.834 -62.833 -144.501 -91.5l-24 43c134.667 66.667 222 149.667 262 249
c-13.333 -16 -30 -29 -50 -39s-44 -15 -72 -15c-24.667 0 -48 4.33301 -70 13s-41.167 20.667 -57.5 36s-29.166 33.833 -38.499 55.5s-14 45.5 -14 71.5c0 26.667 4.66699 51.667 14 75s22.5 43.666 39.5 60.999s37 31 60 41s48.5 15 76.5 15
c28.667 0 54.5 -5.16699 77.5 -15.5s42.667 -24.5 59 -42.5s28.833 -39.5 37.5 -64.5s13 -52.167 13 -81.5z" />
    <glyph glyph-name="colon" unicode=":" horiz-adv-x="182" 
d="M47 323c0 12 4.33301 22.333 13 31s19 13 31 13s22.333 -4.33301 31 -13s13 -19 13 -31s-4.33301 -22.167 -13 -30.5s-19 -12.5 -31 -12.5s-22.333 4.16699 -31 12.5s-13 18.5 -13 30.5zM48 36c0 12 4.16699 22.167 12.5 30.5s18.5 12.5 30.5 12.5
c12.667 0 23.167 -4.16699 31.5 -12.5s12.5 -18.5 12.5 -30.5c0 -12.667 -4.16699 -23.167 -12.5 -31.5s-18.833 -12.5 -31.5 -12.5c-12 0 -22.167 4.16699 -30.5 12.5s-12.5 18.833 -12.5 31.5z" />
    <glyph glyph-name="semicolon" unicode=";" horiz-adv-x="182" 
d="M47 323c0 12 4.33301 22.333 13 31s19 13 31 13s22.333 -4.33301 31 -13s13 -19 13 -31s-4.33301 -22.167 -13 -30.5s-19 -12.5 -31 -12.5s-22.333 4.16699 -31 12.5s-13 18.5 -13 30.5zM138 23c0 -24.667 -8.49805 -49.832 -25.498 -75.499s-38.167 -46.167 -63.5 -61.5
l-11 13c16 14.667 28.667 30.167 38 46.5s15.666 32.166 18.999 47.499c-14.667 1.33301 -26.167 6.33301 -34.5 15s-12.5 18.667 -12.5 30s4.16699 21 12.5 29s18.166 12 29.499 12c14 0 25.5 -5.16699 34.5 -15.5s13.5 -23.833 13.5 -40.5z" />
    <glyph glyph-name="less" unicode="&#x3c;" horiz-adv-x="381" 
d="M308 38l-275 243l275 244l34 -37l-234 -208l234 -207z" />
    <glyph glyph-name="equal" unicode="=" horiz-adv-x="403" 
d="M60 185v49h283v-49h-283zM60 326v50h283v-50h-283z" />
    <glyph glyph-name="greater" unicode="&#x3e;" horiz-adv-x="381" 
d="M73 38l-34 37l234 208l-234 207l34 35l275 -243z" />
    <glyph glyph-name="question" unicode="?" horiz-adv-x="384" 
d="M185 36c0 -12.667 -4.33301 -23.167 -13 -31.5s-19 -12.5 -31 -12.5s-22.333 4.16699 -31 12.5s-13 18.833 -13 31.5c0 12 4.33301 22.167 13 30.5s19 12.5 31 12.5s22.333 -4.16699 31 -12.5s13 -18.5 13 -30.5zM359 574c0 -24.667 -4.66895 -46.333 -14.002 -65
s-21.166 -35.667 -35.499 -51s-29.833 -29.5 -46.5 -42.5s-32.167 -26.167 -46.5 -39.5s-26.166 -27.5 -35.499 -42.5s-14 -31.833 -14 -50.5v-40v-40h-52v45v46c0 21.333 4.66699 40.166 14 56.499s20.833 31.5 34.5 45.5s28.667 27.333 45 40s31.333 25.834 45 39.501
s25.167 28.167 34.5 43.5s14 33 14 53c0 34 -11.5 61.833 -34.5 83.5s-57.5 32.5 -103.5 32.5c-24.667 0 -47 -3.16699 -67 -9.5s-40 -14.5 -60 -24.5l-15 49c22.667 10.667 45.5 19.5 68.5 26.5s48.833 10.5 77.5 10.5c32 0 59.833 -4.33301 83.5 -13
s43.5 -20.5 59.5 -35.5s28 -32.5 36 -52.5s12 -41.667 12 -65z" />
    <glyph glyph-name="at" unicode="@" horiz-adv-x="684" 
d="M407 253c-9.33301 6.66699 -20.166 12 -32.499 16s-25.166 6 -38.499 6c-16.667 0 -30.167 -3.66699 -40.5 -11s-15.5 -18.333 -15.5 -33c0 -15.333 5 -27.333 15 -36s23.667 -13 41 -13c15.333 0 28.666 3.33301 39.999 10s21.666 14.667 30.999 24v37zM635 313
c0 -30.667 -4.82715 -58.502 -14.4941 -83.502s-23.834 -45.167 -42.501 -60.5c-21.333 -18 -45 -27 -71 -27c-17.333 0 -33.5 4.16699 -48.5 12.5s-26.5 20.833 -34.5 37.5c-13.333 -14 -27.833 -25.333 -43.5 -34s-33.5 -13 -53.5 -13c-25.333 0 -47.333 7.16699 -66 21.5
s-28 35.5 -28 63.5c0 23.333 8.66699 42.5 26 57.5s40.666 22.5 69.999 22.5c16 0 30.333 -2 43 -6s24.334 -8.66699 35.001 -14v15c0 25.333 -6.16699 43.5 -18.5 54.5s-30.5 16.5 -54.5 16.5c-20.667 0 -43.334 -4.33301 -68.001 -13l-8 38c10.667 4 23.667 7.66699 39 11
s29.666 5 42.999 5c76.667 0 115 -38 115 -114v-60c0 -23.333 5.5 -39.5 16.5 -48.5s23.167 -13.5 36.5 -13.5c18.667 0 33.334 5 44.001 15c11.333 10 20.5 25.167 27.5 45.5s10.5 43.166 10.5 68.499c0 26 -4.83301 52.833 -14.5 80.5s-24.5 52.834 -44.5 75.501
s-45.667 41.167 -77 55.5s-68.666 21.5 -111.999 21.5c-34 0 -66 -6.66699 -96 -20s-56 -31.666 -78 -54.999s-39.333 -50.5 -52 -81.5s-19 -64.5 -19 -100.5s6.16699 -69.5 18.5 -100.5s30.166 -58 53.499 -81s52 -41.167 86 -54.5s73 -20 117 -20c18 0 38 2 60 6
s43.333 9.66699 64 17l6 -20c1.33301 -2.66699 2.16602 -5.16699 2.49902 -7.5s0.833008 -4.5 1.5 -6.5c0.666992 -2.66699 1 -4.66699 1 -6c-24 -7.33301 -48 -13.333 -72 -18s-45.667 -7 -65 -7c-49.333 0 -93.833 7.83301 -133.5 23.5s-73.334 37 -101.001 64
s-48.834 58.5 -63.501 94.5s-22 74.667 -22 116s7.66699 80 23 116s36.166 67.5 62.499 94.5s57.333 48.333 93 64s73.5 23.5 113.5 23.5c49.333 0 92.333 -8.16699 129 -24.5s67.167 -37.5 91.5 -63.5s42.5 -55.167 54.5 -87.5s18 -64.166 18 -95.499z" />
    <glyph glyph-name="A" unicode="A" horiz-adv-x="696" 
d="M347 631l-151 -359h302zM614 0l-95 224h-344l-94 -224h-59l321 745h10l321 -745h-60z" />
    <glyph glyph-name="B" unicode="B" horiz-adv-x="565" 
d="M467 202c0 44.667 -19 81.3359 -57 110.003s-95.333 43 -172 43h-46c-17.333 0 -33.666 -0.666992 -48.999 -2v-302c18 -2.66699 37.5 -4.83398 58.5 -6.50098s41.833 -2.5 62.5 -2.5c33.333 0 62.666 4.16699 87.999 12.5s46.5 19.666 63.5 33.999
s29.833 31.166 38.5 50.499s13 40.333 13 63zM450 548.002c0 42 -15.834 76.5 -47.501 103.5s-80.834 40.5 -147.501 40.5c-39.333 0 -76.666 -3 -111.999 -9v-281c15.333 -1.33301 30.5 -2 45.5 -2h45.5c37.333 0 69.5 3.83301 96.5 11.5s49.333 18.167 67 31.5
s30.834 29 39.501 47s13 37.333 13 58zM524.999 199.002c0 -26.667 -5.66992 -52.498 -17.0029 -77.498s-28.166 -47 -50.499 -66s-50.166 -34.167 -83.499 -45.5s-72 -17 -116 -17c-30 0 -59.167 1.16699 -87.5 3.5s-56.166 5.16602 -83.499 8.49902v723
c27.333 3.33301 54 6.16602 80 8.49902s54 3.5 84 3.5c44 0 82 -5 114 -15s58.5 -23.5 79.5 -40.5s36.667 -36.833 47 -59.5s15.5 -46.334 15.5 -71.001c0 -44 -12.833 -80.667 -38.5 -110s-63.5 -50.666 -113.5 -63.999c58.667 -10.667 101.667 -32.5 129 -65.5
s41 -71.5 41 -115.5z" />
    <glyph glyph-name="C" unicode="C" horiz-adv-x="740" 
d="M695 70c-33.333 -22 -70.665 -40.832 -111.998 -56.499s-88.333 -23.5 -141 -23.5s-102.334 8.83301 -149.001 26.5s-87.5 42.667 -122.5 75s-62.5 71.666 -82.5 117.999s-30 98.166 -30 155.499s10.167 109.333 30.5 156s48 86.667 83 120s75.833 59 122.5 77
s96 27 148 27c53.333 0 100.833 -7.66699 142.5 -23s79.167 -34.333 112.5 -57l-25 -47c-34 22 -70.333 40 -109 54s-80 21 -124 21c-44.667 0 -86.5 -7.66699 -125.5 -23s-73 -37.333 -102 -66s-51.667 -63.167 -68 -103.5s-24.5 -85.166 -24.5 -134.499
s8.33301 -94 25 -134s39.667 -74 69 -102s63.666 -49.667 102.999 -65s81.333 -23 126 -23c44 0 85.333 7 124 21s75 31.667 109 53z" />
    <glyph glyph-name="D" unicode="D" horiz-adv-x="740" 
d="M622 373c0 44 -7.66504 85.167 -22.998 123.5s-38 72 -68 101s-67.167 51.833 -111.5 68.5s-95.5 25 -153.5 25c-23.333 0 -46 -0.666992 -68 -2s-40.333 -3.33301 -55 -6v-633c15.333 -2.66699 33.666 -4.66699 54.999 -6s45.666 -2 72.999 -2c58 0 109 8.5 153 25.5
s80.667 40.333 110 70s51.333 64.667 66 105s22 83.833 22 130.5zM682.002 373c0 -50.667 -8.83398 -98.8311 -26.501 -144.498s-43.667 -86 -78 -121s-77.333 -62.833 -129 -83.5s-111.5 -31 -179.5 -31c-35.333 0 -68.833 1.16699 -100.5 3.5
s-58.834 5.16602 -81.501 8.49902v723c22.667 3.33301 49.334 6.16602 80.001 8.49902s63.334 3.5 98.001 3.5c68 0 128 -10.333 180 -31s95.5 -48 130.5 -82s61.5 -73 79.5 -117s27 -89.667 27 -137z" />
    <glyph glyph-name="E" unicode="E" horiz-adv-x="563" 
d="M87 0v733h414v-50h-358v-286h323v-50h-323v-296h358v-51h-414z" />
    <glyph glyph-name="F" unicode="F" horiz-adv-x="543" 
d="M143 683v-299h323v-50h-323v-334h-56v733h414v-50h-358z" />
    <glyph glyph-name="G" unicode="G" horiz-adv-x="779" 
d="M712 349l-0.000976562 -269.002c-36 -28.667 -75.833 -50.834 -119.5 -66.501s-92.5 -23.5 -146.5 -23.5c-50 0 -98.333 8.5 -145 25.5s-88 41.5 -124 73.5s-64.833 71.333 -86.5 118s-32.5 99.667 -32.5 159c0 58.667 10.833 111.5 32.5 158.5
s50.334 86.833 86.001 119.5s76.334 57.667 122.001 75s92.5 26 140.5 26c29.333 0 56.5 -2.16699 81.5 -6.5s48.333 -10.5 70 -18.5s42.334 -17.5 62.001 -28.5s38.834 -23.167 57.501 -36.5l-30 -44c-34.667 25.333 -71.834 45.5 -111.501 60.5
s-82.834 22.833 -129.501 23.5c-45.333 0 -87.5 -8.16699 -126.5 -24.5s-72.833 -39 -101.5 -68s-51.167 -63.667 -67.5 -104s-24.5 -84.5 -24.5 -132.5c0 -49.333 8.66699 -94.166 26 -134.499s41 -74.666 71 -102.999s65 -50.166 105 -65.499s82.333 -23 127 -23
c40.667 0 78.167 5.5 112.5 16.5s66.166 26.833 95.499 47.5v193h-209v52h265z" />
    <glyph glyph-name="H" unicode="H" horiz-adv-x="707" 
d="M564 0v348h-421v-348h-56v733h56v-335h421v335h56v-733h-56z" />
    <glyph glyph-name="I" unicode="I" horiz-adv-x="238" 
d="M91 0v733h56v-733h-56z" />
    <glyph glyph-name="J" unicode="J" horiz-adv-x="465" 
d="M382 218c0 -70.667 -17.4961 -126.667 -52.4961 -168s-84.833 -62 -149.5 -62c-34.667 0 -65.334 5.16699 -92.001 15.5s-50.334 23.833 -71.001 40.5l30 43c17.333 -13.333 37.166 -24.5 59.499 -33.5s47.166 -13.5 74.499 -13.5c46 0 81.667 14.667 107 44
s38 74.333 38 135v514h56v-515z" />
    <glyph glyph-name="K" unicode="K" horiz-adv-x="593" 
d="M498 0l-355 362v-362h-56v733h56v-341l343 341h72l-361 -356l375 -377h-74z" />
    <glyph glyph-name="L" unicode="L" horiz-adv-x="513" 
d="M87 0v733h56v-682h358v-51h-414z" />
    <glyph glyph-name="M" unicode="M" horiz-adv-x="847" 
d="M714 0l-12 586l-274 -481h-9l-274 482l-12 -587h-57l25 742l13 2l312 -555l307 555l13 -2l25 -742h-57z" />
    <glyph glyph-name="N" unicode="N" horiz-adv-x="727" 
d="M630 -11l-488 622v-611h-55v741l13 3l484 -615v604h56v-742z" />
    <glyph glyph-name="O" unicode="O" horiz-adv-x="842" 
d="M723 366c0 46 -7.5 89 -22.5 129s-35.833 74.667 -62.5 104s-58.5 52.333 -95.5 69s-77.5 25 -121.5 25s-84.5 -8.33301 -121.5 -25s-68.833 -39.667 -95.5 -69s-47.5 -64 -62.5 -104s-22.5 -83 -22.5 -129s7.5 -88.833 22.5 -128.5s35.833 -74.167 62.5 -103.5
s58.5 -52.333 95.5 -69s77.5 -25 121.5 -25s84.5 8.33301 121.5 25s68.833 39.667 95.5 69s47.5 63.833 62.5 103.5s22.5 82.5 22.5 128.5zM784 366c0 -54 -9.5 -104 -28.5 -150s-45 -85.833 -78 -119.5s-71.667 -59.834 -116 -78.501s-91.833 -28 -142.5 -28
c-50 0 -97 9.33301 -141 28s-82.333 44.834 -115 78.501s-58.334 73.5 -77.001 119.5s-28 96 -28 150s9.5 104.167 28.5 150.5s45 86.333 78 120s71.667 60 116 79s91.833 28.5 142.5 28.5c50 0 97 -9.5 141 -28.5s82.333 -45.333 115 -79s58.334 -73.667 77.001 -120
s28 -96.5 28 -150.5z" />
    <glyph glyph-name="P" unicode="P" horiz-adv-x="555" 
d="M460 502c0 24.667 -4.66797 48.168 -14.001 70.501s-23 42 -41 59s-40.5 30.667 -67.5 41s-58.167 15.5 -93.5 15.5c-17.333 0 -34.666 -0.666992 -51.999 -2s-33.666 -3 -48.999 -5v-370l44.5 -4.5c16.333 -1.66699 32.166 -2.5 47.499 -2.5c36.667 0 69 5 97 15
s51.5 23.667 70.5 41s33.333 38.166 43 62.499s14.5 50.833 14.5 79.5zM519.999 505.001c0 -36.667 -6.49902 -70.332 -19.499 -100.999s-31.833 -57 -56.5 -79s-54.667 -39.167 -90 -51.5s-75.666 -18.5 -120.999 -18.5c-13.333 0 -28.5 0.666992 -45.5 2
s-31.833 2.66602 -44.5 3.99902v-261h-56v728c24 3.33301 48.333 5.83301 73 7.5s50.667 2.5 78 2.5c47.333 0 88.666 -6.33301 123.999 -19s64.666 -29.667 87.999 -51s40.833 -46 52.5 -74s17.5 -57.667 17.5 -89z" />
    <glyph glyph-name="Q" unicode="Q" horiz-adv-x="842" 
d="M723 366c0 46 -7.5 89 -22.5 129s-36 74.667 -63 104s-58.833 52.333 -95.5 69s-77 25 -121 25s-84.5 -8.33301 -121.5 -25s-68.833 -39.667 -95.5 -69s-47.5 -64 -62.5 -104s-22.5 -83 -22.5 -129s7.5 -88.833 22.5 -128.5s35.833 -74.167 62.5 -103.5
s58.5 -52.333 95.5 -69s77.5 -25 121.5 -25c37.333 0 71.833 6 103.5 18s60.167 28.667 85.5 50l-6.5 6l-17 16c-7 6.66699 -15.167 14 -24.5 22l-28 25l-77 68l35 40l155 -139c24 28.667 42.667 61.5 56 98.5s20 77.5 20 121.5zM748 -17l-39.9971 37.9971l-33 29.5
l-25 22.5c-32 -26 -67.5 -46.333 -106.5 -61s-80.5 -22 -124.5 -22c-50.667 0 -97.834 9.33301 -141.501 28s-81.834 44.834 -114.501 78.501s-58.334 73.5 -77.001 119.5s-28 96 -28 150s9.5 104.167 28.5 150.5s45 86.333 78 120s71.667 60 116 79s91.5 28.5 141.5 28.5
c50.667 0 98 -9.5 142 -28.5s82.167 -45.333 114.5 -79s57.833 -73.667 76.5 -120s28 -96.5 28 -150.5c0 -51.333 -8.33301 -98.666 -25 -141.999s-40 -81.666 -70 -114.999l24 -21.5l32 -28.5c12 -11.333 25 -23 39 -35z" />
    <glyph glyph-name="R" unicode="R" horiz-adv-x="590" 
d="M462 518c0 24.667 -4.50195 47.332 -13.502 67.999s-22.5 38.5 -40.5 53.5s-40.167 26.833 -66.5 35.5s-56.833 13 -91.5 13c-35.333 0 -70.666 -3 -105.999 -9v-331c12.667 -1.33301 27.334 -2.66602 44.001 -3.99902s32.667 -2 48 -2c74 0 130.167 15.833 168.5 47.5
s57.5 74.5 57.5 128.5zM496.998 -0.00195312l-199.999 298.001c-10 -1.33301 -20.333 -2.33301 -31 -3s-21.667 -1 -33 -1c-13.333 0 -28.5 0.333008 -45.5 1s-31.5 1.66699 -43.5 3v-298h-57v726c27.333 3.33301 53.166 6.16602 77.499 8.49902s50.833 3.5 79.5 3.5
c45.333 0 85.333 -5.33301 120 -16s63.667 -25.5 87 -44.5s41 -41.833 53 -68.5s18 -56 18 -88c0 -50 -14.667 -93.667 -44 -131s-71.333 -64 -126 -80l213 -310h-68z" />
    <glyph glyph-name="S" unicode="S" horiz-adv-x="517" 
d="M464 189c0 -30 -5.82715 -57.335 -17.4941 -82.002s-27.667 -45.834 -48 -63.501s-44 -31.334 -71 -41.001s-56.167 -14.5 -87.5 -14.5c-39.333 0 -76.5 6 -111.5 18s-68.5 28.667 -100.5 50l27 49c30 -20 60.833 -36 92.5 -48s64.167 -18 97.5 -18
c24 0 46 3.66699 66 11s37.167 17.333 51.5 30s25.333 27.834 33 45.501s11.5 36.5 11.5 56.5c0 21.333 -3.5 39.833 -10.5 55.5s-17.333 30 -31 43s-30.5 25 -50.5 36s-43 22.5 -69 34.5c-28 12.667 -53.333 25.5 -76 38.5s-41.834 27.5 -57.501 43.5
s-27.667 33.833 -36 53.5s-12.5 42.167 -12.5 67.5c0 26.667 5.33301 51.5 16 74.5s25.667 43.167 45 60.5s42.5 31 69.5 41s56.833 15 89.5 15c32 0 62.167 -4.66699 90.5 -14s53.166 -21.333 74.499 -36l-27 -47c-18.667 13.333 -40.167 24.333 -64.5 33
s-50.5 13 -78.5 13c-24.667 0 -46.834 -3.5 -66.501 -10.5s-36.334 -16.667 -50.001 -29s-24.167 -26.666 -31.5 -42.999s-11 -34.166 -11 -53.499c0 -20 3.66699 -37.5 11 -52.5s17.666 -28.667 30.999 -41s29.333 -23.666 48 -33.999s39 -20.5 61 -30.5
c31.333 -14 59 -28 83 -42s44.167 -29.167 60.5 -45.5s28.666 -34.5 36.999 -54.5s12.5 -43 12.5 -69z" />
    <glyph glyph-name="T" unicode="T" horiz-adv-x="614" 
d="M336 683v-683h-57v683h-249v50h554v-50h-248z" />
    <glyph glyph-name="U" unicode="U" horiz-adv-x="708" 
d="M628 266c0 -42.667 -6.49902 -81.165 -19.499 -115.498s-31.5 -63.333 -55.5 -87s-53 -41.834 -87 -54.501s-71.667 -19 -113 -19c-85.333 0 -152 23.667 -200 71s-72 115.666 -72 204.999v467h56v-466c0 -74.667 19.667 -131 59 -169s91.666 -57 156.999 -57
c32.667 0 62.5 4.83301 89.5 14.5s50 24 69 43s33.667 42.667 44 71s15.5 60.833 15.5 97.5v466h57v-467z" />
    <glyph glyph-name="V" unicode="V" horiz-adv-x="687" 
d="M349 -12h-11l-319 745h62l264 -628l262 628h61z" />
    <glyph glyph-name="W" unicode="W" horiz-adv-x="952" 
d="M726 -10l-14 -2l-237 627l-235 -627l-14 2l-192 743h56l154 -601l227 605h10l229 -603l153 599h55z" />
    <glyph glyph-name="X" unicode="X" horiz-adv-x="678" 
d="M573 0l-235 329l-235 -329h-66l271 369l-267 364h68l230 -323l231 323h66l-266 -363l270 -370h-67z" />
    <glyph glyph-name="Y" unicode="Y" horiz-adv-x="626" 
d="M341 329v-329h-56v330l-256 403h63l223 -356l220 356h62z" />
    <glyph glyph-name="Z" unicode="Z" horiz-adv-x="631" 
d="M134 51h441v-51h-525l-4 10l445 673h-420v50h504l5 -10z" />
    <glyph glyph-name="bracketleft" unicode="[" horiz-adv-x="295" 
d="M80 -216v949h191v-46h-139v-857h139v-46h-191z" />
    <glyph glyph-name="backslash" unicode="\" horiz-adv-x="319" 
d="M239 -216l-238 949h51l239 -949h-52z" />
    <glyph glyph-name="bracketright" unicode="]" horiz-adv-x="295" 
d="M25 -216v46h139v857h-139v46h191v-949h-191z" />
    <glyph glyph-name="asciicircum" unicode="^" horiz-adv-x="440" 
d="M298 485l-79 98l-75 -98h-58l121 149h30l120 -149h-59z" />
    <glyph glyph-name="underscore" unicode="_" horiz-adv-x="520" 
d="M0 0v50h520v-50h-520z" />
    <glyph glyph-name="grave" unicode="`" horiz-adv-x="440" 
d="M315 475l-192 99l31 54l180 -123z" />
    <glyph glyph-name="a" unicode="a" horiz-adv-x="433" 
d="M321 175c-20.667 11.333 -40 20.001 -58 26.001s-38.667 9 -62 9c-32 0 -58.333 -7.33301 -79 -22s-31 -36.334 -31 -65.001c0 -28 10.167 -49.167 30.5 -63.5s47.5 -21.5 81.5 -21.5c25.333 0 48 5.16699 68 15.5s36.667 23.5 50 39.5v82zM324 0.000976562v45.0029
c-15.333 -15.333 -34.5 -28 -57.5 -38s-47.833 -15 -74.5 -15c-21.333 0 -41.333 2.83301 -60 8.5s-35 14.167 -49 25.5s-25 25.166 -33 41.499s-12 34.833 -12 55.5c0 20 4 38 12 54s19 29.667 33 41s30.5 20.166 49.5 26.499s39.5 9.5 61.5 9.5
c27.333 0 50.833 -3.16699 70.5 -9.5s38.5 -13.833 56.5 -22.5v38c0 40 -9.16699 69.5 -27.5 88.5s-49.5 28.5 -93.5 28.5c-17.333 0 -35.833 -2 -55.5 -6s-37.5 -9.66699 -53.5 -17l-11 48c19.333 7.33301 40.333 13.166 63 17.499s43.667 6.5 63 6.5
c58.667 0 101.667 -13.833 129 -41.5s41 -69.167 41 -124.5v-260h-52z" />
    <glyph glyph-name="b" unicode="b" horiz-adv-x="506" 
d="M408 210c0 24 -3.66504 46.334 -10.998 67.001s-17.833 38.5 -31.5 53.5s-29.834 26.667 -48.501 35s-39.334 12.5 -62.001 12.5c-28.667 0 -54.667 -5.83301 -78 -17.5s-43 -26.834 -59 -45.501v-211c15.333 -18 34.333 -33.167 57 -45.5s48 -18.5 76 -18.5
c22.667 0 43.5 4.16699 62.5 12.5s35.5 20 49.5 35s25 33 33 54s12 43.833 12 68.5zM463.002 211.001c0 -30.667 -5.33203 -59.334 -15.999 -86.001s-25.334 -49.834 -44.001 -69.501s-40.5 -35.167 -65.5 -46.5s-51.5 -17 -79.5 -17s-54.5 5.33301 -79.5 16
s-45.833 24.334 -62.5 41.001v-49h-53v733h55v-363c16.667 15.333 37.5 28.5 62.5 39.5s52.5 16.5 82.5 16.5c28.667 0 55.167 -5.33301 79.5 -16s45.5 -25.5 63.5 -44.5s32 -41.667 42 -68s15 -55.166 15 -86.499z" />
    <glyph glyph-name="c" unicode="c" horiz-adv-x="424" 
d="M400 34c-19.333 -12 -40.832 -22.0049 -64.499 -30.0049s-48.5 -12 -74.5 -12c-32 0 -61.333 5.5 -88 16.5s-49.834 26.333 -69.501 46s-34.834 42.5 -45.501 68.5s-16 54 -16 84s5.33301 58.333 16 85s25.834 49.834 45.501 69.501s42.834 35.334 69.501 47.001
s56 17.5 88 17.5c26 0 50.833 -4 74.5 -12s45.167 -18 64.5 -30l-25 -43c-16.667 10.667 -34.834 19.334 -54.501 26.001s-40.5 10 -62.5 10c-23.333 0 -45 -4 -65 -12s-37.167 -19.5 -51.5 -34.5s-25.5 -32.667 -33.5 -53s-12 -43.166 -12 -68.499
c0 -24.667 4.33301 -47.167 13 -67.5s20.334 -38 35.001 -53s32 -26.667 52 -35s41.333 -12.5 64 -12.5s43.667 3.33301 63 10s37.666 15.334 54.999 26.001z" />
    <glyph glyph-name="d" unicode="d" horiz-adv-x="506" 
d="M388 315c-15.333 18 -34.665 33 -57.998 45s-49.666 18 -78.999 18c-22 0 -42.333 -4.16699 -61 -12.5s-34.834 -20 -48.501 -35s-24.334 -32.833 -32.001 -53.5s-11.5 -43.667 -11.5 -69c0 -24 3.83301 -46.333 11.5 -67s18.167 -38.5 31.5 -53.5
s29.666 -26.667 48.999 -35s40.333 -12.5 63 -12.5c28.667 0 54.5 6 77.5 18s42.167 27.667 57.5 47v210zM390.001 0l-0.00195312 50.999c-17.333 -17.333 -38.166 -31.5 -62.499 -42.5s-51.5 -16.5 -81.5 -16.5c-29.333 0 -56.5 5.33301 -81.5 16s-46.5 25.5 -64.5 44.5
s-32 41.667 -42 68s-15 55.166 -15 86.499c0 30.667 5.33301 59.334 16 86.001s25.334 49.834 44.001 69.501s40.5 35.167 65.5 46.5s51.5 17 79.5 17c30 0 56.667 -4.83301 80 -14.5s43.333 -22.167 60 -37.5v359h55v-733h-53z" />
    <glyph glyph-name="e" unicode="e" horiz-adv-x="461" 
d="M369 241c-1.33301 19.333 -4.83203 37.333 -10.499 54s-14 31.167 -25 43.5s-24.5 22 -40.5 29s-34.667 10.5 -56 10.5c-40 0 -71.833 -12.5 -95.5 -37.5s-37.834 -58.167 -42.501 -99.5h270zM422.001 224l0.000976562 -12.998c0 -4 -0.666992 -8.66699 -2 -14h-323
c1.33301 -22 5.5 -42.5 12.5 -61.5s17.5 -35.5 31.5 -49.5s31.5 -25 52.5 -33s45.833 -12 74.5 -12c19.333 0 39.166 2.33301 59.499 7s40.166 10.667 59.499 18l6 -24c1.33301 -3.33301 2.16602 -6.33301 2.49902 -9s0.833008 -5 1.5 -7c0.666992 -2.66699 1 -5 1 -7
c-21.333 -8 -43.666 -14.5 -66.999 -19.5s-45.333 -7.5 -66 -7.5c-36.667 0 -69 5.5 -97 16.5s-51.333 26.333 -70 46s-32.667 42.667 -42 69s-14 54.5 -14 84.5c0 29.333 4.5 57.166 13.5 83.499s22.167 49.5 39.5 69.5s38.333 35.833 63 47.5s52.334 17.5 83.001 17.5
c29.333 0 55.333 -5.16699 78 -15.5s41.667 -24.5 57 -42.5s26.833 -39.333 34.5 -64s11.5 -51.334 11.5 -80.001z" />
    <glyph glyph-name="f" unicode="f" horiz-adv-x="277" 
d="M297 682c-7.33301 2.66699 -15.668 4.66699 -25.001 6s-17.666 2 -24.999 2c-33.333 0 -58 -9.83301 -74 -29.5s-24 -52.5 -24 -98.5v-144h124v-49h-124v-369h-55v369h-70v13l70 39v134c0 62 12.833 108.333 38.5 139s62.167 46 109.5 46
c11.333 0 22.5 -0.666992 33.5 -2s21.5 -4 31.5 -8z" />
    <glyph glyph-name="g" unicode="g" horiz-adv-x="506" 
d="M388 313c-15.333 18 -34.8311 33.332 -58.498 45.999s-49.5 19 -77.5 19c-22.667 0 -43.334 -4.16699 -62.001 -12.5s-34.834 -20.166 -48.501 -35.499s-24.334 -33.333 -32.001 -54s-11.5 -43.667 -11.5 -69c0 -24 3.83301 -46.167 11.5 -66.5s18.334 -38 32.001 -53
s30.167 -26.833 49.5 -35.5s41 -13 65 -13c26.667 0 51.5 5.83301 74.5 17.5s42.167 27.167 57.5 46.5v210zM443.002 -41.001c0 -63.333 -15.001 -109.999 -45.001 -139.999s-73.333 -45 -130 -45c-24.667 0 -48.167 2.16699 -70.5 6.5s-45.166 10.166 -68.499 17.499l10 51
c22 -8.66699 43.167 -14.834 63.5 -18.501s40.166 -5.5 59.499 -5.5c44 0 76 10.5 96 31.5s30 53.833 30 98.5v92c-16.667 -15.333 -37 -28.333 -61 -39s-51 -16 -81 -16c-29.333 0 -56.5 5.33301 -81.5 16s-46.5 25.5 -64.5 44.5s-32 41.667 -42 68s-15 55.166 -15 86.499
c0 30.667 5.33301 59.334 16 86.001s25.334 49.834 44.001 69.501s40.5 35.167 65.5 46.5s51.5 17 79.5 17c30 0 57.333 -5.5 82 -16.5s44.667 -24.5 60 -40.5v49h53v-459z" />
    <glyph glyph-name="h" unicode="h" horiz-adv-x="466" 
d="M357 0v269c0 35.333 -7.66699 62.333 -23 81s-40 28 -74 28c-26.667 0 -53 -8 -79 -24s-48.667 -34.667 -68 -56v-298h-55v733h55v-386c20.667 22 44.667 40.667 72 56s56 23 86 23c48 0 83.667 -13.667 107 -41s35 -62 35 -104v-281h-56z" />
    <glyph glyph-name="i" unicode="i" horiz-adv-x="188" 
d="M66 0v418h56v-418h-56zM134 573c0 -11.333 -3.83301 -20.833 -11.5 -28.5s-17.167 -11.5 -28.5 -11.5s-20.833 3.83301 -28.5 11.5s-11.5 17.167 -11.5 28.5s3.83301 21 11.5 29s17.167 12 28.5 12s20.833 -4 28.5 -12s11.5 -17.667 11.5 -29z" />
    <glyph glyph-name="j" unicode="j" horiz-adv-x="189" 
d="M124 -99c0 -44 -9.00195 -75.833 -27.002 -95.5s-44.667 -29.5 -80 -29.5c-9.33301 0 -19.166 0.666992 -29.499 2s-20.5 3 -30.5 5l7 48c7.33301 -1.33301 14.333 -2.5 21 -3.5s13.667 -1.5 21 -1.5c20.667 0 36.334 5.5 47.001 16.5s16 29.5 16 55.5v520h55v-517z
M135.998 573c0 -11.333 -3.83301 -20.833 -11.5 -28.5s-17.167 -11.5 -28.5 -11.5s-20.833 3.83301 -28.5 11.5s-11.5 17.167 -11.5 28.5s3.83301 21 11.5 29s17.167 12 28.5 12s20.833 -4 28.5 -12s11.5 -17.667 11.5 -29z" />
    <glyph glyph-name="k" unicode="k" horiz-adv-x="398" 
d="M326 0l-208 206v-206h-55v733h55v-500l198 185h70l-217 -197l227 -221h-70z" />
    <glyph glyph-name="l" unicode="l" horiz-adv-x="187" 
d="M66 0v733h55v-733h-55z" />
    <glyph glyph-name="m" unicode="m" horiz-adv-x="748" 
d="M633 0l-0.000976562 274c0 34 -7 59.667 -21 77s-36 26 -66 26c-26.667 0 -52.167 -7.5 -76.5 -22.5s-46.166 -34.5 -65.499 -58.5v-296h-56v272c0 35.333 -6.83301 61.833 -20.5 79.5s-36.167 26.5 -67.5 26.5c-28 0 -53.833 -8 -77.5 -24s-45.167 -35 -64.5 -57v-297
h-55v418h53v-71c20 20.667 43.333 39 70 55s56.667 24 90 24c30 0 54.667 -7.5 74 -22.5s33 -36.167 41 -63.5c20.667 24.667 45.667 45 75 61s61 24 95 24c38.667 0 69.667 -11.833 93 -35.5s35 -59.167 35 -106.5v-283h-56z" />
    <glyph glyph-name="n" unicode="n" 
d="M359 0l-0.00292969 269c0 35.333 -7.5 62.333 -22.5 81s-39.5 28 -73.5 28c-26.667 0 -52.667 -8 -78 -24s-47.666 -34.667 -66.999 -56v-298h-55v418h53v-72c20.667 22 44.834 40.833 72.501 56.5s56.834 23.5 87.501 23.5c48 0 83.167 -13.667 105.5 -41
s33.5 -62 33.5 -104v-281h-56z" />
    <glyph glyph-name="o" unicode="o" horiz-adv-x="500" 
d="M402 209c0 24.667 -3.66699 47.501 -11 68.501s-17.666 39 -30.999 54s-29.333 26.667 -48 35s-39.334 12.5 -62.001 12.5s-43.334 -4.33301 -62.001 -13s-34.667 -20.5 -48 -35.5s-23.666 -32.833 -30.999 -53.5s-11 -43.334 -11 -68.001s3.66699 -47.334 11 -68.001
s17.666 -38.5 30.999 -53.5s29.333 -26.833 48 -35.5s39.334 -13 62.001 -13s43.334 4.33301 62.001 13s34.667 20.5 48 35.5s23.666 32.833 30.999 53.5s11 43.334 11 68.001zM458 210.001c0 -30 -5.16992 -58.333 -15.5029 -85s-24.666 -49.834 -42.999 -69.501
s-40.166 -35.167 -65.499 -46.5s-53.333 -17 -84 -17s-58.667 5.66699 -84 17s-47.166 26.666 -65.499 45.999s-32.5 42.333 -42.5 69s-15 55 -15 85s5 58.167 15 84.5s24.167 49.333 42.5 69s40.333 35.167 66 46.5s53.834 17 84.501 17s58.667 -5.66699 84 -17
s47.166 -26.666 65.499 -45.999s32.5 -42.166 42.5 -68.499s15 -54.5 15 -84.5z" />
    <glyph glyph-name="p" unicode="p" horiz-adv-x="506" 
d="M408 209c0 24 -3.66602 46.334 -10.999 67.001s-17.833 38.5 -31.5 53.5s-29.834 26.833 -48.501 35.5s-39.334 13 -62.001 13c-29.333 0 -55.5 -5.83301 -78.5 -17.5s-42.5 -26.834 -58.5 -45.501v-220c16.667 -16.667 36.5 -30.167 59.5 -40.5s48.5 -15.5 76.5 -15.5
c22 0 42.5 4 61.5 12s35.333 19.5 49 34.5s24.334 33 32.001 54s11.5 44.167 11.5 69.5zM463.001 210.001c0 -31.333 -5.16504 -60.335 -15.498 -87.002s-24.833 -49.667 -43.5 -69s-40.834 -34.5 -66.501 -45.5s-53.5 -16.5 -83.5 -16.5c-26 0 -50.5 4 -73.5 12
s-43.833 18.333 -62.5 31v-251h-55v634h53v-51c17.333 16.667 38.166 30.667 62.499 42s52.5 17 84.5 17c28 0 54.167 -5.33301 78.5 -16s45.5 -25.667 63.5 -45s32.167 -42.166 42.5 -68.499s15.5 -55.166 15.5 -86.499z" />
    <glyph glyph-name="q" unicode="q" horiz-adv-x="506" 
d="M388 315c-15.333 17.333 -34.833 32.1689 -58.5 44.502s-49.5 18.5 -77.5 18.5c-22 0 -42.333 -4.16699 -61 -12.5s-35 -20 -49 -35s-24.833 -32.833 -32.5 -53.5s-11.5 -43.667 -11.5 -69c0 -24.667 3.66699 -47.334 11 -68.001s18 -38.334 32 -53.001
s30.833 -26.167 50.5 -34.5s41.834 -12.5 66.501 -12.5c26.667 0 51.167 6 73.5 18s41.166 27.333 56.499 46v211zM388 -215.997l-0.00292969 261.997c-16.667 -15.333 -36.5 -28.166 -59.5 -38.499s-49.5 -15.5 -79.5 -15.5c-29.333 0 -56.666 5.16699 -81.999 15.5
s-47.166 25 -65.499 44s-32.666 41.667 -42.999 68s-15.5 55.5 -15.5 87.5c0 31.333 5.5 60.333 16.5 87s26 49.834 45 69.501s41.167 35 66.5 46s52 16.5 80 16.5c30 0 56.833 -5.16699 80.5 -15.5s43.167 -23.166 58.5 -38.499v46h53v-634h-55z" />
    <glyph glyph-name="r" unicode="r" horiz-adv-x="285" 
d="M268 373c-30 -1.33301 -58.5 -9.16699 -85.5 -23.5s-48.5 -35.5 -64.5 -63.5v-286h-55v418h53v-79c19.333 27.333 42 48.833 68 64.5s54 23.5 84 23.5v-54z" />
    <glyph glyph-name="s" unicode="s" horiz-adv-x="354" 
d="M311 116c0 -16 -3.16699 -31.498 -9.5 -46.498s-15.333 -28.333 -27 -40s-25.834 -20.834 -42.501 -27.501s-35 -10 -55 -10c-28 0 -54 4.83301 -78 14.5s-46.667 22.167 -68 37.5l27 40c17.333 -13.333 36.166 -24.333 56.499 -33s40.5 -13 60.5 -13
c27.333 0 48.333 6.5 63 19.5s22 30.167 22 51.5c0 16.667 -5.16699 30.167 -15.5 40.5s-23.166 19.333 -38.499 27s-31.833 14.667 -49.5 21s-34.167 14.166 -49.5 23.499s-28.166 21 -38.499 35s-15.5 32 -15.5 54c0 15.333 3 29.833 9 43.5s14.833 26 26.5 37
s25.834 19.667 42.501 26s35.334 9.5 56.001 9.5c22 0 43.333 -3.83301 64 -11.5s39.667 -17.167 57 -28.5l-25 -42c-15.333 11.333 -30.833 20.166 -46.5 26.499s-32.5 9.5 -50.5 9.5c-28 0 -48.667 -6.5 -62 -19.5s-20 -28.167 -20 -45.5
c0 -16 5.16699 -28.833 15.5 -38.5s23.166 -18.167 38.499 -25.5s31.833 -14.333 49.5 -21s34.167 -14.667 49.5 -24s28.166 -21.166 38.499 -35.499s15.5 -32.5 15.5 -54.5z" />
    <glyph glyph-name="t" unicode="t" horiz-adv-x="293" 
d="M143 369l0.000976562 -262c0 -44 23.333 -66 70 -66c8 0 15.667 0.5 23 1.5s14.666 2.16699 21.999 3.5l5 -47c-11.333 -2 -21.833 -3.66699 -31.5 -5s-20.167 -2 -31.5 -2c-36 0 -63.5 9.5 -82.5 28.5s-28.5 49.167 -28.5 90.5v258h-71v13l71 39v90l54 40v-133h132v-49
h-132z" />
    <glyph glyph-name="u" unicode="u" 
d="M358 0l0.00195312 69c-9.33301 -10 -20 -19.5 -32 -28.5s-24.833 -17.167 -38.5 -24.5s-27.834 -13.166 -42.501 -17.499s-29.667 -6.5 -45 -6.5c-48.667 0 -84.334 13.667 -107.001 41s-34 62 -34 104v281h56v-269c0 -35.333 7.66699 -62.333 23 -81s40 -28 74 -28
c26.667 0 52.5 7.66699 77.5 23s47.167 33.666 66.5 54.999v300h55v-418h-53z" />
    <glyph glyph-name="v" unicode="v" horiz-adv-x="433" 
d="M219 -12h-10l-201 430h61l147 -333l150 333h59z" />
    <glyph glyph-name="w" unicode="w" horiz-adv-x="611" 
d="M453 -12h-10l-134 324l-137 -324h-10l-141 430h60l94 -314l128 314h10l131 -314l90 314h59z" />
    <glyph glyph-name="x" unicode="x" horiz-adv-x="393" 
d="M319 0l-121 169l-123 -169h-59l154 209l-153 209h63l120 -168l119 168h60l-152 -207l154 -211h-62z" />
    <glyph glyph-name="y" unicode="y" horiz-adv-x="427" 
d="M125 -216h-56l118 244l-179 390h61l145 -334l146 334h60z" />
    <glyph glyph-name="z" unicode="z" horiz-adv-x="397" 
d="M100 48h270v-48h-352l-4 9l276 361h-256v48h338l4 -10z" />
    <glyph glyph-name="braceleft" unicode="{" horiz-adv-x="296" 
d="M278 -223c-112 0 -168 57.668 -168 173.001v214c0 23.333 -4.5 41.166 -13.5 53.499s-26.833 18.5 -53.5 18.5h-23v47h23c26.667 0 44.5 6 53.5 18s13.5 30 13.5 54v211c0 116 56 174 168 174v-49c-38 0 -66.667 -9.33301 -86 -28s-29 -50.334 -29 -95.001v-200
c0 -30.667 -4.33301 -54.167 -13 -70.5s-26.334 -29.166 -53.001 -38.499c26.667 -9.33301 44.334 -22.166 53.001 -38.499s13 -39.833 13 -70.5v-201c0 -44.667 9.66699 -76.334 29 -95.001s48 -28 86 -28v-49z" />
    <glyph glyph-name="bar" unicode="|" horiz-adv-x="231" 
d="M90 -217v949h50v-949h-50z" />
    <glyph glyph-name="braceright" unicode="}" horiz-adv-x="296" 
d="M253 236c-26.667 0 -44.5 -6.16797 -53.5 -18.501s-13.5 -30.166 -13.5 -53.499v-214c0 -115.333 -56 -173 -168 -173v49c38 0 66.833 9.33301 86.5 28s29.5 50.334 29.5 95.001v201c0 30.667 4.33301 54.167 13 70.5s26 29.166 52 38.499
c-26 9.33301 -43.333 22.166 -52 38.499s-13 39.833 -13 70.5v200c0 44.667 -9.83301 76.334 -29.5 95.001s-48.5 28 -86.5 28v49c112 0 168 -58 168 -174v-211c0 -24 4.5 -42 13.5 -54s26.833 -18 53.5 -18h23v-47h-23z" />
    <glyph glyph-name="asciitilde" unicode="~" horiz-adv-x="440" 
d="M370 378c-31.333 -37.333 -62.665 -55.333 -93.998 -54c-10.667 0 -21.167 2.16699 -31.5 6.5s-20.5 9.5 -30.5 15.5c-9.33301 6 -18.5 11 -27.5 15s-17.167 6.33301 -24.5 7c-11.333 0 -22 -3.16699 -32 -9.5s-21 -16.833 -33 -31.5l-28 34
c31.333 37.333 62.666 55.333 93.999 54c10.667 0 21.167 -2.16699 31.5 -6.5s20.166 -9.5 29.499 -15.5c10 -6 19.5 -11 28.5 -15s17.167 -6.33301 24.5 -7c11.333 0 22 3.16699 32 9.5s21 16.833 33 31.5z" />
    <glyph glyph-name="uni00A0" unicode="&#xa0;" horiz-adv-x="224" 
 />
    <glyph glyph-name="exclamdown" unicode="&#xa1;" horiz-adv-x="203" 
d="M80 552h43l9 -551h-60zM58 698c0 12.667 4.16699 23.167 12.5 31.5s18.833 12.5 31.5 12.5c12 0 22.167 -4.16699 30.5 -12.5s12.5 -18.833 12.5 -31.5c0 -12 -4.16699 -22.167 -12.5 -30.5s-18.5 -12.5 -30.5 -12.5c-12.667 0 -23.167 4.16699 -31.5 12.5
s-12.5 18.5 -12.5 30.5z" />
    <glyph glyph-name="cent" unicode="&#xa2;" horiz-adv-x="438" 
d="M95 208c0 -41.333 10.5 -75.833 31.5 -103.5s48.167 -46.5 81.5 -56.5l26 328c-40.667 -5.33301 -74 -22.833 -100 -52.5s-39 -68.167 -39 -115.5zM204 -2c-24.667 5.33301 -46.998 14.3301 -66.998 26.9971s-37.167 28.167 -51.5 46.5s-25.333 38.833 -33 61.5
s-11.5 47 -11.5 73c0 29.333 5 56.833 15 82.5s23.833 48.334 41.5 68.001s38.5 35.5 62.5 47.5s50 19 78 21l6 75l47 -4l-6 -72c22.667 -2 43.334 -6.66699 62.001 -14s36 -16 52 -26l-25 -43c-13.333 7.33301 -27.5 14.333 -42.5 21s-31.833 11 -50.5 13l-26 -334h4
c21.333 0 41.833 3.16699 61.5 9.5s38.5 15.166 56.5 26.499l22 -43c-21.333 -13.333 -43.833 -23.666 -67.5 -30.999s-48.167 -11 -73.5 -11h-7c-0.666992 -11.333 -1.33398 -21.666 -2.00098 -30.999s-1.33398 -17.666 -2.00098 -24.999
c-0.666992 -8 -1.33398 -15 -2.00098 -21l-47 4z" />
    <glyph glyph-name="sterling" unicode="&#xa3;" horiz-adv-x="435" 
d="M390 498c-18 12 -36.001 21.334 -54.001 28.001s-37.667 10 -59 10c-43.333 0 -74.166 -13.5 -92.499 -40.5s-27.5 -62.167 -27.5 -105.5v-80h146v-48h-146v-212h259v-50h-381v50h66v212h-63v8l63 43v82c0 27.333 3.83301 52.666 11.5 75.999s19.167 43.5 34.5 60.5
s34.5 30.333 57.5 40s49.5 14.5 79.5 14.5c25.333 0 49 -4 71 -12s42.667 -18 62 -30z" />
    <glyph glyph-name="yen" unicode="&#xa5;" horiz-adv-x="495" 
d="M300 311h138v-49h-162v-74h162v-48h-162v-140h-55v140h-164v48h164v74h-164v49h141l-171 266h64l159 -254l156 254h62z" />
    <glyph glyph-name="section" unicode="&#xa7;" horiz-adv-x="422" 
d="M326 279c0 12 -2.99902 22.002 -8.99902 30.002s-14.833 15.333 -26.5 22s-26.334 13 -44.001 19l-61.5 20c-21.333 -2.66699 -39.333 -10.5 -54 -23.5s-22 -28.167 -22 -45.5c0 -12.667 3.83301 -23.167 11.5 -31.5s18.167 -15.5 31.5 -21.5s29 -11.833 47 -17.5
s37 -12.167 57 -19.5c19.333 3.33301 35.833 11.166 49.5 23.499s20.5 27.166 20.5 44.499zM377.001 286.002c0 -23.333 -7.00488 -43.3291 -21.0049 -59.9961s-32 -29.334 -54 -38.001c14 -8.66699 25.667 -19.334 35 -32.001s14 -28.334 14 -47.001
c0 -16.667 -3.5 -32.167 -10.5 -46.5s-17 -26.833 -30 -37.5s-28.667 -19 -47 -25s-38.5 -9 -60.5 -9c-28 0 -55 4.83301 -81 14.5s-49 22.167 -69 37.5l27 40c16 -13.333 35.833 -24.5 59.5 -33.5s45.834 -13.5 66.501 -13.5c30 0 52.833 5.66699 68.5 17
s23.5 27.666 23.5 48.999c0 16 -6 28.833 -18 38.5s-27 18 -45 25s-37.333 13.667 -58 20s-40 13.833 -58 22.5s-33 19.667 -45 33s-18 30.666 -18 51.999c0 23.333 7.5 43.666 22.5 60.999s33.833 29.666 56.5 36.999c-14.667 8 -27 18.167 -37 30.5s-15 28.5 -15 48.5
c0 16.667 3.66699 32 11 46s17.5 26.167 30.5 36.5s28.5 18.5 46.5 24.5s37.333 9 58 9c27.333 0 52.5 -4.16699 75.5 -12.5s42.5 -18.166 58.5 -29.499l-25 -42c-13.333 10 -29.666 19 -48.999 27s-39.666 12 -60.999 12c-28 0 -50.167 -6.16699 -66.5 -18.5
s-24.5 -28.166 -24.5 -47.499c0 -14.667 6 -26.5 18 -35.5s26.833 -17 44.5 -24s36.834 -13.833 57.501 -20.5s39.834 -14.667 57.501 -24s32.5 -20.666 44.5 -33.999s18 -30.333 18 -51z" />
    <glyph glyph-name="dieresis" unicode="&#xa8;" horiz-adv-x="440" 
d="M177 543c0 -11.333 -4.16699 -21.166 -12.5 -29.499s-18.166 -12.5 -29.499 -12.5s-21.166 4.16699 -29.499 12.5s-12.5 18.166 -12.5 29.499s4.16699 21.333 12.5 30s18.166 13 29.499 13s21.166 -4.33301 29.499 -13s12.5 -18.667 12.5 -30zM348 543
c0 -11.333 -4.16699 -21.166 -12.5 -29.499s-18.166 -12.5 -29.499 -12.5c-12 0 -22.167 4.16699 -30.5 12.5s-12.5 18.166 -12.5 29.499s4.16699 21.333 12.5 30s18.5 13 30.5 13c11.333 0 21.166 -4.33301 29.499 -13s12.5 -18.667 12.5 -30z" />
    <glyph glyph-name="copyright" unicode="&#xa9;" horiz-adv-x="842" 
d="M560 220c-16.667 -11.333 -35.3291 -20.4951 -55.9961 -27.4951s-43.334 -10.5 -68.001 -10.5c-27.333 0 -52.833 4.5 -76.5 13.5s-44.334 21.667 -62.001 38s-31.5 36.166 -41.5 59.499s-15 49 -15 77s5 53.667 15 77s23.833 43.166 41.5 59.499
s38.334 29.166 62.001 38.499s49.167 14 76.5 14c25.333 0 48 -3.5 68 -10.5s38.667 -15.833 56 -26.5l-17 -39c-15.333 9.33301 -32.166 17.166 -50.499 23.499s-37.5 9.5 -57.5 9.5c-20.667 0 -39.834 -3.5 -57.501 -10.5s-32.834 -16.833 -45.501 -29.5
s-22.667 -28 -30 -46s-11 -38 -11 -60s3.66699 -42 11 -60s17.5 -33.333 30.5 -46s28.5 -22.334 46.5 -29.001s37.333 -10 58 -10c19.333 0 38.166 3.16699 56.499 9.5s35.166 14.5 50.499 24.5zM744.005 366.005c0 47.333 -8.5 91.333 -25.5 132s-40 76.334 -69 107.001
s-63.167 54.667 -102.5 72s-81.333 26 -126 26s-86.5 -8.66699 -125.5 -26s-73 -41.333 -102 -72s-52 -66.334 -69 -107.001s-25.5 -84.667 -25.5 -132c0 -46.667 8.5 -90.334 25.5 -131.001s40 -76.167 69 -106.5s63 -54.166 102 -71.499s80.833 -26 125.5 -26
s86.5 8.66699 125.5 26s73.167 41.166 102.5 71.499s52.5 65.833 69.5 106.5s25.5 84.334 25.5 131.001zM792.005 366.005c0 -52 -9.66699 -101 -29 -147s-45.833 -86.167 -79.5 -120.5s-73 -61.333 -118 -81s-93.167 -29.5 -144.5 -29.5s-99.5 9.83301 -144.5 29.5
s-84.333 46.667 -118 81s-60.167 74.5 -79.5 120.5s-29 95 -29 147s9.66699 101 29 147s45.833 86.167 79.5 120.5s73 61.5 118 81.5s93.167 30 144.5 30s99.5 -10 144.5 -30s84.333 -47.167 118 -81.5s60.167 -74.5 79.5 -120.5s29 -95 29 -147z" />
    <glyph glyph-name="ordfeminine" unicode="&#xaa;" horiz-adv-x="349" 
d="M246 557c-13.333 7.33301 -26.333 13.167 -39 17.5s-27.334 6.5 -44.001 6.5c-21.333 0 -39.166 -5 -53.499 -15s-21.5 -24.667 -21.5 -44s7 -34 21 -44s32.667 -15 56 -15c17.333 0 32.833 3.33301 46.5 10s25.167 15.667 34.5 27v57zM248 429.001v32.999
c-11.333 -11.333 -25.166 -20.5 -41.499 -27.5s-34.166 -10.5 -53.499 -10.5c-32 0 -59 8.33301 -81 25s-33 40.334 -33 71.001c0 29.333 11 52.833 33 70.5s49.333 26.5 82 26.5c19.333 0 36.166 -2.16699 50.499 -6.5s28.166 -9.5 41.499 -15.5v24
c0 28 -6.66699 48.667 -20 62s-35.666 20 -66.999 20c-26.667 0 -53.334 -5.33301 -80.001 -16l-8 42c14 5.33301 29.667 9.5 47 12.5s33.333 4.5 48 4.5c45.333 0 78.5 -10.5 99.5 -31.5s31.5 -52.5 31.5 -94.5v-189h-49z" />
    <glyph glyph-name="guillemotleft" unicode="&#xab;" horiz-adv-x="402" 
d="M154 9l-105 164l105 163h58l-108 -163l108 -164h-58zM299 9l-105 164l105 163h58l-108 -163l108 -164h-58z" />
    <glyph glyph-name="registered" unicode="&#xae;" horiz-adv-x="386" 
d="M193 400c-23.333 0 -45.168 4.5 -65.501 13.5s-38.166 21.333 -53.499 37s-27.333 33.834 -36 54.501s-13 42.667 -13 66c0 24 4.33301 46.5 13 67.5s20.5 39.333 35.5 55s32.833 28 53.5 37s42.667 13.5 66 13.5s45.333 -4.5 66 -13.5s38.667 -21.333 54 -37
s27.333 -34 36 -55s13 -43.5 13 -67.5c0 -23.333 -4.33301 -45.333 -13 -66s-20.667 -38.834 -36 -54.501s-33.333 -28 -54 -37s-42.667 -13.5 -66 -13.5zM192.998 424c20 0 38.5 4 55.5 12s32 18.667 45 32s23.167 28.833 30.5 46.5s11 36.5 11 56.5
c0 20.667 -3.66699 40 -11 58s-17.5 33.667 -30.5 47s-28 23.833 -45 31.5s-35.5 11.5 -55.5 11.5c-19.333 0 -37.666 -3.83301 -54.999 -11.5s-32.333 -18.167 -45 -31.5s-22.667 -29 -30 -47s-11 -37.333 -11 -58c0 -20 3.66699 -38.833 11 -56.5s17.333 -33.167 30 -46.5
s27.667 -24 45 -32s35.666 -12 54.999 -12zM167.998 573c3.33301 -0.666992 6.50098 -1 9.50098 -1h8.5c26 0 39 11 39 33c0 18.667 -12.333 28 -37 28h-10.5c-3.66699 0 -6.83398 -0.333008 -9.50098 -1v-59zM139.999 655c14 2 29.001 3 45.001 3
c23.333 0 40.666 -5.16699 51.999 -15.5s17 -22.5 17 -36.5c0 -11.333 -2.83301 -21.5 -8.5 -30.5s-13.167 -15.5 -22.5 -19.5l43 -67h-33l-37 61c-2.66699 -0.666992 -5.16699 -1 -7.5 -1h-5.5h-6c-2.66699 0 -5.66699 0.333008 -9 1v-61h-28v166z" />
    <glyph glyph-name="macron" unicode="&#xaf;" horiz-adv-x="440" 
d="M77 512v48h287v-48h-287z" />
    <glyph glyph-name="degree" unicode="&#xb0;" horiz-adv-x="372" 
d="M252 583c0 19.333 -6 35.666 -18 48.999s-28 20 -48 20c-19.333 0 -35.166 -6.66699 -47.499 -20s-18.5 -29.666 -18.5 -48.999s6.16699 -35.666 18.5 -48.999s28.166 -20 47.499 -20c20 0 36 6.66699 48 20s18 29.666 18 48.999zM293 583
c0 -28.667 -9.83301 -53.167 -29.5 -73.5s-45.5 -30.5 -77.5 -30.5s-57.667 10.167 -77 30.5s-29 44.833 -29 73.5s9.66699 53.167 29 73.5s45 30.5 77 30.5s57.833 -10.167 77.5 -30.5s29.5 -44.833 29.5 -73.5z" />
    <glyph glyph-name="acute" unicode="&#xb4;" horiz-adv-x="440" 
d="M130 475l-18 31l181 123l29 -55z" />
    <glyph glyph-name="paragraph" unicode="&#xb6;" horiz-adv-x="558" 
d="M299 533c-62 -5.33301 -109.167 -23.166 -141.5 -53.499s-48.5 -69.5 -48.5 -117.5c0 -26 5.33301 -48.5 16 -67.5s25 -34.833 43 -47.5s38.333 -21.834 61 -27.501s46 -7.5 70 -5.5v319zM432 0l0.000976562 528.998c-11.333 1.33301 -23.833 2.33301 -37.5 3
s-28.167 1.33398 -43.5 2.00098v-534h-52v164c-32.667 -2 -64.167 0.833008 -94.5 8.5s-57 19.834 -80 36.501s-41.333 37.667 -55 63s-20.5 54.666 -20.5 87.999c0 34 6.66699 64.833 20 92.5s32.666 51.334 57.999 71.001s56 35 92 46s76.667 16.5 122 16.5
c28 0 52.667 -0.833008 74 -2.5s44.333 -4.16699 69 -7.5v-576h-52z" />
    <glyph glyph-name="periodcentered" unicode="&#xb7;" horiz-adv-x="222" 
d="M68 370c0 12 4.16699 22.167 12.5 30.5s18.5 12.5 30.5 12.5c12.667 0 23.167 -4.16699 31.5 -12.5s12.5 -18.5 12.5 -30.5c0 -12.667 -4.16699 -23.167 -12.5 -31.5s-18.833 -12.5 -31.5 -12.5c-12 0 -22.167 4.16699 -30.5 12.5s-12.5 18.833 -12.5 31.5z" />
    <glyph glyph-name="cedilla" unicode="&#xb8;" horiz-adv-x="440" 
d="M332 -150c0 -23.333 -8.5 -43.6689 -25.5 -61.002s-42.5 -26 -76.5 -26c-17.333 0 -34.5 2.83301 -51.5 8.5s-35.167 13.834 -54.5 24.501l18 36c17.333 -9.33301 33 -16.5 47 -21.5s27.667 -7.5 41 -7.5c18 0 31.667 4.16699 41 12.5s14 19.166 14 32.499
c0 15.333 -7.5 28.833 -22.5 40.5s-41.167 19.167 -78.5 22.5l-3 6l26 97l37 -9l-16 -60c36.667 -7.33301 63.167 -19.666 79.5 -36.999s24.5 -36.666 24.5 -57.999z" />
    <glyph glyph-name="ordmasculine" unicode="&#xba;" horiz-adv-x="380" 
d="M296 583c0 34.667 -9.66699 63 -29 85s-45 33 -77 33s-57.5 -11 -76.5 -33s-28.5 -50.333 -28.5 -85s9.5 -63 28.5 -85s44.5 -33 76.5 -33s57.667 11.167 77 33.5s29 50.5 29 84.5zM347 583c0 -22 -3.83496 -42.834 -11.502 -62.501s-18.5 -36.834 -32.5 -51.501
s-30.5 -26.167 -49.5 -34.5s-40.167 -12.5 -63.5 -12.5s-44.666 4.16699 -63.999 12.5s-35.833 19.833 -49.5 34.5s-24.167 31.834 -31.5 51.501s-11 40.5 -11 62.5s3.83301 42.833 11.5 62.5s18.334 36.834 32.001 51.501s30 26.167 49 34.5s40.167 12.5 63.5 12.5
s44.666 -4.16699 63.999 -12.5s35.833 -19.666 49.5 -33.999s24.334 -31.333 32.001 -51s11.5 -40.834 11.5 -63.501z" />
    <glyph glyph-name="guillemotright" unicode="&#xbb;" horiz-adv-x="402" 
d="M103 9h-58l108 164l-108 163h58l105 -163zM248 9h-58l108 164l-108 163h58l105 -163z" />
    <glyph glyph-name="questiondown" unicode="&#xbf;" horiz-adv-x="384" 
d="M200 698c0 12.667 4.16699 23.167 12.5 31.5s18.833 12.5 31.5 12.5c12 0 22.167 -4.16699 30.5 -12.5s12.5 -18.833 12.5 -31.5c0 -12 -4.16699 -22.167 -12.5 -30.5s-18.5 -12.5 -30.5 -12.5c-12.667 0 -23.167 4.16699 -31.5 12.5s-12.5 18.5 -12.5 30.5zM26 160
c0 24.667 4.66895 46.334 14.002 65.001s21.166 35.667 35.499 51s29.833 29.5 46.5 42.5s32.167 26.167 46.5 39.5s26.166 27.333 35.499 42s14 31.667 14 51v80h52v-91c0 -21.333 -4.66699 -40.166 -14 -56.499s-21 -31.5 -35 -45.5s-29 -27.333 -45 -40
s-31 -25.834 -45 -39.501s-25.667 -28.167 -35 -43.5s-14 -33 -14 -53c0 -34 11.667 -61.833 35 -83.5s58 -32.5 104 -32.5c24.667 0 47 3.16699 67 9.5s39.667 14.5 59 24.5l16 -49c-22.667 -10.667 -45.5 -19.667 -68.5 -27s-48.833 -11 -77.5 -11
c-32 0 -59.833 4.33301 -83.5 13s-43.5 20.5 -59.5 35.5s-28 32.667 -36 53s-12 42.166 -12 65.499z" />
    <glyph glyph-name="Agrave" unicode="&#xc0;" horiz-adv-x="696" 
d="M370 795l-192 99l31 54l180 -123zM347 631l-151 -359h302zM614 0l-95 224h-344l-94 -224h-59l321 745h10l321 -745h-60z" />
    <glyph glyph-name="Aacute" unicode="&#xc1;" horiz-adv-x="696" 
d="M321 795l-18 31l181 123l29 -55zM347 631l-151 -359h302zM614 0l-95 224h-344l-94 -224h-59l321 745h10l321 -745h-60z" />
    <glyph glyph-name="Acircumflex" unicode="&#xc2;" horiz-adv-x="696" 
d="M424 807l-79 98l-75 -98h-58l121 149h30l120 -149h-59zM347 631l-151 -359h302zM614 0l-95 224h-344l-94 -224h-59l321 745h10l321 -745h-60z" />
    <glyph glyph-name="Atilde" unicode="&#xc3;" horiz-adv-x="696" 
d="M500 871c-31.333 -37.333 -62.665 -55.333 -93.998 -54c-10.667 0 -21.167 2.16699 -31.5 6.5s-20.5 9.5 -30.5 15.5c-9.33301 6 -18.5 11 -27.5 15s-17.167 6.33301 -24.5 7c-11.333 0 -22 -3.16699 -32 -9.5s-21 -16.833 -33 -31.5l-28 34
c31.333 37.333 62.666 55.333 93.999 54c10.667 0 21.167 -2.16699 31.5 -6.5s20.166 -9.5 29.499 -15.5c10 -6 19.5 -11 28.5 -15s17.167 -6.33301 24.5 -7c11.333 0 22 3.16699 32 9.5s21 16.833 33 31.5zM347.001 631l-151 -359h302zM614.001 0l-95 224h-344l-94 -224
h-59l321 745h10l321 -745h-60z" />
    <glyph glyph-name="Adieresis" unicode="&#xc4;" horiz-adv-x="696" 
d="M304 863c0 -11.333 -4.16699 -21.166 -12.5 -29.499s-18.166 -12.5 -29.499 -12.5s-21.166 4.16699 -29.499 12.5s-12.5 18.166 -12.5 29.499s4.16699 21.333 12.5 30s18.166 13 29.499 13s21.166 -4.33301 29.499 -13s12.5 -18.667 12.5 -30zM475 863
c0 -11.333 -4.16699 -21.166 -12.5 -29.499s-18.166 -12.5 -29.499 -12.5c-12 0 -22.167 4.16699 -30.5 12.5s-12.5 18.166 -12.5 29.499s4.16699 21.333 12.5 30s18.5 13 30.5 13c11.333 0 21.166 -4.33301 29.499 -13s12.5 -18.667 12.5 -30zM347 631l-151 -359h302z
M614 0l-95 224h-344l-94 -224h-59l321 745h10l321 -745h-60z" />
    <glyph glyph-name="Aring" unicode="&#xc5;" horiz-adv-x="696" 
d="M410 812c0 19.333 -5.83301 35 -17.5 47s-26.5 18 -44.5 18c-17.333 0 -31.833 -6 -43.5 -18s-17.5 -27.667 -17.5 -47s5.83301 -35.166 17.5 -47.499s26.167 -18.5 43.5 -18.5c18 0 32.833 6.16699 44.5 18.5s17.5 28.166 17.5 47.499zM347 631l-151 -359h302zM451 811
c0 -25.333 -7.66797 -47.168 -23.001 -65.501s-35.666 -29.833 -60.999 -34.5l307 -711h-60l-95 224h-344l-94 -224h-59l306 712c-25.333 4 -45.5 15.333 -60.5 34s-22.5 40.334 -22.5 65.001c0 28 9.5 51.833 28.5 71.5s43.833 29.5 74.5 29.5
c31.333 0 56.333 -9.83301 75 -29.5s28 -43.5 28 -71.5z" />
    <glyph glyph-name="AE" unicode="&#xc6;" horiz-adv-x="1020" 
d="M544 646l-254 -357h254v357zM544 0v241h-288l-171 -241h-66l527 733h412v-50h-357v-286h322v-50h-322v-296h357v-51h-414z" />
    <glyph glyph-name="Ccedilla" unicode="&#xc7;" horiz-adv-x="740" 
d="M537 -150c0 -23.333 -8.5 -43.6699 -25.5 -61.0029s-42.5 -26 -76.5 -26c-17.333 0 -34.5 2.83301 -51.5 8.5s-35.167 13.834 -54.5 24.501l18 36c17.333 -9.33301 33 -16.5 47 -21.5s27.667 -7.5 41 -7.5c18 0 31.667 4.16699 41 12.5s14 19.166 14 32.499
c0 15.333 -7.5 28.833 -22.5 40.5s-41.167 19.167 -78.5 22.5l-3 6l20 75c-48.667 4 -94.167 15.5 -136.5 34.5s-79.166 44.5 -110.499 76.5s-56 70.167 -74 114.5s-27 93.5 -27 147.5c0 57.333 10.167 109.333 30.5 156s48 86.667 83 120s75.833 59 122.5 77s96 27 148 27
c53.333 0 100.833 -7.66699 142.5 -23s79.167 -34.333 112.5 -57l-25 -47c-34 22 -70.333 40 -109 54s-80 21 -124 21c-44.667 0 -86.5 -7.66699 -125.5 -23s-73 -37.333 -102 -66s-51.667 -63.167 -68 -103.5s-24.5 -85.166 -24.5 -134.499s8.33301 -94 25 -134
s39.667 -74 69 -102s63.666 -49.667 102.999 -65s81.333 -23 126 -23c44 0 85.333 7 124 21s75 31.667 109 53l20 -46c-33.333 -22 -70.333 -40.667 -111 -56s-87 -23.333 -139 -24l-12 -45c36.667 -7.33301 63.167 -19.666 79.5 -36.999s24.5 -36.666 24.5 -57.999z" />
    <glyph glyph-name="Egrave" unicode="&#xc8;" horiz-adv-x="563" 
d="M317 795l-192 99l31 54l180 -123zM87 0v733h414v-50h-358v-286h323v-50h-323v-296h358v-51h-414z" />
    <glyph glyph-name="Eacute" unicode="&#xc9;" horiz-adv-x="563" 
d="M87 0v733h414v-50h-358v-286h323v-50h-323v-296h358v-51h-414zM268 795l-18 31l181 123l29 -55z" />
    <glyph glyph-name="Ecircumflex" unicode="&#xca;" horiz-adv-x="563" 
d="M87 0v733h414v-50h-358v-286h323v-50h-323v-296h358v-51h-414zM371 807l-79 98l-75 -98h-58l121 149h30l120 -149h-59z" />
    <glyph glyph-name="Edieresis" unicode="&#xcb;" horiz-adv-x="563" 
d="M87 0v733h414v-50h-358v-286h323v-50h-323v-296h358v-51h-414zM251 863c0 -11.333 -4.16699 -21.166 -12.5 -29.499s-18.166 -12.5 -29.499 -12.5s-21.166 4.16699 -29.499 12.5s-12.5 18.166 -12.5 29.499s4.16699 21.333 12.5 30s18.166 13 29.499 13
s21.166 -4.33301 29.499 -13s12.5 -18.667 12.5 -30zM422 863c0 -11.333 -4.16699 -21.166 -12.5 -29.499s-18.166 -12.5 -29.499 -12.5c-12 0 -22.167 4.16699 -30.5 12.5s-12.5 18.166 -12.5 29.499s4.16699 21.333 12.5 30s18.5 13 30.5 13
c11.333 0 21.166 -4.33301 29.499 -13s12.5 -18.667 12.5 -30z" />
    <glyph glyph-name="Igrave" unicode="&#xcc;" horiz-adv-x="237" 
d="M141 795l-192 99l31 54l180 -123zM91 0v733h56v-733h-56z" />
    <glyph glyph-name="Iacute" unicode="&#xcd;" horiz-adv-x="237" 
d="M92 795l-18 31l181 123l29 -55zM91 0v733h56v-733h-56z" />
    <glyph glyph-name="Icircumflex" unicode="&#xce;" horiz-adv-x="237" 
d="M195 807l-79 98l-75 -98h-58l121 149h30l120 -149h-59zM91 0v733h56v-733h-56z" />
    <glyph glyph-name="Idieresis" unicode="&#xcf;" horiz-adv-x="237" 
d="M75 863c0 -11.333 -4.16699 -21.166 -12.5 -29.499s-18.166 -12.5 -29.499 -12.5s-21.166 4.16699 -29.499 12.5s-12.5 18.166 -12.5 29.499s4.16699 21.333 12.5 30s18.166 13 29.499 13s21.166 -4.33301 29.499 -13s12.5 -18.667 12.5 -30zM246 863
c0 -11.333 -4.16699 -21.166 -12.5 -29.499s-18.166 -12.5 -29.499 -12.5c-12 0 -22.167 4.16699 -30.5 12.5s-12.5 18.166 -12.5 29.499s4.16699 21.333 12.5 30s18.5 13 30.5 13c11.333 0 21.166 -4.33301 29.499 -13s12.5 -18.667 12.5 -30zM91 0v733h56v-733h-56z" />
    <glyph glyph-name="Eth" unicode="&#xd0;" horiz-adv-x="770" 
d="M652 373c0 44 -7.66797 85.167 -23.001 123.5s-38 72 -68 101s-67 51.833 -111 68.5s-95 25 -153 25c-23.333 0 -46.166 -0.666992 -68.499 -2s-40.833 -3.33301 -55.5 -6v-285h136v-50h-136v-298c15.333 -2.66699 33.833 -4.66699 55.5 -6s46.167 -2 73.5 -2
c58 0 109 8.5 153 25.5s80.5 40.333 109.5 70s50.833 64.667 65.5 105s22 83.833 22 130.5zM711.999 373c0 -50.667 -8.83398 -98.8311 -26.501 -144.498s-43.667 -86 -78 -121s-77.333 -62.833 -129 -83.5s-111.5 -31 -179.5 -31c-35.333 0 -68.833 1.16699 -100.5 3.5
s-58.834 5.16602 -81.501 8.49902v343h-87v50h87v330c22.667 3.33301 49.334 6.16602 80.001 8.49902s63.334 3.5 98.001 3.5c68 0 128 -10.333 180 -31s95.5 -48 130.5 -82s61.5 -73 79.5 -117s27 -89.667 27 -137z" />
    <glyph glyph-name="Ntilde" unicode="&#xd1;" horiz-adv-x="727" 
d="M515 858c-31.333 -37.333 -62.665 -55.333 -93.998 -54c-10.667 0 -21.167 2.16699 -31.5 6.5s-20.5 9.5 -30.5 15.5c-9.33301 6 -18.5 11 -27.5 15s-17.167 6.33301 -24.5 7c-11.333 0 -22 -3.16699 -32 -9.5s-21 -16.833 -33 -31.5l-28 34
c31.333 37.333 62.666 55.333 93.999 54c10.667 0 21.167 -2.16699 31.5 -6.5s20.166 -9.5 29.499 -15.5c10 -6 19.5 -11 28.5 -15s17.167 -6.33301 24.5 -7c11.333 0 22 3.16699 32 9.5s21 16.833 33 31.5zM630.001 -11l-488 622v-611h-55v741l13 3l484 -615v604h56v-742z
" />
    <glyph glyph-name="Ograve" unicode="&#xd2;" horiz-adv-x="842" 
d="M443 795l-192 99l31 54l180 -123zM723 366c0 46 -7.5 89 -22.5 129s-35.833 74.667 -62.5 104s-58.5 52.333 -95.5 69s-77.5 25 -121.5 25s-84.5 -8.33301 -121.5 -25s-68.833 -39.667 -95.5 -69s-47.5 -64 -62.5 -104s-22.5 -83 -22.5 -129s7.5 -88.833 22.5 -128.5
s35.833 -74.167 62.5 -103.5s58.5 -52.333 95.5 -69s77.5 -25 121.5 -25s84.5 8.33301 121.5 25s68.833 39.667 95.5 69s47.5 63.833 62.5 103.5s22.5 82.5 22.5 128.5zM784 366c0 -54 -9.5 -104 -28.5 -150s-45 -85.833 -78 -119.5s-71.667 -59.834 -116 -78.501
s-91.833 -28 -142.5 -28c-50 0 -97 9.33301 -141 28s-82.333 44.834 -115 78.501s-58.334 73.5 -77.001 119.5s-28 96 -28 150s9.5 104.167 28.5 150.5s45 86.333 78 120s71.667 60 116 79s91.833 28.5 142.5 28.5c50 0 97 -9.5 141 -28.5s82.333 -45.333 115 -79
s58.334 -73.667 77.001 -120s28 -96.5 28 -150.5z" />
    <glyph glyph-name="Oacute" unicode="&#xd3;" horiz-adv-x="842" 
d="M723 366c0 46 -7.5 89 -22.5 129s-35.833 74.667 -62.5 104s-58.5 52.333 -95.5 69s-77.5 25 -121.5 25s-84.5 -8.33301 -121.5 -25s-68.833 -39.667 -95.5 -69s-47.5 -64 -62.5 -104s-22.5 -83 -22.5 -129s7.5 -88.833 22.5 -128.5s35.833 -74.167 62.5 -103.5
s58.5 -52.333 95.5 -69s77.5 -25 121.5 -25s84.5 8.33301 121.5 25s68.833 39.667 95.5 69s47.5 63.833 62.5 103.5s22.5 82.5 22.5 128.5zM784 366c0 -54 -9.5 -104 -28.5 -150s-45 -85.833 -78 -119.5s-71.667 -59.834 -116 -78.501s-91.833 -28 -142.5 -28
c-50 0 -97 9.33301 -141 28s-82.333 44.834 -115 78.501s-58.334 73.5 -77.001 119.5s-28 96 -28 150s9.5 104.167 28.5 150.5s45 86.333 78 120s71.667 60 116 79s91.833 28.5 142.5 28.5c50 0 97 -9.5 141 -28.5s82.333 -45.333 115 -79s58.334 -73.667 77.001 -120
s28 -96.5 28 -150.5zM394 795l-18 31l181 123l29 -55z" />
    <glyph glyph-name="Ocircumflex" unicode="&#xd4;" horiz-adv-x="842" 
d="M723 366c0 46 -7.5 89 -22.5 129s-35.833 74.667 -62.5 104s-58.5 52.333 -95.5 69s-77.5 25 -121.5 25s-84.5 -8.33301 -121.5 -25s-68.833 -39.667 -95.5 -69s-47.5 -64 -62.5 -104s-22.5 -83 -22.5 -129s7.5 -88.833 22.5 -128.5s35.833 -74.167 62.5 -103.5
s58.5 -52.333 95.5 -69s77.5 -25 121.5 -25s84.5 8.33301 121.5 25s68.833 39.667 95.5 69s47.5 63.833 62.5 103.5s22.5 82.5 22.5 128.5zM784 366c0 -54 -9.5 -104 -28.5 -150s-45 -85.833 -78 -119.5s-71.667 -59.834 -116 -78.501s-91.833 -28 -142.5 -28
c-50 0 -97 9.33301 -141 28s-82.333 44.834 -115 78.501s-58.334 73.5 -77.001 119.5s-28 96 -28 150s9.5 104.167 28.5 150.5s45 86.333 78 120s71.667 60 116 79s91.833 28.5 142.5 28.5c50 0 97 -9.5 141 -28.5s82.333 -45.333 115 -79s58.334 -73.667 77.001 -120
s28 -96.5 28 -150.5zM497 807l-79 98l-75 -98h-58l121 149h30l120 -149h-59z" />
    <glyph glyph-name="Otilde" unicode="&#xd5;" horiz-adv-x="842" 
d="M573 871c-31.333 -37.333 -62.665 -55.333 -93.998 -54c-10.667 0 -21.167 2.16699 -31.5 6.5s-20.5 9.5 -30.5 15.5c-9.33301 6 -18.5 11 -27.5 15s-17.167 6.33301 -24.5 7c-11.333 0 -22 -3.16699 -32 -9.5s-21 -16.833 -33 -31.5l-28 34
c31.333 37.333 62.666 55.333 93.999 54c10.667 0 21.167 -2.16699 31.5 -6.5s20.166 -9.5 29.499 -15.5c10 -6 19.5 -11 28.5 -15s17.167 -6.33301 24.5 -7c11.333 0 22 3.16699 32 9.5s21 16.833 33 31.5zM723.001 366c0 46 -7.5 89 -22.5 129s-35.833 74.667 -62.5 104
s-58.5 52.333 -95.5 69s-77.5 25 -121.5 25s-84.5 -8.33301 -121.5 -25s-68.833 -39.667 -95.5 -69s-47.5 -64 -62.5 -104s-22.5 -83 -22.5 -129s7.5 -88.833 22.5 -128.5s35.833 -74.167 62.5 -103.5s58.5 -52.333 95.5 -69s77.5 -25 121.5 -25s84.5 8.33301 121.5 25
s68.833 39.667 95.5 69s47.5 63.833 62.5 103.5s22.5 82.5 22.5 128.5zM784.001 366c0 -54 -9.5 -104 -28.5 -150s-45 -85.833 -78 -119.5s-71.667 -59.834 -116 -78.501s-91.833 -28 -142.5 -28c-50 0 -97 9.33301 -141 28s-82.333 44.834 -115 78.501
s-58.334 73.5 -77.001 119.5s-28 96 -28 150s9.5 104.167 28.5 150.5s45 86.333 78 120s71.667 60 116 79s91.833 28.5 142.5 28.5c50 0 97 -9.5 141 -28.5s82.333 -45.333 115 -79s58.334 -73.667 77.001 -120s28 -96.5 28 -150.5z" />
    <glyph glyph-name="Odieresis" unicode="&#xd6;" horiz-adv-x="842" 
d="M723 366c0 46 -7.5 89 -22.5 129s-35.833 74.667 -62.5 104s-58.5 52.333 -95.5 69s-77.5 25 -121.5 25s-84.5 -8.33301 -121.5 -25s-68.833 -39.667 -95.5 -69s-47.5 -64 -62.5 -104s-22.5 -83 -22.5 -129s7.5 -88.833 22.5 -128.5s35.833 -74.167 62.5 -103.5
s58.5 -52.333 95.5 -69s77.5 -25 121.5 -25s84.5 8.33301 121.5 25s68.833 39.667 95.5 69s47.5 63.833 62.5 103.5s22.5 82.5 22.5 128.5zM784 366c0 -54 -9.5 -104 -28.5 -150s-45 -85.833 -78 -119.5s-71.667 -59.834 -116 -78.501s-91.833 -28 -142.5 -28
c-50 0 -97 9.33301 -141 28s-82.333 44.834 -115 78.501s-58.334 73.5 -77.001 119.5s-28 96 -28 150s9.5 104.167 28.5 150.5s45 86.333 78 120s71.667 60 116 79s91.833 28.5 142.5 28.5c50 0 97 -9.5 141 -28.5s82.333 -45.333 115 -79s58.334 -73.667 77.001 -120
s28 -96.5 28 -150.5zM377 863c0 -11.333 -4.16699 -21.166 -12.5 -29.499s-18.166 -12.5 -29.499 -12.5s-21.166 4.16699 -29.499 12.5s-12.5 18.166 -12.5 29.499s4.16699 21.333 12.5 30s18.166 13 29.499 13s21.166 -4.33301 29.499 -13s12.5 -18.667 12.5 -30zM548 863
c0 -11.333 -4.16699 -21.166 -12.5 -29.499s-18.166 -12.5 -29.499 -12.5c-12 0 -22.167 4.16699 -30.5 12.5s-12.5 18.166 -12.5 29.499s4.16699 21.333 12.5 30s18.5 13 30.5 13c11.333 0 21.166 -4.33301 29.499 -13s12.5 -18.667 12.5 -30z" />
    <glyph glyph-name="multiply" unicode="&#xd7;" horiz-adv-x="450" 
d="M104 436l121 -121l121 121l34 -35l-121 -121l121 -120l-34 -35l-121 121l-121 -121l-34 35l120 120l-120 121z" />
    <glyph glyph-name="Oslash" unicode="&#xd8;" horiz-adv-x="842" 
d="M723 366c0 40.667 -5.83301 78.833 -17.5 114.5s-28.167 67.5 -49.5 95.5l-18.5 -19.5l-49.5 -51.5l-70.5 -73l-80.5 -83.5l-80.5 -83.5l-70.5 -73l-50 -52l-19 -20c26.667 -25.333 57.167 -45 91.5 -59s71.833 -21 112.5 -21c44 0 84.5 8.33301 121.5 25
s68.833 39.667 95.5 69s47.5 63.833 62.5 103.5s22.5 82.5 22.5 128.5zM625 611.999c-26.667 25.333 -57.167 45.167 -91.5 59.5s-71.833 21.5 -112.5 21.5c-44 0 -84.5 -8.33301 -121.5 -25s-68.833 -39.667 -95.5 -69s-47.5 -64 -62.5 -104s-22.5 -83 -22.5 -129
c0 -40.667 5.83301 -78.667 17.5 -114s28.167 -67 49.5 -95zM784 366c0 -54 -9.50098 -103.998 -28.501 -149.998s-45 -85.833 -78 -119.5s-71.667 -59.834 -116 -78.501s-91.833 -28 -142.5 -28c-46 0 -89.5 8 -130.5 24s-77.5 38.333 -109.5 67
c-4 -4.66699 -10.667 -11.667 -20 -21l-28 -29l-35 -37l-34 35l42 43l29 30.5c8.66699 9 13 13.167 13 12.5c-28 33.333 -49.667 71.166 -65 113.499s-23 88.166 -23 137.499c0 54 9.5 104.167 28.5 150.5s45 86.333 78 120s71.667 60 116 79s91.833 28.5 142.5 28.5
c46.667 0 90.334 -8.16699 131.001 -24.5s77 -39.166 109 -68.499l84 88l34 -34l-36 -38l-28 -29l-21 -21c28 -32.667 49.667 -70.167 65 -112.5s23 -88.5 23 -138.5z" />
    <glyph glyph-name="Ugrave" unicode="&#xd9;" horiz-adv-x="708" 
d="M377 782l-192 99l31 54l180 -123zM628 266c0 -42.667 -6.49902 -81.165 -19.499 -115.498s-31.5 -63.333 -55.5 -87s-53 -41.834 -87 -54.501s-71.667 -19 -113 -19c-85.333 0 -152 23.667 -200 71s-72 115.666 -72 204.999v467h56v-466c0 -74.667 19.667 -131 59 -169
s91.666 -57 156.999 -57c32.667 0 62.5 4.83301 89.5 14.5s50 24 69 43s33.667 42.667 44 71s15.5 60.833 15.5 97.5v466h57v-467z" />
    <glyph glyph-name="Uacute" unicode="&#xda;" horiz-adv-x="708" 
d="M328 782l-18 31l181 123l29 -55zM628 266c0 -42.667 -6.49902 -81.165 -19.499 -115.498s-31.5 -63.333 -55.5 -87s-53 -41.834 -87 -54.501s-71.667 -19 -113 -19c-85.333 0 -152 23.667 -200 71s-72 115.666 -72 204.999v467h56v-466c0 -74.667 19.667 -131 59 -169
s91.666 -57 156.999 -57c32.667 0 62.5 4.83301 89.5 14.5s50 24 69 43s33.667 42.667 44 71s15.5 60.833 15.5 97.5v466h57v-467z" />
    <glyph glyph-name="Ucircumflex" unicode="&#xdb;" horiz-adv-x="708" 
d="M431 794l-79 98l-75 -98h-58l121 149h30l120 -149h-59zM628 266c0 -42.667 -6.49902 -81.165 -19.499 -115.498s-31.5 -63.333 -55.5 -87s-53 -41.834 -87 -54.501s-71.667 -19 -113 -19c-85.333 0 -152 23.667 -200 71s-72 115.666 -72 204.999v467h56v-466
c0 -74.667 19.667 -131 59 -169s91.666 -57 156.999 -57c32.667 0 62.5 4.83301 89.5 14.5s50 24 69 43s33.667 42.667 44 71s15.5 60.833 15.5 97.5v466h57v-467z" />
    <glyph glyph-name="Udieresis" unicode="&#xdc;" horiz-adv-x="708" 
d="M311 850c0 -11.333 -4.16699 -21.166 -12.5 -29.499s-18.166 -12.5 -29.499 -12.5s-21.166 4.16699 -29.499 12.5s-12.5 18.166 -12.5 29.499s4.16699 21.333 12.5 30s18.166 13 29.499 13s21.166 -4.33301 29.499 -13s12.5 -18.667 12.5 -30zM482 850
c0 -11.333 -4.16699 -21.166 -12.5 -29.499s-18.166 -12.5 -29.499 -12.5c-12 0 -22.167 4.16699 -30.5 12.5s-12.5 18.166 -12.5 29.499s4.16699 21.333 12.5 30s18.5 13 30.5 13c11.333 0 21.166 -4.33301 29.499 -13s12.5 -18.667 12.5 -30zM628 266
c0 -42.667 -6.49902 -81.165 -19.499 -115.498s-31.5 -63.333 -55.5 -87s-53 -41.834 -87 -54.501s-71.667 -19 -113 -19c-85.333 0 -152 23.667 -200 71s-72 115.666 -72 204.999v467h56v-466c0 -74.667 19.667 -131 59 -169s91.666 -57 156.999 -57
c32.667 0 62.5 4.83301 89.5 14.5s50 24 69 43s33.667 42.667 44 71s15.5 60.833 15.5 97.5v466h57v-467z" />
    <glyph glyph-name="Yacute" unicode="&#xdd;" horiz-adv-x="626" 
d="M286 782l-18 31l181 123l29 -55zM341 329v-329h-56v330l-256 403h63l223 -356l220 356h62z" />
    <glyph glyph-name="Thorn" unicode="&#xde;" horiz-adv-x="555" 
d="M460 373c0 24.667 -4.66797 48.168 -14.001 70.501s-23 42 -41 59s-40.5 30.667 -67.5 41s-58.167 15.5 -93.5 15.5c-17.333 0 -34.666 -0.666992 -51.999 -2s-33.666 -3 -48.999 -5v-370l44.5 -4.5c16.333 -1.66699 32.166 -2.5 47.499 -2.5c36.667 0 69 5 97 15
s51.5 23.667 70.5 41s33.333 38.166 43 62.499s14.5 50.833 14.5 79.5zM519.999 376.001c0 -36.667 -6.5 -70.335 -19.5 -101.002s-31.833 -57.167 -56.5 -79.5s-54.667 -39.666 -90 -51.999s-75.666 -18.5 -120.999 -18.5c-13.333 0 -28.5 0.666992 -45.5 2
s-31.833 2.66602 -44.5 3.99902v-131h-56v733h56v-127c15.333 1.33301 30.833 2.33301 46.5 3s31.834 1 48.501 1c47.333 0 88.666 -6.33301 123.999 -19s64.666 -29.667 87.999 -51s40.833 -46.166 52.5 -74.499s17.5 -58.166 17.5 -89.499z" />
    <glyph glyph-name="germandbls" unicode="&#xdf;" horiz-adv-x="468" 
d="M284 220c50 -2.66699 88.167 -17.667 114.5 -45s39.5 -61 39.5 -101c0 -26.667 -5 -50.5 -15 -71.5s-23.667 -38.667 -41 -53s-37.833 -25.166 -61.5 -32.499s-49.167 -11 -76.5 -11c-24 0 -46.333 2.33301 -67 7l7 48c20 -4 39.667 -6 59 -6
c44 0 78.5 10.167 103.5 30.5s37.5 49.166 37.5 86.499c0 31.333 -11.333 56.833 -34 76.5s-56 29.5 -100 29.5c-14 0 -28.667 -1 -44 -3l-5 12l144 182h-223v-369h-55v555c0 62 12.833 108.333 38.5 139s62.5 46 110.5 46c11.333 0 22.333 -0.666992 33 -2s21 -4 31 -8
l-10 -48c-7.33301 2.66699 -15.5 4.66699 -24.5 6s-17.167 2 -24.5 2c-34 0 -59 -9.83301 -75 -29.5s-24 -52.5 -24 -98.5v-144h308l4 -10z" />
    <glyph glyph-name="agrave" unicode="&#xe0;" horiz-adv-x="433" 
d="M243 475l-192 99l31 54l180 -123zM321 175c-20.667 11.333 -40 20.001 -58 26.001s-38.667 9 -62 9c-32 0 -58.333 -7.33301 -79 -22s-31 -36.334 -31 -65.001c0 -28 10.167 -49.167 30.5 -63.5s47.5 -21.5 81.5 -21.5c25.333 0 48 5.16699 68 15.5s36.667 23.5 50 39.5
v82zM324 0.000976562v45.0029c-15.333 -15.333 -34.5 -28 -57.5 -38s-47.833 -15 -74.5 -15c-21.333 0 -41.333 2.83301 -60 8.5s-35 14.167 -49 25.5s-25 25.166 -33 41.499s-12 34.833 -12 55.5c0 20 4 38 12 54s19 29.667 33 41s30.5 20.166 49.5 26.499
s39.5 9.5 61.5 9.5c27.333 0 50.833 -3.16699 70.5 -9.5s38.5 -13.833 56.5 -22.5v38c0 40 -9.16699 69.5 -27.5 88.5s-49.5 28.5 -93.5 28.5c-17.333 0 -35.833 -2 -55.5 -6s-37.5 -9.66699 -53.5 -17l-11 48c19.333 7.33301 40.333 13.166 63 17.499s43.667 6.5 63 6.5
c58.667 0 101.667 -13.833 129 -41.5s41 -69.167 41 -124.5v-260h-52z" />
    <glyph glyph-name="aacute" unicode="&#xe1;" horiz-adv-x="433" 
d="M193 475l-18 31l181 123l29 -55zM321 175c-20.667 11.333 -40 20.001 -58 26.001s-38.667 9 -62 9c-32 0 -58.333 -7.33301 -79 -22s-31 -36.334 -31 -65.001c0 -28 10.167 -49.167 30.5 -63.5s47.5 -21.5 81.5 -21.5c25.333 0 48 5.16699 68 15.5s36.667 23.5 50 39.5
v82zM324 0.000976562v45.0029c-15.333 -15.333 -34.5 -28 -57.5 -38s-47.833 -15 -74.5 -15c-21.333 0 -41.333 2.83301 -60 8.5s-35 14.167 -49 25.5s-25 25.166 -33 41.499s-12 34.833 -12 55.5c0 20 4 38 12 54s19 29.667 33 41s30.5 20.166 49.5 26.499
s39.5 9.5 61.5 9.5c27.333 0 50.833 -3.16699 70.5 -9.5s38.5 -13.833 56.5 -22.5v38c0 40 -9.16699 69.5 -27.5 88.5s-49.5 28.5 -93.5 28.5c-17.333 0 -35.833 -2 -55.5 -6s-37.5 -9.66699 -53.5 -17l-11 48c19.333 7.33301 40.333 13.166 63 17.499s43.667 6.5 63 6.5
c58.667 0 101.667 -13.833 129 -41.5s41 -69.167 41 -124.5v-260h-52z" />
    <glyph glyph-name="acircumflex" unicode="&#xe2;" horiz-adv-x="433" 
d="M296 487l-79 98l-75 -98h-58l121 149h30l120 -149h-59zM321 175c-20.667 11.333 -40 20.001 -58 26.001s-38.667 9 -62 9c-32 0 -58.333 -7.33301 -79 -22s-31 -36.334 -31 -65.001c0 -28 10.167 -49.167 30.5 -63.5s47.5 -21.5 81.5 -21.5c25.333 0 48 5.16699 68 15.5
s36.667 23.5 50 39.5v82zM324 0.000976562v45.0029c-15.333 -15.333 -34.5 -28 -57.5 -38s-47.833 -15 -74.5 -15c-21.333 0 -41.333 2.83301 -60 8.5s-35 14.167 -49 25.5s-25 25.166 -33 41.499s-12 34.833 -12 55.5c0 20 4 38 12 54s19 29.667 33 41
s30.5 20.166 49.5 26.499s39.5 9.5 61.5 9.5c27.333 0 50.833 -3.16699 70.5 -9.5s38.5 -13.833 56.5 -22.5v38c0 40 -9.16699 69.5 -27.5 88.5s-49.5 28.5 -93.5 28.5c-17.333 0 -35.833 -2 -55.5 -6s-37.5 -9.66699 -53.5 -17l-11 48
c19.333 7.33301 40.333 13.166 63 17.499s43.667 6.5 63 6.5c58.667 0 101.667 -13.833 129 -41.5s41 -69.167 41 -124.5v-260h-52z" />
    <glyph glyph-name="atilde" unicode="&#xe3;" horiz-adv-x="433" 
d="M372 551c-31.333 -37.333 -62.665 -55.333 -93.998 -54c-10.667 0 -21.167 2.16699 -31.5 6.5s-20.5 9.5 -30.5 15.5c-9.33301 6 -18.5 11 -27.5 15s-17.167 6.33301 -24.5 7c-11.333 0 -22 -3.16699 -32 -9.5s-21 -16.833 -33 -31.5l-28 34
c31.333 37.333 62.666 55.333 93.999 54c10.667 0 21.167 -2.16699 31.5 -6.5s20.166 -9.5 29.499 -15.5c10 -6 19.5 -11 28.5 -15s17.167 -6.33301 24.5 -7c11.333 0 22 3.16699 32 9.5s21 16.833 33 31.5zM321.001 175c-20.667 11.333 -40 20.001 -58 26.001
s-38.667 9 -62 9c-32 0 -58.333 -7.33301 -79 -22s-31 -36.334 -31 -65.001c0 -28 10.167 -49.167 30.5 -63.5s47.5 -21.5 81.5 -21.5c25.333 0 48 5.16699 68 15.5s36.667 23.5 50 39.5v82zM324.001 0.000976562v45.0029c-15.333 -15.333 -34.5 -28 -57.5 -38
s-47.833 -15 -74.5 -15c-21.333 0 -41.333 2.83301 -60 8.5s-35 14.167 -49 25.5s-25 25.166 -33 41.499s-12 34.833 -12 55.5c0 20 4 38 12 54s19 29.667 33 41s30.5 20.166 49.5 26.499s39.5 9.5 61.5 9.5c27.333 0 50.833 -3.16699 70.5 -9.5s38.5 -13.833 56.5 -22.5v38
c0 40 -9.16699 69.5 -27.5 88.5s-49.5 28.5 -93.5 28.5c-17.333 0 -35.833 -2 -55.5 -6s-37.5 -9.66699 -53.5 -17l-11 48c19.333 7.33301 40.333 13.166 63 17.499s43.667 6.5 63 6.5c58.667 0 101.667 -13.833 129 -41.5s41 -69.167 41 -124.5v-260h-52z" />
    <glyph glyph-name="adieresis" unicode="&#xe4;" horiz-adv-x="433" 
d="M177 543c0 -11.333 -4.16699 -21.166 -12.5 -29.499s-18.166 -12.5 -29.499 -12.5s-21.166 4.16699 -29.499 12.5s-12.5 18.166 -12.5 29.499s4.16699 21.333 12.5 30s18.166 13 29.499 13s21.166 -4.33301 29.499 -13s12.5 -18.667 12.5 -30zM348 543
c0 -11.333 -4.16699 -21.166 -12.5 -29.499s-18.166 -12.5 -29.499 -12.5c-12 0 -22.167 4.16699 -30.5 12.5s-12.5 18.166 -12.5 29.499s4.16699 21.333 12.5 30s18.5 13 30.5 13c11.333 0 21.166 -4.33301 29.499 -13s12.5 -18.667 12.5 -30zM321 175
c-20.667 11.333 -40 20.001 -58 26.001s-38.667 9 -62 9c-32 0 -58.333 -7.33301 -79 -22s-31 -36.334 -31 -65.001c0 -28 10.167 -49.167 30.5 -63.5s47.5 -21.5 81.5 -21.5c25.333 0 48 5.16699 68 15.5s36.667 23.5 50 39.5v82zM324 0.000976562v45.0029
c-15.333 -15.333 -34.5 -28 -57.5 -38s-47.833 -15 -74.5 -15c-21.333 0 -41.333 2.83301 -60 8.5s-35 14.167 -49 25.5s-25 25.166 -33 41.499s-12 34.833 -12 55.5c0 20 4 38 12 54s19 29.667 33 41s30.5 20.166 49.5 26.499s39.5 9.5 61.5 9.5
c27.333 0 50.833 -3.16699 70.5 -9.5s38.5 -13.833 56.5 -22.5v38c0 40 -9.16699 69.5 -27.5 88.5s-49.5 28.5 -93.5 28.5c-17.333 0 -35.833 -2 -55.5 -6s-37.5 -9.66699 -53.5 -17l-11 48c19.333 7.33301 40.333 13.166 63 17.499s43.667 6.5 63 6.5
c58.667 0 101.667 -13.833 129 -41.5s41 -69.167 41 -124.5v-260h-52z" />
    <glyph glyph-name="aring" unicode="&#xe5;" horiz-adv-x="433" 
d="M282 586c0 19.333 -5.83301 35.166 -17.5 47.499s-26.5 18.5 -44.5 18.5c-17.333 0 -31.833 -6.16699 -43.5 -18.5s-17.5 -28.166 -17.5 -47.499s5.83301 -35.166 17.5 -47.499s26.167 -18.5 43.5 -18.5c18 0 32.833 6.16699 44.5 18.5s17.5 28.166 17.5 47.499zM321 175
c-20.667 11.333 -40 20.001 -58 26.001s-38.667 9 -62 9c-32 0 -58.333 -7.33301 -79 -22s-31 -36.334 -31 -65.001c0 -28 10.167 -49.167 30.5 -63.5s47.5 -21.5 81.5 -21.5c25.333 0 48 5.16699 68 15.5s36.667 23.5 50 39.5v82zM323 586.001
c0 -28 -9.33301 -51.832 -28 -71.499s-43.667 -29.5 -75 -29.5c-30.667 0 -55.5 9.83301 -74.5 29.5s-28.5 43.5 -28.5 71.5c0 14 2.5 27 7.5 39s12 22.667 21 32s19.833 16.666 32.5 21.999s26.667 8 42 8c31.333 0 56.333 -9.83301 75 -29.5s28 -43.5 28 -71.5z
M324 0.00195312v45.0029c-15.333 -15.333 -34.5 -28 -57.5 -38s-47.833 -15 -74.5 -15c-21.333 0 -41.333 2.83301 -60 8.5s-35 14.167 -49 25.5s-25 25.166 -33 41.499s-12 34.833 -12 55.5c0 20 4 38 12 54s19 29.667 33 41s30.5 20.166 49.5 26.499s39.5 9.5 61.5 9.5
c27.333 0 50.833 -3.16699 70.5 -9.5s38.5 -13.833 56.5 -22.5v38c0 40 -9.16699 69.5 -27.5 88.5s-49.5 28.5 -93.5 28.5c-17.333 0 -35.833 -2 -55.5 -6s-37.5 -9.66699 -53.5 -17l-11 48c19.333 7.33301 40.333 13.166 63 17.499s43.667 6.5 63 6.5
c58.667 0 101.667 -13.833 129 -41.5s41 -69.167 41 -124.5v-260h-52z" />
    <glyph glyph-name="ae" unicode="&#xe6;" horiz-adv-x="738" 
d="M325 168c-16.667 12.667 -35.668 22.835 -57.001 30.502s-43.666 11.5 -66.999 11.5c-32 0 -58.333 -7.33301 -79 -22s-31 -36.334 -31 -65.001c0 -28 9.33301 -49.167 28 -63.5s43.667 -21.5 75 -21.5c14 0 28.167 2.33301 42.5 7s27.5 12.167 39.5 22.5
s22.5 23.666 31.5 39.999s14.833 36.5 17.5 60.5zM646.999 241.001c-1.33301 19.333 -4.83203 37.333 -10.499 54s-14 31.167 -25 43.5s-24.5 22 -40.5 29s-34.667 10.5 -56 10.5c-40 0 -71.833 -12.5 -95.5 -37.5s-37.834 -58.167 -42.501 -99.5h270zM321 260.001
c0 40 -9.16113 69.5049 -27.4941 88.5049s-49.5 28.5 -93.5 28.5c-17.333 0 -35.833 -2 -55.5 -6s-37.5 -9.66699 -53.5 -17l-11 48c19.333 7.33301 40.5 13.166 63.5 17.499s44.167 6.5 63.5 6.5c42.667 0 76.167 -7.5 100.5 -22.5s41.166 -37.5 50.499 -67.5
c16 27.333 37.667 49.166 65 65.499s59.333 24.5 96 24.5c29.333 0 55.166 -5 77.499 -15s41.166 -24 56.499 -42s26.833 -39.167 34.5 -63.5s11.5 -50.833 11.5 -79.5v-14c0 -4.66699 -0.333008 -9.66699 -1 -15h-323c1.33301 -22 5.5 -42.5 12.5 -61.5
s17.5 -35.5 31.5 -49.5s31.5 -25 52.5 -33s45.833 -12 74.5 -12c19.333 0 39.166 2.33301 59.499 7s39.833 10.667 58.5 18l6 -24c1.33301 -3.33301 2.16602 -6.33301 2.49902 -9s0.833008 -5 1.5 -7c0.666992 -2.66699 1.33398 -5 2.00098 -7
c-21.333 -8 -43.666 -14.5 -66.999 -19.5s-45.333 -7.5 -66 -7.5c-48.667 0 -88.834 9.5 -120.501 28.5s-55.167 44.167 -70.5 75.5c-16 -34 -39.167 -59.833 -69.5 -77.5s-63.5 -26.5 -99.5 -26.5c-19.333 0 -37.833 3 -55.5 9s-33.167 14.5 -46.5 25.5
s-23.833 24.667 -31.5 41s-11.5 34.833 -11.5 55.5c0 19.333 4 37.166 12 53.499s19 30.166 33 41.499s30.5 20.166 49.5 26.499s39.167 9.5 60.5 9.5c27.333 0 51.166 -3.16699 71.499 -9.5s39.166 -13.833 56.499 -22.5v38z" />
    <glyph glyph-name="ccedilla" unicode="&#xe7;" horiz-adv-x="424" 
d="M342 -150c0 -23.333 -8.50098 -43.6729 -25.501 -61.0059s-42.5 -26 -76.5 -26c-17.333 0 -34.5 2.83301 -51.5 8.5s-35.167 13.834 -54.5 24.501l18 36c17.333 -9.33301 33 -16.5 47 -21.5s27.667 -7.5 41 -7.5c18 0 31.667 4.16699 41 12.5s14 19.166 14 32.499
c0 15.333 -7.5 28.833 -22.5 40.5s-41.167 19.167 -78.5 22.5l-3 6l21 80c-25.333 5.33301 -48.5 14.333 -69.5 27s-39 28.167 -54 46.5s-26.5 39.166 -34.5 62.499s-12 48 -12 74c0 30 5.33301 58.333 16 85s25.834 49.834 45.501 69.501s42.834 35.334 69.501 47.001
s56 17.5 88 17.5c26 0 50.833 -4 74.5 -12s45.167 -18 64.5 -30l-25 -43c-16.667 10.667 -34.834 19.334 -54.501 26.001s-40.5 10 -62.5 10c-23.333 0 -45 -4 -65 -12s-37.167 -19.5 -51.5 -34.5s-25.5 -32.667 -33.5 -53s-12 -43.166 -12 -68.499
c0 -24.667 4.33301 -47.167 13 -67.5s20.334 -38 35.001 -53s32 -26.667 52 -35s41.333 -12.5 64 -12.5s43.667 3.33301 63 10s37.666 15.334 54.999 26.001l22 -43c-19.333 -12 -40.833 -22 -64.5 -30s-48.5 -12 -74.5 -12h-11l-12 -47
c36.667 -7.33301 63.167 -19.666 79.5 -36.999s24.5 -36.666 24.5 -57.999z" />
    <glyph glyph-name="egrave" unicode="&#xe8;" horiz-adv-x="461" 
d="M263 475l-192 99l31 54l180 -123zM369 241c-1.33301 19.333 -4.83203 37.333 -10.499 54s-14 31.167 -25 43.5s-24.5 22 -40.5 29s-34.667 10.5 -56 10.5c-40 0 -71.833 -12.5 -95.5 -37.5s-37.834 -58.167 -42.501 -99.5h270zM422.001 224l0.000976562 -12.998
c0 -4 -0.666992 -8.66699 -2 -14h-323c1.33301 -22 5.5 -42.5 12.5 -61.5s17.5 -35.5 31.5 -49.5s31.5 -25 52.5 -33s45.833 -12 74.5 -12c19.333 0 39.166 2.33301 59.499 7s40.166 10.667 59.499 18l6 -24c1.33301 -3.33301 2.16602 -6.33301 2.49902 -9
s0.833008 -5 1.5 -7c0.666992 -2.66699 1 -5 1 -7c-21.333 -8 -43.666 -14.5 -66.999 -19.5s-45.333 -7.5 -66 -7.5c-36.667 0 -69 5.5 -97 16.5s-51.333 26.333 -70 46s-32.667 42.667 -42 69s-14 54.5 -14 84.5c0 29.333 4.5 57.166 13.5 83.499s22.167 49.5 39.5 69.5
s38.333 35.833 63 47.5s52.334 17.5 83.001 17.5c29.333 0 55.333 -5.16699 78 -15.5s41.667 -24.5 57 -42.5s26.833 -39.333 34.5 -64s11.5 -51.334 11.5 -80.001z" />
    <glyph glyph-name="eacute" unicode="&#xe9;" horiz-adv-x="461" 
d="M369 241c-1.33301 19.333 -4.83203 37.333 -10.499 54s-14 31.167 -25 43.5s-24.5 22 -40.5 29s-34.667 10.5 -56 10.5c-40 0 -71.833 -12.5 -95.5 -37.5s-37.834 -58.167 -42.501 -99.5h270zM422.001 224l0.000976562 -12.998c0 -4 -0.666992 -8.66699 -2 -14h-323
c1.33301 -22 5.5 -42.5 12.5 -61.5s17.5 -35.5 31.5 -49.5s31.5 -25 52.5 -33s45.833 -12 74.5 -12c19.333 0 39.166 2.33301 59.499 7s40.166 10.667 59.499 18l6 -24c1.33301 -3.33301 2.16602 -6.33301 2.49902 -9s0.833008 -5 1.5 -7c0.666992 -2.66699 1 -5 1 -7
c-21.333 -8 -43.666 -14.5 -66.999 -19.5s-45.333 -7.5 -66 -7.5c-36.667 0 -69 5.5 -97 16.5s-51.333 26.333 -70 46s-32.667 42.667 -42 69s-14 54.5 -14 84.5c0 29.333 4.5 57.166 13.5 83.499s22.167 49.5 39.5 69.5s38.333 35.833 63 47.5s52.334 17.5 83.001 17.5
c29.333 0 55.333 -5.16699 78 -15.5s41.667 -24.5 57 -42.5s26.833 -39.333 34.5 -64s11.5 -51.334 11.5 -80.001zM213.002 475.002l-18 31l181 123l29 -55z" />
    <glyph glyph-name="ecircumflex" unicode="&#xea;" horiz-adv-x="461" 
d="M369 241c-1.33301 19.333 -4.83203 37.333 -10.499 54s-14 31.167 -25 43.5s-24.5 22 -40.5 29s-34.667 10.5 -56 10.5c-40 0 -71.833 -12.5 -95.5 -37.5s-37.834 -58.167 -42.501 -99.5h270zM422.001 224l0.000976562 -12.998c0 -4 -0.666992 -8.66699 -2 -14h-323
c1.33301 -22 5.5 -42.5 12.5 -61.5s17.5 -35.5 31.5 -49.5s31.5 -25 52.5 -33s45.833 -12 74.5 -12c19.333 0 39.166 2.33301 59.499 7s40.166 10.667 59.499 18l6 -24c1.33301 -3.33301 2.16602 -6.33301 2.49902 -9s0.833008 -5 1.5 -7c0.666992 -2.66699 1 -5 1 -7
c-21.333 -8 -43.666 -14.5 -66.999 -19.5s-45.333 -7.5 -66 -7.5c-36.667 0 -69 5.5 -97 16.5s-51.333 26.333 -70 46s-32.667 42.667 -42 69s-14 54.5 -14 84.5c0 29.333 4.5 57.166 13.5 83.499s22.167 49.5 39.5 69.5s38.333 35.833 63 47.5s52.334 17.5 83.001 17.5
c29.333 0 55.333 -5.16699 78 -15.5s41.667 -24.5 57 -42.5s26.833 -39.333 34.5 -64s11.5 -51.334 11.5 -80.001zM316.002 487.002l-79 98l-75 -98h-58l121 149h30l120 -149h-59z" />
    <glyph glyph-name="edieresis" unicode="&#xeb;" horiz-adv-x="461" 
d="M369 241c-1.33301 19.333 -4.83203 37.333 -10.499 54s-14 31.167 -25 43.5s-24.5 22 -40.5 29s-34.667 10.5 -56 10.5c-40 0 -71.833 -12.5 -95.5 -37.5s-37.834 -58.167 -42.501 -99.5h270zM422.001 224l0.000976562 -12.998c0 -4 -0.666992 -8.66699 -2 -14h-323
c1.33301 -22 5.5 -42.5 12.5 -61.5s17.5 -35.5 31.5 -49.5s31.5 -25 52.5 -33s45.833 -12 74.5 -12c19.333 0 39.166 2.33301 59.499 7s40.166 10.667 59.499 18l6 -24c1.33301 -3.33301 2.16602 -6.33301 2.49902 -9s0.833008 -5 1.5 -7c0.666992 -2.66699 1 -5 1 -7
c-21.333 -8 -43.666 -14.5 -66.999 -19.5s-45.333 -7.5 -66 -7.5c-36.667 0 -69 5.5 -97 16.5s-51.333 26.333 -70 46s-32.667 42.667 -42 69s-14 54.5 -14 84.5c0 29.333 4.5 57.166 13.5 83.499s22.167 49.5 39.5 69.5s38.333 35.833 63 47.5s52.334 17.5 83.001 17.5
c29.333 0 55.333 -5.16699 78 -15.5s41.667 -24.5 57 -42.5s26.833 -39.333 34.5 -64s11.5 -51.334 11.5 -80.001zM196.002 543.002c0 -11.333 -4.16699 -21.166 -12.5 -29.499s-18.166 -12.5 -29.499 -12.5s-21.166 4.16699 -29.499 12.5s-12.5 18.166 -12.5 29.499
s4.16699 21.333 12.5 30s18.166 13 29.499 13s21.166 -4.33301 29.499 -13s12.5 -18.667 12.5 -30zM367.002 543.002c0 -11.333 -4.16699 -21.166 -12.5 -29.499s-18.166 -12.5 -29.499 -12.5c-12 0 -22.167 4.16699 -30.5 12.5s-12.5 18.166 -12.5 29.499
s4.16699 21.333 12.5 30s18.5 13 30.5 13c11.333 0 21.166 -4.33301 29.499 -13s12.5 -18.667 12.5 -30z" />
    <glyph glyph-name="igrave" unicode="&#xec;" horiz-adv-x="191" 
d="M119 475l-192 99l31 54l180 -123zM68 0v418h56v-418h-56z" />
    <glyph glyph-name="iacute" unicode="&#xed;" horiz-adv-x="191" 
d="M68 0v418h56v-418h-56zM69 475l-18 31l181 123l29 -55z" />
    <glyph glyph-name="icircumflex" unicode="&#xee;" horiz-adv-x="191" 
d="M68 0v418h56v-418h-56zM172 487l-79 98l-75 -98h-58l121 149h30l120 -149h-59z" />
    <glyph glyph-name="idieresis" unicode="&#xef;" horiz-adv-x="191" 
d="M68 0v418h56v-418h-56zM53 543c0 -11.333 -4.16699 -21.166 -12.5 -29.499s-18.166 -12.5 -29.499 -12.5s-21.166 4.16699 -29.499 12.5s-12.5 18.166 -12.5 29.499s4.16699 21.333 12.5 30s18.166 13 29.499 13s21.166 -4.33301 29.499 -13s12.5 -18.667 12.5 -30z
M224 543c0 -11.333 -4.16699 -21.166 -12.5 -29.499s-18.166 -12.5 -29.499 -12.5c-12 0 -22.167 4.16699 -30.5 12.5s-12.5 18.166 -12.5 29.499s4.16699 21.333 12.5 30s18.5 13 30.5 13c11.333 0 21.166 -4.33301 29.499 -13s12.5 -18.667 12.5 -30z" />
    <glyph glyph-name="eth" unicode="&#xf0;" horiz-adv-x="499" 
d="M402 211c0 24 -3.49902 46.332 -10.499 66.999s-17.333 38.5 -31 53.5s-30.167 26.667 -49.5 35s-41.333 12.5 -66 12.5c-22 0 -42.167 -4.16699 -60.5 -12.5s-33.833 -20 -46.5 -35s-22.5 -32.5 -29.5 -52.5s-10.5 -42 -10.5 -66c0 -22.667 3.5 -44.5 10.5 -65.5
s17 -39.5 30 -55.5s28.833 -28.833 47.5 -38.5s39.667 -14.5 63 -14.5s44.333 4.5 63 13.5s34.667 21.333 48 37s23.666 33.834 30.999 54.501s11 43 11 67zM114.001 549.999l81.999 73.002c-17.333 13.333 -35.666 25.833 -54.999 37.5s-39.666 22.5 -60.999 32.5l22 43
c23.333 -11.333 46 -23.5 68 -36.5s43.333 -27.167 64 -42.5l70 62l30 -35l-64 -56c27.333 -24 52.5 -50.333 75.5 -79s42.667 -59.834 59 -93.501s29.166 -69.834 38.499 -108.501s14 -79.667 14 -123c0 -34.667 -5.16699 -66.167 -15.5 -94.5
s-24.666 -52.666 -42.999 -72.999s-40.333 -36.166 -66 -47.499s-53.834 -17 -84.501 -17c-32.667 0 -61.667 6 -87 18s-46.833 28.167 -64.5 48.5s-31 44 -40 71s-13.5 55.833 -13.5 86.5c0 29.333 4.83301 56.666 14.5 81.999s23 47.666 40 66.999s37.333 34.5 61 45.5
s49.5 16.5 77.5 16.5c33.333 0 62.5 -6.5 87.5 -19.5s46.167 -30.833 63.5 -53.5c-10.667 43.333 -29.167 85.5 -55.5 126.5s-59.5 78.833 -99.5 113.5l-89 -78z" />
    <glyph glyph-name="ntilde" unicode="&#xf1;" 
d="M390 551c-31.333 -37.333 -62.665 -55.333 -93.998 -54c-10.667 0 -21.167 2.16699 -31.5 6.5s-20.5 9.5 -30.5 15.5c-9.33301 6 -18.5 11 -27.5 15s-17.167 6.33301 -24.5 7c-11.333 0 -22 -3.16699 -32 -9.5s-21 -16.833 -33 -31.5l-28 34
c31.333 37.333 62.666 55.333 93.999 54c10.667 0 21.167 -2.16699 31.5 -6.5s20.166 -9.5 29.499 -15.5c10 -6 19.5 -11 28.5 -15s17.167 -6.33301 24.5 -7c11.333 0 22 3.16699 32 9.5s21 16.833 33 31.5zM359.001 0l-0.00292969 269c0 35.333 -7.5 62.333 -22.5 81
s-39.5 28 -73.5 28c-26.667 0 -52.667 -8 -78 -24s-47.666 -34.667 -66.999 -56v-298h-55v418h53v-72c20.667 22 44.834 40.833 72.501 56.5s56.834 23.5 87.501 23.5c48 0 83.167 -13.667 105.5 -41s33.5 -62 33.5 -104v-281h-56z" />
    <glyph glyph-name="ograve" unicode="&#xf2;" horiz-adv-x="500" 
d="M273 475l-192 99l31 54l180 -123zM402 209c0 24.667 -3.66699 47.501 -11 68.501s-17.666 39 -30.999 54s-29.333 26.667 -48 35s-39.334 12.5 -62.001 12.5s-43.334 -4.33301 -62.001 -13s-34.667 -20.5 -48 -35.5s-23.666 -32.833 -30.999 -53.5
s-11 -43.334 -11 -68.001s3.66699 -47.334 11 -68.001s17.666 -38.5 30.999 -53.5s29.333 -26.833 48 -35.5s39.334 -13 62.001 -13s43.334 4.33301 62.001 13s34.667 20.5 48 35.5s23.666 32.833 30.999 53.5s11 43.334 11 68.001zM458 210.001
c0 -30 -5.16992 -58.333 -15.5029 -85s-24.666 -49.834 -42.999 -69.501s-40.166 -35.167 -65.499 -46.5s-53.333 -17 -84 -17s-58.667 5.66699 -84 17s-47.166 26.666 -65.499 45.999s-32.5 42.333 -42.5 69s-15 55 -15 85s5 58.167 15 84.5s24.167 49.333 42.5 69
s40.333 35.167 66 46.5s53.834 17 84.501 17s58.667 -5.66699 84 -17s47.166 -26.666 65.499 -45.999s32.5 -42.166 42.5 -68.499s15 -54.5 15 -84.5z" />
    <glyph glyph-name="oacute" unicode="&#xf3;" horiz-adv-x="500" 
d="M402 209c0 24.667 -3.66699 47.501 -11 68.501s-17.666 39 -30.999 54s-29.333 26.667 -48 35s-39.334 12.5 -62.001 12.5s-43.334 -4.33301 -62.001 -13s-34.667 -20.5 -48 -35.5s-23.666 -32.833 -30.999 -53.5s-11 -43.334 -11 -68.001s3.66699 -47.334 11 -68.001
s17.666 -38.5 30.999 -53.5s29.333 -26.833 48 -35.5s39.334 -13 62.001 -13s43.334 4.33301 62.001 13s34.667 20.5 48 35.5s23.666 32.833 30.999 53.5s11 43.334 11 68.001zM458 210.001c0 -30 -5.16992 -58.333 -15.5029 -85s-24.666 -49.834 -42.999 -69.501
s-40.166 -35.167 -65.499 -46.5s-53.333 -17 -84 -17s-58.667 5.66699 -84 17s-47.166 26.666 -65.499 45.999s-32.5 42.333 -42.5 69s-15 55 -15 85s5 58.167 15 84.5s24.167 49.333 42.5 69s40.333 35.167 66 46.5s53.834 17 84.501 17s58.667 -5.66699 84 -17
s47.166 -26.666 65.499 -45.999s32.5 -42.166 42.5 -68.499s15 -54.5 15 -84.5zM222.997 475.001l-18 31l181 123l29 -55z" />
    <glyph glyph-name="ocircumflex" unicode="&#xf4;" horiz-adv-x="500" 
d="M402 209c0 24.667 -3.66699 47.501 -11 68.501s-17.666 39 -30.999 54s-29.333 26.667 -48 35s-39.334 12.5 -62.001 12.5s-43.334 -4.33301 -62.001 -13s-34.667 -20.5 -48 -35.5s-23.666 -32.833 -30.999 -53.5s-11 -43.334 -11 -68.001s3.66699 -47.334 11 -68.001
s17.666 -38.5 30.999 -53.5s29.333 -26.833 48 -35.5s39.334 -13 62.001 -13s43.334 4.33301 62.001 13s34.667 20.5 48 35.5s23.666 32.833 30.999 53.5s11 43.334 11 68.001zM458 210.001c0 -30 -5.16992 -58.333 -15.5029 -85s-24.666 -49.834 -42.999 -69.501
s-40.166 -35.167 -65.499 -46.5s-53.333 -17 -84 -17s-58.667 5.66699 -84 17s-47.166 26.666 -65.499 45.999s-32.5 42.333 -42.5 69s-15 55 -15 85s5 58.167 15 84.5s24.167 49.333 42.5 69s40.333 35.167 66 46.5s53.834 17 84.501 17s58.667 -5.66699 84 -17
s47.166 -26.666 65.499 -45.999s32.5 -42.166 42.5 -68.499s15 -54.5 15 -84.5zM325.997 487.001l-79 98l-75 -98h-58l121 149h30l120 -149h-59z" />
    <glyph glyph-name="otilde" unicode="&#xf5;" horiz-adv-x="500" 
d="M402 551c-31.333 -37.333 -62.665 -55.333 -93.998 -54c-10.667 0 -21.167 2.16699 -31.5 6.5s-20.5 9.5 -30.5 15.5c-9.33301 6 -18.5 11 -27.5 15s-17.167 6.33301 -24.5 7c-11.333 0 -22 -3.16699 -32 -9.5s-21 -16.833 -33 -31.5l-28 34
c31.333 37.333 62.666 55.333 93.999 54c10.667 0 21.167 -2.16699 31.5 -6.5s20.166 -9.5 29.499 -15.5c10 -6 19.5 -11 28.5 -15s17.167 -6.33301 24.5 -7c11.333 0 22 3.16699 32 9.5s21 16.833 33 31.5zM402.001 209c0 24.667 -3.66699 47.501 -11 68.501
s-17.666 39 -30.999 54s-29.333 26.667 -48 35s-39.334 12.5 -62.001 12.5s-43.334 -4.33301 -62.001 -13s-34.667 -20.5 -48 -35.5s-23.666 -32.833 -30.999 -53.5s-11 -43.334 -11 -68.001s3.66699 -47.334 11 -68.001s17.666 -38.5 30.999 -53.5s29.333 -26.833 48 -35.5
s39.334 -13 62.001 -13s43.334 4.33301 62.001 13s34.667 20.5 48 35.5s23.666 32.833 30.999 53.5s11 43.334 11 68.001zM458.001 210.001c0 -30 -5.16992 -58.333 -15.5029 -85s-24.666 -49.834 -42.999 -69.501s-40.166 -35.167 -65.499 -46.5s-53.333 -17 -84 -17
s-58.667 5.66699 -84 17s-47.166 26.666 -65.499 45.999s-32.5 42.333 -42.5 69s-15 55 -15 85s5 58.167 15 84.5s24.167 49.333 42.5 69s40.333 35.167 66 46.5s53.834 17 84.501 17s58.667 -5.66699 84 -17s47.166 -26.666 65.499 -45.999s32.5 -42.166 42.5 -68.499
s15 -54.5 15 -84.5z" />
    <glyph glyph-name="odieresis" unicode="&#xf6;" horiz-adv-x="500" 
d="M402 209c0 24.667 -3.66699 47.501 -11 68.501s-17.666 39 -30.999 54s-29.333 26.667 -48 35s-39.334 12.5 -62.001 12.5s-43.334 -4.33301 -62.001 -13s-34.667 -20.5 -48 -35.5s-23.666 -32.833 -30.999 -53.5s-11 -43.334 -11 -68.001s3.66699 -47.334 11 -68.001
s17.666 -38.5 30.999 -53.5s29.333 -26.833 48 -35.5s39.334 -13 62.001 -13s43.334 4.33301 62.001 13s34.667 20.5 48 35.5s23.666 32.833 30.999 53.5s11 43.334 11 68.001zM458 210.001c0 -30 -5.16992 -58.333 -15.5029 -85s-24.666 -49.834 -42.999 -69.501
s-40.166 -35.167 -65.499 -46.5s-53.333 -17 -84 -17s-58.667 5.66699 -84 17s-47.166 26.666 -65.499 45.999s-32.5 42.333 -42.5 69s-15 55 -15 85s5 58.167 15 84.5s24.167 49.333 42.5 69s40.333 35.167 66 46.5s53.834 17 84.501 17s58.667 -5.66699 84 -17
s47.166 -26.666 65.499 -45.999s32.5 -42.166 42.5 -68.499s15 -54.5 15 -84.5zM205.997 543.001c0 -11.333 -4.16699 -21.166 -12.5 -29.499s-18.166 -12.5 -29.499 -12.5s-21.166 4.16699 -29.499 12.5s-12.5 18.166 -12.5 29.499s4.16699 21.333 12.5 30
s18.166 13 29.499 13s21.166 -4.33301 29.499 -13s12.5 -18.667 12.5 -30zM376.997 543.001c0 -11.333 -4.16699 -21.166 -12.5 -29.499s-18.166 -12.5 -29.499 -12.5c-12 0 -22.167 4.16699 -30.5 12.5s-12.5 18.166 -12.5 29.499s4.16699 21.333 12.5 30s18.5 13 30.5 13
c11.333 0 21.166 -4.33301 29.499 -13s12.5 -18.667 12.5 -30z" />
    <glyph glyph-name="divide" unicode="&#xf7;" horiz-adv-x="460" 
d="M190 135c0 11.333 3.83301 21 11.5 29s17.167 12 28.5 12s20.833 -4 28.5 -12s11.5 -17.667 11.5 -29c0 -10.667 -3.83301 -20 -11.5 -28s-17.167 -12 -28.5 -12s-20.833 4 -28.5 12s-11.5 17.333 -11.5 28zM190 424c0 11.333 3.83301 21 11.5 29s17.167 12 28.5 12
s20.833 -4 28.5 -12s11.5 -17.667 11.5 -29c0 -10.667 -3.83301 -20 -11.5 -28s-17.167 -12 -28.5 -12s-20.833 4 -28.5 12s-11.5 17.333 -11.5 28zM60 305h340v-49h-340v49z" />
    <glyph glyph-name="oslash" unicode="&#xf8;" horiz-adv-x="500" 
d="M146 80c27.333 -27.333 62.001 -41 104.001 -41c23.333 0 44.333 4.16699 63 12.5s34.667 20 48 35s23.666 33 30.999 54s11 43.833 11 68.5c0 36 -7.66699 67.667 -23 95zM356.001 337c-26.667 28 -62 42 -106 42c-22.667 0 -43.5 -4.16699 -62.5 -12.5s-35 -20 -48 -35
s-23.167 -32.833 -30.5 -53.5s-11 -43.667 -11 -69c0 -36 7.66699 -68.333 23 -97zM418.001 341c26.667 -36.667 39.9971 -80.3311 39.9971 -130.998c0 -30.667 -5.16699 -59.167 -15.5 -85.5s-24.666 -49.333 -42.999 -69s-40.166 -35.167 -65.499 -46.5
s-53.333 -17 -84 -17c-28 0 -53.833 4.66699 -77.5 14s-44.5 22.666 -62.5 39.999l-56 -54l-29 29l58 55c-26.667 38 -40 82.333 -40 133c0 30 5 58.333 15 85s24.167 49.667 42.5 69s40.333 34.666 66 45.999s53.834 17 84.501 17c28 0 54 -4.83301 78 -14.5
s45 -23.167 63 -40.5l14 13.5l18 17.5l22 21l28 -29z" />
    <glyph glyph-name="ugrave" unicode="&#xf9;" 
d="M258 475l-192 99l31 54l180 -123zM358 0l0.00195312 69c-9.33301 -10 -20 -19.5 -32 -28.5s-24.833 -17.167 -38.5 -24.5s-27.834 -13.166 -42.501 -17.499s-29.667 -6.5 -45 -6.5c-48.667 0 -84.334 13.667 -107.001 41s-34 62 -34 104v281h56v-269
c0 -35.333 7.66699 -62.333 23 -81s40 -28 74 -28c26.667 0 52.5 7.66699 77.5 23s47.167 33.666 66.5 54.999v300h55v-418h-53z" />
    <glyph glyph-name="uacute" unicode="&#xfa;" 
d="M358 0l0.00195312 69c-9.33301 -10 -20 -19.5 -32 -28.5s-24.833 -17.167 -38.5 -24.5s-27.834 -13.166 -42.501 -17.499s-29.667 -6.5 -45 -6.5c-48.667 0 -84.334 13.667 -107.001 41s-34 62 -34 104v281h56v-269c0 -35.333 7.66699 -62.333 23 -81s40 -28 74 -28
c26.667 0 52.5 7.66699 77.5 23s47.167 33.666 66.5 54.999v300h55v-418h-53zM208.002 475l-18 31l181 123l29 -55z" />
    <glyph glyph-name="ucircumflex" unicode="&#xfb;" 
d="M358 0l0.00195312 69c-9.33301 -10 -20 -19.5 -32 -28.5s-24.833 -17.167 -38.5 -24.5s-27.834 -13.166 -42.501 -17.499s-29.667 -6.5 -45 -6.5c-48.667 0 -84.334 13.667 -107.001 41s-34 62 -34 104v281h56v-269c0 -35.333 7.66699 -62.333 23 -81s40 -28 74 -28
c26.667 0 52.5 7.66699 77.5 23s47.167 33.666 66.5 54.999v300h55v-418h-53zM311.002 487l-79 98l-75 -98h-58l121 149h30l120 -149h-59z" />
    <glyph glyph-name="udieresis" unicode="&#xfc;" 
d="M358 0l0.00195312 69c-9.33301 -10 -20 -19.5 -32 -28.5s-24.833 -17.167 -38.5 -24.5s-27.834 -13.166 -42.501 -17.499s-29.667 -6.5 -45 -6.5c-48.667 0 -84.334 13.667 -107.001 41s-34 62 -34 104v281h56v-269c0 -35.333 7.66699 -62.333 23 -81s40 -28 74 -28
c26.667 0 52.5 7.66699 77.5 23s47.167 33.666 66.5 54.999v300h55v-418h-53zM191.002 543c0 -11.333 -4.16699 -21.166 -12.5 -29.499s-18.166 -12.5 -29.499 -12.5s-21.166 4.16699 -29.499 12.5s-12.5 18.166 -12.5 29.499s4.16699 21.333 12.5 30s18.166 13 29.499 13
s21.166 -4.33301 29.499 -13s12.5 -18.667 12.5 -30zM362.002 543c0 -11.333 -4.16699 -21.166 -12.5 -29.499s-18.166 -12.5 -29.499 -12.5c-12 0 -22.167 4.16699 -30.5 12.5s-12.5 18.166 -12.5 29.499s4.16699 21.333 12.5 30s18.5 13 30.5 13
c11.333 0 21.166 -4.33301 29.499 -13s12.5 -18.667 12.5 -30z" />
    <glyph glyph-name="yacute" unicode="&#xfd;" horiz-adv-x="427" 
d="M186 475l-18 31l181 123l29 -55zM125 -216h-56l118 244l-179 390h61l145 -334l146 334h60z" />
    <glyph glyph-name="thorn" unicode="&#xfe;" horiz-adv-x="506" 
d="M408 209c0 24 -3.66602 46.334 -10.999 67.001s-17.833 38.5 -31.5 53.5s-29.834 26.833 -48.501 35.5s-39.334 13 -62.001 13c-29.333 0 -55.5 -5.83301 -78.5 -17.5s-42.5 -26.834 -58.5 -45.501v-220c16.667 -16.667 36.5 -30.167 59.5 -40.5s48.5 -15.5 76.5 -15.5
c22 0 42.5 4 61.5 12s35.333 19.5 49 34.5s24.334 33 32.001 54s11.5 44.167 11.5 69.5zM463.001 210.001c0 -31.333 -5.16504 -60.335 -15.498 -87.002s-24.833 -49.667 -43.5 -69s-40.834 -34.5 -66.501 -45.5s-53.5 -16.5 -83.5 -16.5c-26 0 -50.5 4 -73.5 12
s-43.833 18.333 -62.5 31v-251h-55v949h53v-366c17.333 16.667 38.166 30.667 62.499 42s52.5 17 84.5 17c28 0 54.167 -5.33301 78.5 -16s45.5 -25.667 63.5 -45s32.167 -42.166 42.5 -68.499s15.5 -55.166 15.5 -86.499z" />
    <glyph glyph-name="ydieresis" unicode="&#xff;" horiz-adv-x="427" 
d="M170 543c0 -11.333 -4.16699 -21.166 -12.5 -29.499s-18.166 -12.5 -29.499 -12.5s-21.166 4.16699 -29.499 12.5s-12.5 18.166 -12.5 29.499s4.16699 21.333 12.5 30s18.166 13 29.499 13s21.166 -4.33301 29.499 -13s12.5 -18.667 12.5 -30zM341 543
c0 -11.333 -4.16699 -21.166 -12.5 -29.499s-18.166 -12.5 -29.499 -12.5c-12 0 -22.167 4.16699 -30.5 12.5s-12.5 18.166 -12.5 29.499s4.16699 21.333 12.5 30s18.5 13 30.5 13c11.333 0 21.166 -4.33301 29.499 -13s12.5 -18.667 12.5 -30zM125 -216h-56l118 244
l-179 390h61l145 -334l146 334h60z" />
    <glyph glyph-name="Amacron" unicode="&#x100;" horiz-adv-x="696" 
d="M205 832v48h287v-48h-287zM347 631l-151 -359h302zM614 0l-95 224h-344l-94 -224h-59l321 745h10l321 -745h-60z" />
    <glyph glyph-name="amacron" unicode="&#x101;" horiz-adv-x="433" 
d="M77 512v48h287v-48h-287zM321 175c-20.667 11.333 -40 20.001 -58 26.001s-38.667 9 -62 9c-32 0 -58.333 -7.33301 -79 -22s-31 -36.334 -31 -65.001c0 -28 10.167 -49.167 30.5 -63.5s47.5 -21.5 81.5 -21.5c25.333 0 48 5.16699 68 15.5s36.667 23.5 50 39.5v82z
M324 0.000976562v45.0029c-15.333 -15.333 -34.5 -28 -57.5 -38s-47.833 -15 -74.5 -15c-21.333 0 -41.333 2.83301 -60 8.5s-35 14.167 -49 25.5s-25 25.166 -33 41.499s-12 34.833 -12 55.5c0 20 4 38 12 54s19 29.667 33 41s30.5 20.166 49.5 26.499s39.5 9.5 61.5 9.5
c27.333 0 50.833 -3.16699 70.5 -9.5s38.5 -13.833 56.5 -22.5v38c0 40 -9.16699 69.5 -27.5 88.5s-49.5 28.5 -93.5 28.5c-17.333 0 -35.833 -2 -55.5 -6s-37.5 -9.66699 -53.5 -17l-11 48c19.333 7.33301 40.333 13.166 63 17.499s43.667 6.5 63 6.5
c58.667 0 101.667 -13.833 129 -41.5s41 -69.167 41 -124.5v-260h-52z" />
    <glyph glyph-name="Abreve" unicode="&#x102;" horiz-adv-x="696" 
d="M470 925c0 -16 -2.66602 -31 -7.99902 -45s-13.333 -26.5 -24 -37.5s-23.5 -19.667 -38.5 -26s-32.167 -9.5 -51.5 -9.5c-18.667 0 -35.5 3.16699 -50.5 9.5s-27.833 15 -38.5 26s-18.834 23.5 -24.501 37.5s-8.5 29 -8.5 45l51 5c0.666992 -24.667 7.16699 -44 19.5 -58
s29.5 -21 51.5 -21s39.167 7 51.5 21s18.833 33.333 19.5 58zM347.001 631l-151 -359h302zM614.001 0l-95 224h-344l-94 -224h-59l321 745h10l321 -745h-60z" />
    <glyph glyph-name="abreve" unicode="&#x103;" horiz-adv-x="433" 
d="M342 605c0 -16 -2.66602 -31 -7.99902 -45s-13.333 -26.5 -24 -37.5s-23.5 -19.667 -38.5 -26s-32.167 -9.5 -51.5 -9.5c-18.667 0 -35.5 3.16699 -50.5 9.5s-27.833 15 -38.5 26s-18.834 23.5 -24.501 37.5s-8.5 29 -8.5 45l51 5c0.666992 -24.667 7.16699 -44 19.5 -58
s29.5 -21 51.5 -21s39.167 7 51.5 21s18.833 33.333 19.5 58zM321.001 175c-20.667 11.333 -40 20.001 -58 26.001s-38.667 9 -62 9c-32 0 -58.333 -7.33301 -79 -22s-31 -36.334 -31 -65.001c0 -28 10.167 -49.167 30.5 -63.5s47.5 -21.5 81.5 -21.5
c25.333 0 48 5.16699 68 15.5s36.667 23.5 50 39.5v82zM324.001 0.000976562v45.0029c-15.333 -15.333 -34.5 -28 -57.5 -38s-47.833 -15 -74.5 -15c-21.333 0 -41.333 2.83301 -60 8.5s-35 14.167 -49 25.5s-25 25.166 -33 41.499s-12 34.833 -12 55.5c0 20 4 38 12 54
s19 29.667 33 41s30.5 20.166 49.5 26.499s39.5 9.5 61.5 9.5c27.333 0 50.833 -3.16699 70.5 -9.5s38.5 -13.833 56.5 -22.5v38c0 40 -9.16699 69.5 -27.5 88.5s-49.5 28.5 -93.5 28.5c-17.333 0 -35.833 -2 -55.5 -6s-37.5 -9.66699 -53.5 -17l-11 48
c19.333 7.33301 40.333 13.166 63 17.499s43.667 6.5 63 6.5c58.667 0 101.667 -13.833 129 -41.5s41 -69.167 41 -124.5v-260h-52z" />
    <glyph glyph-name="Aogonek" unicode="&#x104;" horiz-adv-x="696" 
d="M347 631l-151 -359h302zM694 -169c-11.333 -15.333 -23.834 -27.499 -37.501 -36.499s-30.167 -13.5 -49.5 -13.5c-23.333 -0.666992 -42.166 6 -56.499 20s-21.5 32.667 -21.5 56c0.666992 22.667 7.66699 45 21 67s34.333 48 63 78l-94 222h-344l-94 -224h-59l321 745
h10l321 -745h-17c-24.667 -26.667 -44.334 -51.334 -59.001 -74.001s-22 -43.667 -22 -63c0 -13.333 3.5 -23.833 10.5 -31.5s16.167 -11.5 27.5 -11.5s21.333 2.83301 30 8.5s17.334 14.167 26.001 25.5z" />
    <glyph glyph-name="aogonek" unicode="&#x105;" horiz-adv-x="433" 
d="M321 175c-20.667 11.333 -40 20.001 -58 26.001s-38.667 9 -62 9c-32 0 -58.333 -7.33301 -79 -22s-31 -36.334 -31 -65.001c0 -28 10.167 -49.167 30.5 -63.5s47.5 -21.5 81.5 -21.5c25.333 0 48 5.16699 68 15.5s36.667 23.5 50 39.5v82zM402 -168.999
c-11.333 -15.333 -23.835 -27.4961 -37.502 -36.4961s-30.167 -13.5 -49.5 -13.5c-23.333 -0.666992 -42.166 6 -56.499 20s-21.5 32.667 -21.5 56c0.666992 22.667 7.83398 45.167 21.501 67.5s35.5 48.833 65.5 79.5v41c-15.333 -15.333 -34.5 -28 -57.5 -38
s-47.833 -15 -74.5 -15c-21.333 0 -41.333 2.83301 -60 8.5s-35 14.167 -49 25.5s-25 25.166 -33 41.499s-12 34.833 -12 55.5c0 20 4 38 12 54s19 29.667 33 41s30.5 20.166 49.5 26.499s39.5 9.5 61.5 9.5c27.333 0 50.833 -3.16699 70.5 -9.5s38.5 -13.833 56.5 -22.5v38
c0 40 -9.16699 69.5 -27.5 88.5s-49.5 28.5 -93.5 28.5c-17.333 0 -35.833 -2 -55.5 -6s-37.5 -9.66699 -53.5 -17l-11 48c19.333 7.33301 40.333 13.166 63 17.499s43.667 6.5 63 6.5c58.667 0 101.667 -13.833 129 -41.5s41 -69.167 41 -124.5v-260h-11
c-24.667 -26.667 -44.334 -51.334 -59.001 -74.001s-22 -43.667 -22 -63c0 -13.333 3.5 -23.833 10.5 -31.5s16.167 -11.5 27.5 -11.5s21.333 2.83301 30 8.5s17.334 14.167 26.001 25.5z" />
    <glyph glyph-name="Cacute" unicode="&#x106;" horiz-adv-x="740" 
d="M695 70c-33.333 -22 -70.665 -40.832 -111.998 -56.499s-88.333 -23.5 -141 -23.5s-102.334 8.83301 -149.001 26.5s-87.5 42.667 -122.5 75s-62.5 71.666 -82.5 117.999s-30 98.166 -30 155.499s10.167 109.333 30.5 156s48 86.667 83 120s75.833 59 122.5 77
s96 27 148 27c53.333 0 100.833 -7.66699 142.5 -23s79.167 -34.333 112.5 -57l-25 -47c-34 22 -70.333 40 -109 54s-80 21 -124 21c-44.667 0 -86.5 -7.66699 -125.5 -23s-73 -37.333 -102 -66s-51.667 -63.167 -68 -103.5s-24.5 -85.166 -24.5 -134.499
s8.33301 -94 25 -134s39.667 -74 69 -102s63.666 -49.667 102.999 -65s81.333 -23 126 -23c44 0 85.333 7 124 21s75 31.667 109 53zM399.001 795.001l-18 31l181 123l29 -55z" />
    <glyph glyph-name="cacute" unicode="&#x107;" horiz-adv-x="424" 
d="M400 34c-19.333 -12 -40.832 -22.0049 -64.499 -30.0049s-48.5 -12 -74.5 -12c-32 0 -61.333 5.5 -88 16.5s-49.834 26.333 -69.501 46s-34.834 42.5 -45.501 68.5s-16 54 -16 84s5.33301 58.333 16 85s25.834 49.834 45.501 69.501s42.834 35.334 69.501 47.001
s56 17.5 88 17.5c26 0 50.833 -4 74.5 -12s45.167 -18 64.5 -30l-25 -43c-16.667 10.667 -34.834 19.334 -54.501 26.001s-40.5 10 -62.5 10c-23.333 0 -45 -4 -65 -12s-37.167 -19.5 -51.5 -34.5s-25.5 -32.667 -33.5 -53s-12 -43.166 -12 -68.499
c0 -24.667 4.33301 -47.167 13 -67.5s20.334 -38 35.001 -53s32 -26.667 52 -35s41.333 -12.5 64 -12.5s43.667 3.33301 63 10s37.666 15.334 54.999 26.001zM221.001 474.995l-18 31l181 123l29 -55z" />
    <glyph glyph-name="Cdotaccent" unicode="&#x10a;" horiz-adv-x="740" 
d="M383 863c0 11.333 4.16699 21.333 12.5 30s18.166 13 29.499 13c12 0 22.167 -4.33301 30.5 -13s12.5 -18.667 12.5 -30s-4.16699 -21.166 -12.5 -29.499s-18.5 -12.5 -30.5 -12.5c-11.333 0 -21.166 4.16699 -29.499 12.5s-12.5 18.166 -12.5 29.499zM695 70
c-33.333 -22 -70.665 -40.832 -111.998 -56.499s-88.333 -23.5 -141 -23.5s-102.334 8.83301 -149.001 26.5s-87.5 42.667 -122.5 75s-62.5 71.666 -82.5 117.999s-30 98.166 -30 155.499s10.167 109.333 30.5 156s48 86.667 83 120s75.833 59 122.5 77s96 27 148 27
c53.333 0 100.833 -7.66699 142.5 -23s79.167 -34.333 112.5 -57l-25 -47c-34 22 -70.333 40 -109 54s-80 21 -124 21c-44.667 0 -86.5 -7.66699 -125.5 -23s-73 -37.333 -102 -66s-51.667 -63.167 -68 -103.5s-24.5 -85.166 -24.5 -134.499s8.33301 -94 25 -134
s39.667 -74 69 -102s63.666 -49.667 102.999 -65s81.333 -23 126 -23c44 0 85.333 7 124 21s75 31.667 109 53z" />
    <glyph glyph-name="cdotaccent" unicode="&#x10b;" horiz-adv-x="424" 
d="M206 543c0 11.333 4.16699 21.333 12.5 30s18.166 13 29.499 13c12 0 22.167 -4.33301 30.5 -13s12.5 -18.667 12.5 -30s-4.16699 -21.166 -12.5 -29.499s-18.5 -12.5 -30.5 -12.5c-11.333 0 -21.166 4.16699 -29.499 12.5s-12.5 18.166 -12.5 29.499zM400 34
c-19.333 -12 -40.832 -22.0049 -64.499 -30.0049s-48.5 -12 -74.5 -12c-32 0 -61.333 5.5 -88 16.5s-49.834 26.333 -69.501 46s-34.834 42.5 -45.501 68.5s-16 54 -16 84s5.33301 58.333 16 85s25.834 49.834 45.501 69.501s42.834 35.334 69.501 47.001s56 17.5 88 17.5
c26 0 50.833 -4 74.5 -12s45.167 -18 64.5 -30l-25 -43c-16.667 10.667 -34.834 19.334 -54.501 26.001s-40.5 10 -62.5 10c-23.333 0 -45 -4 -65 -12s-37.167 -19.5 -51.5 -34.5s-25.5 -32.667 -33.5 -53s-12 -43.166 -12 -68.499c0 -24.667 4.33301 -47.167 13 -67.5
s20.334 -38 35.001 -53s32 -26.667 52 -35s41.333 -12.5 64 -12.5s43.667 3.33301 63 10s37.666 15.334 54.999 26.001z" />
    <glyph glyph-name="Ccaron" unicode="&#x10c;" horiz-adv-x="740" 
d="M695 70c-33.333 -22 -70.665 -40.832 -111.998 -56.499s-88.333 -23.5 -141 -23.5s-102.334 8.83301 -149.001 26.5s-87.5 42.667 -122.5 75s-62.5 71.666 -82.5 117.999s-30 98.166 -30 155.499s10.167 109.333 30.5 156s48 86.667 83 120s75.833 59 122.5 77
s96 27 148 27c53.333 0 100.833 -7.66699 142.5 -23s79.167 -34.333 112.5 -57l-25 -47c-34 22 -70.333 40 -109 54s-80 21 -124 21c-44.667 0 -86.5 -7.66699 -125.5 -23s-73 -37.333 -102 -66s-51.667 -63.167 -68 -103.5s-24.5 -85.166 -24.5 -134.499
s8.33301 -94 25 -134s39.667 -74 69 -102s63.666 -49.667 102.999 -65s81.333 -23 126 -23c44 0 85.333 7 124 21s75 31.667 109 53zM439.001 802.001h-29l-120 149h59l78 -98l76 98h58z" />
    <glyph glyph-name="ccaron" unicode="&#x10d;" horiz-adv-x="424" 
d="M400 34c-19.333 -12 -40.832 -22.0049 -64.499 -30.0049s-48.5 -12 -74.5 -12c-32 0 -61.333 5.5 -88 16.5s-49.834 26.333 -69.501 46s-34.834 42.5 -45.501 68.5s-16 54 -16 84s5.33301 58.333 16 85s25.834 49.834 45.501 69.501s42.834 35.334 69.501 47.001
s56 17.5 88 17.5c26 0 50.833 -4 74.5 -12s45.167 -18 64.5 -30l-25 -43c-16.667 10.667 -34.834 19.334 -54.501 26.001s-40.5 10 -62.5 10c-23.333 0 -45 -4 -65 -12s-37.167 -19.5 -51.5 -34.5s-25.5 -32.667 -33.5 -53s-12 -43.166 -12 -68.499
c0 -24.667 4.33301 -47.167 13 -67.5s20.334 -38 35.001 -53s32 -26.667 52 -35s41.333 -12.5 64 -12.5s43.667 3.33301 63 10s37.666 15.334 54.999 26.001zM262.001 481.995h-29l-120 149h59l78 -98l76 98h58z" />
    <glyph glyph-name="Dcaron" unicode="&#x10e;" horiz-adv-x="740" 
d="M367 802h-29l-120 149h59l78 -98l76 98h58zM622 373c0 44 -7.66504 85.167 -22.998 123.5s-38 72 -68 101s-67.167 51.833 -111.5 68.5s-95.5 25 -153.5 25c-23.333 0 -46 -0.666992 -68 -2s-40.333 -3.33301 -55 -6v-633c15.333 -2.66699 33.666 -4.66699 54.999 -6
s45.666 -2 72.999 -2c58 0 109 8.5 153 25.5s80.667 40.333 110 70s51.333 64.667 66 105s22 83.833 22 130.5zM682.002 373c0 -50.667 -8.83398 -98.8311 -26.501 -144.498s-43.667 -86 -78 -121s-77.333 -62.833 -129 -83.5s-111.5 -31 -179.5 -31
c-35.333 0 -68.833 1.16699 -100.5 3.5s-58.834 5.16602 -81.501 8.49902v723c22.667 3.33301 49.334 6.16602 80.001 8.49902s63.334 3.5 98.001 3.5c68 0 128 -10.333 180 -31s95.5 -48 130.5 -82s61.5 -73 79.5 -117s27 -89.667 27 -137z" />
    <glyph glyph-name="dcaron" unicode="&#x10f;" horiz-adv-x="506" 
d="M388 315c-15.333 18 -34.665 33 -57.998 45s-49.666 18 -78.999 18c-22 0 -42.333 -4.16699 -61 -12.5s-34.834 -20 -48.501 -35s-24.334 -32.833 -32.001 -53.5s-11.5 -43.667 -11.5 -69c0 -24 3.83301 -46.333 11.5 -67s18.167 -38.5 31.5 -53.5
s29.666 -26.667 48.999 -35s40.333 -12.5 63 -12.5c28.667 0 54.5 6 77.5 18s42.167 27.667 57.5 47v210zM390.001 0l-0.00195312 50.999c-17.333 -17.333 -38.166 -31.5 -62.499 -42.5s-51.5 -16.5 -81.5 -16.5c-29.333 0 -56.5 5.33301 -81.5 16s-46.5 25.5 -64.5 44.5
s-32 41.667 -42 68s-15 55.166 -15 86.499c0 30.667 5.33301 59.334 16 86.001s25.334 49.834 44.001 69.501s40.5 35.167 65.5 46.5s51.5 17 79.5 17c30 0 56.667 -4.83301 80 -14.5s43.333 -22.167 60 -37.5v359h55v-733h-53zM592.999 724.999
c0 -42 -8 -77.834 -24 -107.501s-38 -55.167 -66 -76.5l-25 21c19.333 20.667 34 44.834 44 72.501s15.667 60.5 17 98.5z" />
    <glyph glyph-name="Dcroat" unicode="&#x110;" horiz-adv-x="770" 
d="M652 373c0 44 -7.66797 85.167 -23.001 123.5s-38 72 -68 101s-67 51.833 -111 68.5s-95 25 -153 25c-23.333 0 -46.166 -0.666992 -68.499 -2s-40.833 -3.33301 -55.5 -6v-285h136v-50h-136v-298c15.333 -2.66699 33.833 -4.66699 55.5 -6s46.167 -2 73.5 -2
c58 0 109 8.5 153 25.5s80.5 40.333 109.5 70s50.833 64.667 65.5 105s22 83.833 22 130.5zM711.999 373c0 -50.667 -8.83398 -98.8311 -26.501 -144.498s-43.667 -86 -78 -121s-77.333 -62.833 -129 -83.5s-111.5 -31 -179.5 -31c-35.333 0 -68.833 1.16699 -100.5 3.5
s-58.834 5.16602 -81.501 8.49902v343h-87v50h87v330c22.667 3.33301 49.334 6.16602 80.001 8.49902s63.334 3.5 98.001 3.5c68 0 128 -10.333 180 -31s95.5 -48 130.5 -82s61.5 -73 79.5 -117s27 -89.667 27 -137z" />
    <glyph glyph-name="dcroat" unicode="&#x111;" horiz-adv-x="506" 
d="M388 315c-15.333 18 -34.665 33 -57.998 45s-49.666 18 -78.999 18c-22 0 -42.333 -4.16699 -61 -12.5s-34.834 -20 -48.501 -35s-24.334 -32.833 -32.001 -53.5s-11.5 -43.667 -11.5 -69c0 -24 3.83301 -46.333 11.5 -67s18.167 -38.5 31.5 -53.5
s29.666 -26.667 48.999 -35s40.333 -12.5 63 -12.5c28.667 0 54.5 6 77.5 18s42.167 27.667 57.5 47v210zM390.001 0l-0.00195312 50.999c-17.333 -17.333 -38.166 -31.5 -62.499 -42.5s-51.5 -16.5 -81.5 -16.5c-29.333 0 -56.5 5.33301 -81.5 16s-46.5 25.5 -64.5 44.5
s-32 41.667 -42 68s-15 55.166 -15 86.499c0 30.667 5.33301 59.334 16 86.001s25.334 49.834 44.001 69.501s40.5 35.167 65.5 46.5s51.5 17 79.5 17c30 0 56.667 -4.83301 80 -14.5s43.333 -22.167 60 -37.5v196h-146v48h146v115h55v-115h58v-48h-58v-570h-53z" />
    <glyph glyph-name="Emacron" unicode="&#x112;" horiz-adv-x="563" 
d="M152 832v48h287v-48h-287zM87 0v733h414v-50h-358v-286h323v-50h-323v-296h358v-51h-414z" />
    <glyph glyph-name="emacron" unicode="&#x113;" horiz-adv-x="461" 
d="M97 512v48h287v-48h-287zM369 241c-1.33301 19.333 -4.83203 37.333 -10.499 54s-14 31.167 -25 43.5s-24.5 22 -40.5 29s-34.667 10.5 -56 10.5c-40 0 -71.833 -12.5 -95.5 -37.5s-37.834 -58.167 -42.501 -99.5h270zM422.001 224l0.000976562 -12.998
c0 -4 -0.666992 -8.66699 -2 -14h-323c1.33301 -22 5.5 -42.5 12.5 -61.5s17.5 -35.5 31.5 -49.5s31.5 -25 52.5 -33s45.833 -12 74.5 -12c19.333 0 39.166 2.33301 59.499 7s40.166 10.667 59.499 18l6 -24c1.33301 -3.33301 2.16602 -6.33301 2.49902 -9
s0.833008 -5 1.5 -7c0.666992 -2.66699 1 -5 1 -7c-21.333 -8 -43.666 -14.5 -66.999 -19.5s-45.333 -7.5 -66 -7.5c-36.667 0 -69 5.5 -97 16.5s-51.333 26.333 -70 46s-32.667 42.667 -42 69s-14 54.5 -14 84.5c0 29.333 4.5 57.166 13.5 83.499s22.167 49.5 39.5 69.5
s38.333 35.833 63 47.5s52.334 17.5 83.001 17.5c29.333 0 55.333 -5.16699 78 -15.5s41.667 -24.5 57 -42.5s26.833 -39.333 34.5 -64s11.5 -51.334 11.5 -80.001z" />
    <glyph glyph-name="Ebreve" unicode="&#x114;" horiz-adv-x="563" 
d="M417 925c0 -16 -2.66602 -31 -7.99902 -45s-13.333 -26.5 -24 -37.5s-23.5 -19.667 -38.5 -26s-32.167 -9.5 -51.5 -9.5c-18.667 0 -35.5 3.16699 -50.5 9.5s-27.833 15 -38.5 26s-18.834 23.5 -24.501 37.5s-8.5 29 -8.5 45l51 5c0.666992 -24.667 7.16699 -44 19.5 -58
s29.5 -21 51.5 -21s39.167 7 51.5 21s18.833 33.333 19.5 58zM87.001 0v733h414v-50h-358v-286h323v-50h-323v-296h358v-51h-414z" />
    <glyph glyph-name="ebreve" unicode="&#x115;" horiz-adv-x="461" 
d="M362 605c0 -16 -2.66602 -31 -7.99902 -45s-13.333 -26.5 -24 -37.5s-23.5 -19.667 -38.5 -26s-32.167 -9.5 -51.5 -9.5c-18.667 0 -35.5 3.16699 -50.5 9.5s-27.833 15 -38.5 26s-18.834 23.5 -24.501 37.5s-8.5 29 -8.5 45l51 5c0.666992 -24.667 7.16699 -44 19.5 -58
s29.5 -21 51.5 -21s39.167 7 51.5 21s18.833 33.333 19.5 58zM369.001 241c-1.33301 19.333 -4.83203 37.333 -10.499 54s-14 31.167 -25 43.5s-24.5 22 -40.5 29s-34.667 10.5 -56 10.5c-40 0 -71.833 -12.5 -95.5 -37.5s-37.834 -58.167 -42.501 -99.5h270zM422.002 224
l0.000976562 -12.998c0 -4 -0.666992 -8.66699 -2 -14h-323c1.33301 -22 5.5 -42.5 12.5 -61.5s17.5 -35.5 31.5 -49.5s31.5 -25 52.5 -33s45.833 -12 74.5 -12c19.333 0 39.166 2.33301 59.499 7s40.166 10.667 59.499 18l6 -24
c1.33301 -3.33301 2.16602 -6.33301 2.49902 -9s0.833008 -5 1.5 -7c0.666992 -2.66699 1 -5 1 -7c-21.333 -8 -43.666 -14.5 -66.999 -19.5s-45.333 -7.5 -66 -7.5c-36.667 0 -69 5.5 -97 16.5s-51.333 26.333 -70 46s-32.667 42.667 -42 69s-14 54.5 -14 84.5
c0 29.333 4.5 57.166 13.5 83.499s22.167 49.5 39.5 69.5s38.333 35.833 63 47.5s52.334 17.5 83.001 17.5c29.333 0 55.333 -5.16699 78 -15.5s41.667 -24.5 57 -42.5s26.833 -39.333 34.5 -64s11.5 -51.334 11.5 -80.001z" />
    <glyph glyph-name="Edotaccent" unicode="&#x116;" horiz-adv-x="563" 
d="M252 863c0 11.333 4.16699 21.333 12.5 30s18.166 13 29.499 13c12 0 22.167 -4.33301 30.5 -13s12.5 -18.667 12.5 -30s-4.16699 -21.166 -12.5 -29.499s-18.5 -12.5 -30.5 -12.5c-11.333 0 -21.166 4.16699 -29.499 12.5s-12.5 18.166 -12.5 29.499zM87 0v733h414v-50
h-358v-286h323v-50h-323v-296h358v-51h-414z" />
    <glyph glyph-name="edotaccent" unicode="&#x117;" horiz-adv-x="461" 
d="M197 543c0 11.333 4.16699 21.333 12.5 30s18.166 13 29.499 13c12 0 22.167 -4.33301 30.5 -13s12.5 -18.667 12.5 -30s-4.16699 -21.166 -12.5 -29.499s-18.5 -12.5 -30.5 -12.5c-11.333 0 -21.166 4.16699 -29.499 12.5s-12.5 18.166 -12.5 29.499zM369 241
c-1.33301 19.333 -4.83203 37.333 -10.499 54s-14 31.167 -25 43.5s-24.5 22 -40.5 29s-34.667 10.5 -56 10.5c-40 0 -71.833 -12.5 -95.5 -37.5s-37.834 -58.167 -42.501 -99.5h270zM422.001 224l0.000976562 -12.998c0 -4 -0.666992 -8.66699 -2 -14h-323
c1.33301 -22 5.5 -42.5 12.5 -61.5s17.5 -35.5 31.5 -49.5s31.5 -25 52.5 -33s45.833 -12 74.5 -12c19.333 0 39.166 2.33301 59.499 7s40.166 10.667 59.499 18l6 -24c1.33301 -3.33301 2.16602 -6.33301 2.49902 -9s0.833008 -5 1.5 -7c0.666992 -2.66699 1 -5 1 -7
c-21.333 -8 -43.666 -14.5 -66.999 -19.5s-45.333 -7.5 -66 -7.5c-36.667 0 -69 5.5 -97 16.5s-51.333 26.333 -70 46s-32.667 42.667 -42 69s-14 54.5 -14 84.5c0 29.333 4.5 57.166 13.5 83.499s22.167 49.5 39.5 69.5s38.333 35.833 63 47.5s52.334 17.5 83.001 17.5
c29.333 0 55.333 -5.16699 78 -15.5s41.667 -24.5 57 -42.5s26.833 -39.333 34.5 -64s11.5 -51.334 11.5 -80.001z" />
    <glyph glyph-name="Eogonek" unicode="&#x118;" horiz-adv-x="563" 
d="M468 0c-24.667 -26.667 -44.335 -51.333 -59.002 -74s-22 -43.667 -22 -63c0 -13.333 3.5 -23.833 10.5 -31.5s16.167 -11.5 27.5 -11.5s21.333 2.83301 30 8.5s17.334 14.167 26.001 25.5l24 -23c-11.333 -15.333 -23.833 -27.5 -37.5 -36.5s-30.167 -13.5 -49.5 -13.5
c-23.333 -0.666992 -42.166 6 -56.499 20s-21.5 32.667 -21.5 56c0.666992 22 7.5 43.833 20.5 65.5s33.5 47.5 61.5 77.5h-335v733h414v-50h-358v-286h323v-50h-323v-296h358v-51h-33z" />
    <glyph glyph-name="eogonek" unicode="&#x119;" horiz-adv-x="461" 
d="M369 241c-1.33301 19.333 -4.83203 37.333 -10.499 54s-14 31.167 -25 43.5s-24.5 22 -40.5 29s-34.667 10.5 -56 10.5c-40 0 -71.833 -12.5 -95.5 -37.5s-37.834 -58.167 -42.501 -99.5h270zM422.001 224l-0.000976562 -12.9971c0 -4 -0.666992 -8.66699 -2 -14h-323
c1.33301 -22 5.5 -42.5 12.5 -61.5s17.5 -35.5 31.5 -49.5s31.5 -25 52.5 -33s45.833 -12 74.5 -12c19.333 0 39.166 2.33301 59.499 7s40.166 10.667 59.499 18l11 -46c-30 -26 -55 -52.833 -75 -80.5s-30 -52.834 -30 -75.501c0 -14 3.5 -24.833 10.5 -32.5
s16.167 -11.5 27.5 -11.5s21.333 2.83301 30 8.5s17.334 14.167 26.001 25.5l24 -23c-11.333 -15.333 -23.833 -27.5 -37.5 -36.5s-30.167 -13.5 -49.5 -13.5c-23.333 -0.666992 -42.166 6 -56.499 20s-21.5 32.667 -21.5 56c0 22 6.66699 44.5 20 67.5s34 47.833 62 74.5
c-11.333 -2 -22.333 -3.66699 -33 -5s-20.667 -2 -30 -2c-36.667 0 -69 5.5 -97 16.5s-51.333 26.333 -70 46s-32.667 42.667 -42 69s-14 54.5 -14 84.5c0 29.333 4.5 57.166 13.5 83.499s22.167 49.5 39.5 69.5s38.333 35.833 63 47.5s52.334 17.5 83.001 17.5
c29.333 0 55.333 -5.16699 78 -15.5s41.667 -24.5 57 -42.5s26.833 -39.333 34.5 -64s11.5 -51.334 11.5 -80.001z" />
    <glyph glyph-name="Ecaron" unicode="&#x11a;" horiz-adv-x="563" 
d="M87 0v733h414v-50h-358v-286h323v-50h-323v-296h358v-51h-414zM308 802h-29l-120 149h59l78 -98l76 98h58z" />
    <glyph glyph-name="ecaron" unicode="&#x11b;" horiz-adv-x="461" 
d="M369 241c-1.33301 19.333 -4.83203 37.333 -10.499 54s-14 31.167 -25 43.5s-24.5 22 -40.5 29s-34.667 10.5 -56 10.5c-40 0 -71.833 -12.5 -95.5 -37.5s-37.834 -58.167 -42.501 -99.5h270zM422.001 224l0.000976562 -12.998c0 -4 -0.666992 -8.66699 -2 -14h-323
c1.33301 -22 5.5 -42.5 12.5 -61.5s17.5 -35.5 31.5 -49.5s31.5 -25 52.5 -33s45.833 -12 74.5 -12c19.333 0 39.166 2.33301 59.499 7s40.166 10.667 59.499 18l6 -24c1.33301 -3.33301 2.16602 -6.33301 2.49902 -9s0.833008 -5 1.5 -7c0.666992 -2.66699 1 -5 1 -7
c-21.333 -8 -43.666 -14.5 -66.999 -19.5s-45.333 -7.5 -66 -7.5c-36.667 0 -69 5.5 -97 16.5s-51.333 26.333 -70 46s-32.667 42.667 -42 69s-14 54.5 -14 84.5c0 29.333 4.5 57.166 13.5 83.499s22.167 49.5 39.5 69.5s38.333 35.833 63 47.5s52.334 17.5 83.001 17.5
c29.333 0 55.333 -5.16699 78 -15.5s41.667 -24.5 57 -42.5s26.833 -39.333 34.5 -64s11.5 -51.334 11.5 -80.001zM253.002 482.002h-29l-120 149h59l78 -98l76 98h58z" />
    <glyph glyph-name="Gbreve" unicode="&#x11e;" horiz-adv-x="779" 
d="M549 925c0 -16 -2.66602 -31 -7.99902 -45s-13.333 -26.5 -24 -37.5s-23.5 -19.667 -38.5 -26s-32.167 -9.5 -51.5 -9.5c-18.667 0 -35.5 3.16699 -50.5 9.5s-27.833 15 -38.5 26s-18.834 23.5 -24.501 37.5s-8.5 29 -8.5 45l51 5c0.666992 -24.667 7.16699 -44 19.5 -58
s29.5 -21 51.5 -21s39.167 7 51.5 21s18.833 33.333 19.5 58zM712.001 349l-0.000976562 -269.002c-36 -28.667 -75.833 -50.834 -119.5 -66.501s-92.5 -23.5 -146.5 -23.5c-50 0 -98.333 8.5 -145 25.5s-88 41.5 -124 73.5s-64.833 71.333 -86.5 118
s-32.5 99.667 -32.5 159c0 58.667 10.833 111.5 32.5 158.5s50.334 86.833 86.001 119.5s76.334 57.667 122.001 75s92.5 26 140.5 26c29.333 0 56.5 -2.16699 81.5 -6.5s48.333 -10.5 70 -18.5s42.334 -17.5 62.001 -28.5s38.834 -23.167 57.501 -36.5l-30 -44
c-34.667 25.333 -71.834 45.5 -111.501 60.5s-82.834 22.833 -129.501 23.5c-45.333 0 -87.5 -8.16699 -126.5 -24.5s-72.833 -39 -101.5 -68s-51.167 -63.667 -67.5 -104s-24.5 -84.5 -24.5 -132.5c0 -49.333 8.66699 -94.166 26 -134.499s41 -74.666 71 -102.999
s65 -50.166 105 -65.499s82.333 -23 127 -23c40.667 0 78.167 5.5 112.5 16.5s66.166 26.833 95.499 47.5v193h-209v52h265z" />
    <glyph glyph-name="gbreve" unicode="&#x11f;" horiz-adv-x="506" 
d="M388 605c0 -16 -2.66602 -31 -7.99902 -45s-13.333 -26.5 -24 -37.5s-23.5 -19.667 -38.5 -26s-32.167 -9.5 -51.5 -9.5c-18.667 0 -35.5 3.16699 -50.5 9.5s-27.833 15 -38.5 26s-18.834 23.5 -24.501 37.5s-8.5 29 -8.5 45l51 5c0.666992 -24.667 7.16699 -44 19.5 -58
s29.5 -21 51.5 -21s39.167 7 51.5 21s18.833 33.333 19.5 58zM388.001 313c-15.333 18 -34.8311 33.332 -58.498 45.999s-49.5 19 -77.5 19c-22.667 0 -43.334 -4.16699 -62.001 -12.5s-34.834 -20.166 -48.501 -35.499s-24.334 -33.333 -32.001 -54
s-11.5 -43.667 -11.5 -69c0 -24 3.83301 -46.167 11.5 -66.5s18.334 -38 32.001 -53s30.167 -26.833 49.5 -35.5s41 -13 65 -13c26.667 0 51.5 5.83301 74.5 17.5s42.167 27.167 57.5 46.5v210zM443.003 -41.001c0 -63.333 -15.001 -109.999 -45.001 -139.999
s-73.333 -45 -130 -45c-24.667 0 -48.167 2.16699 -70.5 6.5s-45.166 10.166 -68.499 17.499l10 51c22 -8.66699 43.167 -14.834 63.5 -18.501s40.166 -5.5 59.499 -5.5c44 0 76 10.5 96 31.5s30 53.833 30 98.5v92c-16.667 -15.333 -37 -28.333 -61 -39s-51 -16 -81 -16
c-29.333 0 -56.5 5.33301 -81.5 16s-46.5 25.5 -64.5 44.5s-32 41.667 -42 68s-15 55.166 -15 86.499c0 30.667 5.33301 59.334 16 86.001s25.334 49.834 44.001 69.501s40.5 35.167 65.5 46.5s51.5 17 79.5 17c30 0 57.333 -5.5 82 -16.5s44.667 -24.5 60 -40.5v49h53v-459
z" />
    <glyph glyph-name="Gdotaccent" unicode="&#x120;" horiz-adv-x="779" 
d="M385 863c0 11.333 4.16699 21.333 12.5 30s18.166 13 29.499 13c12 0 22.167 -4.33301 30.5 -13s12.5 -18.667 12.5 -30s-4.16699 -21.166 -12.5 -29.499s-18.5 -12.5 -30.5 -12.5c-11.333 0 -21.166 4.16699 -29.499 12.5s-12.5 18.166 -12.5 29.499zM712 349
l-0.000976562 -269.002c-36 -28.667 -75.833 -50.834 -119.5 -66.501s-92.5 -23.5 -146.5 -23.5c-50 0 -98.333 8.5 -145 25.5s-88 41.5 -124 73.5s-64.833 71.333 -86.5 118s-32.5 99.667 -32.5 159c0 58.667 10.833 111.5 32.5 158.5s50.334 86.833 86.001 119.5
s76.334 57.667 122.001 75s92.5 26 140.5 26c29.333 0 56.5 -2.16699 81.5 -6.5s48.333 -10.5 70 -18.5s42.334 -17.5 62.001 -28.5s38.834 -23.167 57.501 -36.5l-30 -44c-34.667 25.333 -71.834 45.5 -111.501 60.5s-82.834 22.833 -129.501 23.5
c-45.333 0 -87.5 -8.16699 -126.5 -24.5s-72.833 -39 -101.5 -68s-51.167 -63.667 -67.5 -104s-24.5 -84.5 -24.5 -132.5c0 -49.333 8.66699 -94.166 26 -134.499s41 -74.666 71 -102.999s65 -50.166 105 -65.499s82.333 -23 127 -23c40.667 0 78.167 5.5 112.5 16.5
s66.166 26.833 95.499 47.5v193h-209v52h265z" />
    <glyph glyph-name="gdotaccent" unicode="&#x121;" horiz-adv-x="506" 
d="M223 543c0 11.333 4.16699 21.333 12.5 30s18.166 13 29.499 13c12 0 22.167 -4.33301 30.5 -13s12.5 -18.667 12.5 -30s-4.16699 -21.166 -12.5 -29.499s-18.5 -12.5 -30.5 -12.5c-11.333 0 -21.166 4.16699 -29.499 12.5s-12.5 18.166 -12.5 29.499zM388 313
c-15.333 18 -34.8311 33.332 -58.498 45.999s-49.5 19 -77.5 19c-22.667 0 -43.334 -4.16699 -62.001 -12.5s-34.834 -20.166 -48.501 -35.499s-24.334 -33.333 -32.001 -54s-11.5 -43.667 -11.5 -69c0 -24 3.83301 -46.167 11.5 -66.5s18.334 -38 32.001 -53
s30.167 -26.833 49.5 -35.5s41 -13 65 -13c26.667 0 51.5 5.83301 74.5 17.5s42.167 27.167 57.5 46.5v210zM443.002 -41.001c0 -63.333 -15.001 -109.999 -45.001 -139.999s-73.333 -45 -130 -45c-24.667 0 -48.167 2.16699 -70.5 6.5s-45.166 10.166 -68.499 17.499l10 51
c22 -8.66699 43.167 -14.834 63.5 -18.501s40.166 -5.5 59.499 -5.5c44 0 76 10.5 96 31.5s30 53.833 30 98.5v92c-16.667 -15.333 -37 -28.333 -61 -39s-51 -16 -81 -16c-29.333 0 -56.5 5.33301 -81.5 16s-46.5 25.5 -64.5 44.5s-32 41.667 -42 68s-15 55.166 -15 86.499
c0 30.667 5.33301 59.334 16 86.001s25.334 49.834 44.001 69.501s40.5 35.167 65.5 46.5s51.5 17 79.5 17c30 0 57.333 -5.5 82 -16.5s44.667 -24.5 60 -40.5v49h53v-459z" />
    <glyph glyph-name="Gcommaaccent" unicode="&#x122;" horiz-adv-x="779" 
d="M712 349l-0.000976562 -269.002c-36 -28.667 -75.833 -50.834 -119.5 -66.501s-92.5 -23.5 -146.5 -23.5c-50 0 -98.333 8.5 -145 25.5s-88 41.5 -124 73.5s-64.833 71.333 -86.5 118s-32.5 99.667 -32.5 159c0 58.667 10.833 111.5 32.5 158.5
s50.334 86.833 86.001 119.5s76.334 57.667 122.001 75s92.5 26 140.5 26c29.333 0 56.5 -2.16699 81.5 -6.5s48.333 -10.5 70 -18.5s42.334 -17.5 62.001 -28.5s38.834 -23.167 57.501 -36.5l-30 -44c-34.667 25.333 -71.834 45.5 -111.501 60.5
s-82.834 22.833 -129.501 23.5c-45.333 0 -87.5 -8.16699 -126.5 -24.5s-72.833 -39 -101.5 -68s-51.167 -63.667 -67.5 -104s-24.5 -84.5 -24.5 -132.5c0 -49.333 8.66699 -94.166 26 -134.499s41 -74.666 71 -102.999s65 -50.166 105 -65.499s82.333 -23 127 -23
c40.667 0 78.167 5.5 112.5 16.5s66.166 26.833 95.499 47.5v193h-209v52h265zM472.999 -128.002c0 -12 -2.16309 -24.167 -6.49609 -36.5s-10.333 -24.5 -18 -36.5s-16.834 -23.333 -27.501 -34s-22.334 -19.667 -35.001 -27l-11 13c15.333 14 27.666 29 36.999 45
s15.666 31.667 18.999 47c-14.667 1.33301 -26 6 -34 14s-12 17.667 -12 29s4 21 12 29s17.667 12 29 12c14 0 25.333 -5.16699 34 -15.5s13 -23.5 13 -39.5z" />
    <glyph glyph-name="gcommaaccent" unicode="&#x123;" horiz-adv-x="506" 
d="M219 568c0 12 2.16309 24.167 6.49609 36.5s10.333 24.5 18 36.5s16.834 23.333 27.501 34s22.334 19.667 35.001 27l11 -13c-15.333 -14 -27.666 -29 -36.999 -45s-15.666 -31.667 -18.999 -47c14.667 -1.33301 26 -6 34 -14s12 -17.667 12 -29s-4 -21 -12 -29
s-17.667 -12 -29 -12c-14 0 -25.333 5.16699 -34 15.5s-13 23.5 -13 39.5zM387.996 313c-15.333 18 -34.8311 33.332 -58.498 45.999s-49.5 19 -77.5 19c-22.667 0 -43.334 -4.16699 -62.001 -12.5s-34.834 -20.166 -48.501 -35.499s-24.334 -33.333 -32.001 -54
s-11.5 -43.667 -11.5 -69c0 -24 3.83301 -46.167 11.5 -66.5s18.334 -38 32.001 -53s30.167 -26.833 49.5 -35.5s41 -13 65 -13c26.667 0 51.5 5.83301 74.5 17.5s42.167 27.167 57.5 46.5v210zM442.998 -41.001c0 -63.333 -15.001 -109.999 -45.001 -139.999
s-73.333 -45 -130 -45c-24.667 0 -48.167 2.16699 -70.5 6.5s-45.166 10.166 -68.499 17.499l10 51c22 -8.66699 43.167 -14.834 63.5 -18.501s40.166 -5.5 59.499 -5.5c44 0 76 10.5 96 31.5s30 53.833 30 98.5v92c-16.667 -15.333 -37 -28.333 -61 -39s-51 -16 -81 -16
c-29.333 0 -56.5 5.33301 -81.5 16s-46.5 25.5 -64.5 44.5s-32 41.667 -42 68s-15 55.166 -15 86.499c0 30.667 5.33301 59.334 16 86.001s25.334 49.834 44.001 69.501s40.5 35.167 65.5 46.5s51.5 17 79.5 17c30 0 57.333 -5.5 82 -16.5s44.667 -24.5 60 -40.5v49h53v-459
z" />
    <glyph glyph-name="Hbar" unicode="&#x126;" horiz-adv-x="707" 
d="M564 398v156h-421v-156h421zM564 0v348h-421v-348h-56v554h-79v48h79v131h56v-131h421v131h56v-131h80v-48h-80v-554h-56z" />
    <glyph glyph-name="hbar" unicode="&#x127;" horiz-adv-x="466" 
d="M357 0v269c0 35.333 -7.66699 62.333 -23 81s-40 28 -74 28c-26.667 0 -53 -8 -79 -24s-48.667 -34.667 -68 -56v-298h-55v570h-59v48h59v115h55v-115h146v-48h-146v-223c20.667 22 44.667 40.667 72 56s56 23 86 23c48 0 83.667 -13.667 107 -41s35 -62 35 -104v-281
h-56z" />
    <glyph glyph-name="Imacron" unicode="&#x12a;" horiz-adv-x="237" 
d="M-24 832v48h287v-48h-287zM91 0v733h56v-733h-56z" />
    <glyph glyph-name="imacron" unicode="&#x12b;" horiz-adv-x="191" 
d="M-47 512v48h287v-48h-287zM68 0v418h56v-418h-56z" />
    <glyph glyph-name="Ibreve" unicode="&#x12c;" horiz-adv-x="237" 
d="M241 925c0 -16 -2.66602 -31 -7.99902 -45s-13.333 -26.5 -24 -37.5s-23.5 -19.667 -38.5 -26s-32.167 -9.5 -51.5 -9.5c-18.667 0 -35.5 3.16699 -50.5 9.5s-27.833 15 -38.5 26s-18.834 23.5 -24.501 37.5s-8.5 29 -8.5 45l51 5c0.666992 -24.667 7.16699 -44 19.5 -58
s29.5 -21 51.5 -21s39.167 7 51.5 21s18.833 33.333 19.5 58zM91.001 0v733h56v-733h-56z" />
    <glyph glyph-name="ibreve" unicode="&#x12d;" horiz-adv-x="191" 
d="M218 605c0 -16 -2.66602 -31 -7.99902 -45s-13.333 -26.5 -24 -37.5s-23.5 -19.667 -38.5 -26s-32.167 -9.5 -51.5 -9.5c-18.667 0 -35.5 3.16699 -50.5 9.5s-27.833 15 -38.5 26s-18.834 23.5 -24.501 37.5s-8.5 29 -8.5 45l51 5c0.666992 -24.667 7.16699 -44 19.5 -58
s29.5 -21 51.5 -21s39.167 7 51.5 21s18.833 33.333 19.5 58zM68.001 0v418h56v-418h-56z" />
    <glyph glyph-name="Iogonek" unicode="&#x12e;" horiz-adv-x="237" 
d="M190 -168c-11.333 -15.333 -24.1689 -27.666 -38.502 -36.999s-31.166 -14 -50.499 -14c-22.667 -0.666992 -41.167 6.33301 -55.5 21s-21.166 33.667 -20.499 57c0 21.333 5.66699 42.666 17 63.999s29.666 47 54.999 77h-6v733h56v-733h-5
c-23.333 -28 -41 -52.667 -53 -74s-18 -42 -18 -62c0 -14 3.66699 -24.833 11 -32.5s16.333 -11.5 27 -11.5c11.333 0 21.333 2.83301 30 8.5s17.334 14.167 26.001 25.5z" />
    <glyph glyph-name="iogonek" unicode="&#x12f;" horiz-adv-x="187" 
d="M134 573c0 -11.333 -3.83301 -20.833 -11.5 -28.5s-17.167 -11.5 -28.5 -11.5s-20.833 3.83301 -28.5 11.5s-11.5 17.167 -11.5 28.5s3.83301 21 11.5 29s17.167 12 28.5 12s20.833 -4 28.5 -12s11.5 -17.667 11.5 -29zM165 -168
c-11.333 -15.333 -24 -27.666 -38 -36.999s-30.667 -14 -50 -14c-23.333 -0.666992 -42.166 6.33301 -56.499 21s-21.166 33.667 -20.499 57c0.666992 21.333 6.66699 42.666 18 63.999s29.666 47 54.999 77h-7v418h56v-418h-5c-22.667 -28 -40 -52.667 -52 -74
s-18 -42 -18 -62c0 -14 3.5 -24.833 10.5 -32.5s15.833 -11.5 26.5 -11.5c12 0 22.167 2.83301 30.5 8.5s17.166 14.167 26.499 25.5z" />
    <glyph glyph-name="Idotaccent" unicode="&#x130;" horiz-adv-x="237" 
d="M76 863c0 11.333 4.16699 21.333 12.5 30s18.166 13 29.499 13c12 0 22.167 -4.33301 30.5 -13s12.5 -18.667 12.5 -30s-4.16699 -21.166 -12.5 -29.499s-18.5 -12.5 -30.5 -12.5c-11.333 0 -21.166 4.16699 -29.499 12.5s-12.5 18.166 -12.5 29.499zM91 0v733h56v-733
h-56z" />
    <glyph glyph-name="dotlessi" unicode="&#x131;" horiz-adv-x="191" 
d="M68 0v418h56v-418h-56z" />
    <glyph glyph-name="Kcommaaccent" unicode="&#x136;" horiz-adv-x="593" 
d="M498 0l-355 362v-362h-56v733h56v-341l343 341h72l-361 -356l375 -377h-74zM353 -116c0 -12 -2.16309 -24.167 -6.49609 -36.5s-10.333 -24.5 -18 -36.5s-16.834 -23.333 -27.501 -34s-22.334 -19.667 -35.001 -27l-11 13c15.333 14 27.666 29 36.999 45
s15.666 31.667 18.999 47c-14.667 1.33301 -26 6 -34 14s-12 17.667 -12 29s4 21 12 29s17.667 12 29 12c14 0 25.333 -5.16699 34 -15.5s13 -23.5 13 -39.5z" />
    <glyph glyph-name="kcommaaccent" unicode="&#x137;" horiz-adv-x="398" 
d="M326 0l-208 206v-206h-55v733h55v-500l198 185h70l-217 -197l227 -221h-70zM258 -128c0 -12 -2.16309 -24.167 -6.49609 -36.5s-10.333 -24.5 -18 -36.5s-16.834 -23.333 -27.501 -34s-22.334 -19.667 -35.001 -27l-11 13c15.333 14 27.666 29 36.999 45
s15.666 31.667 18.999 47c-14.667 1.33301 -26 6 -34 14s-12 17.667 -12 29s4 21 12 29s17.667 12 29 12c14 0 25.333 -5.16699 34 -15.5s13 -23.5 13 -39.5z" />
    <glyph glyph-name="Lacute" unicode="&#x139;" horiz-adv-x="513" 
d="M87 0v733h56v-682h358v-51h-414zM119 795l-18 31l181 123l29 -55z" />
    <glyph glyph-name="lacute" unicode="&#x13a;" horiz-adv-x="187" 
d="M66 0v733h55v-733h-55zM83 790l-18 31l181 123l29 -55z" />
    <glyph glyph-name="Lcommaaccent" unicode="&#x13b;" horiz-adv-x="513" 
d="M87 0v733h56v-682h358v-51h-414zM335 -128c0 -12 -2.16309 -24.167 -6.49609 -36.5s-10.333 -24.5 -18 -36.5s-16.834 -23.333 -27.501 -34s-22.334 -19.667 -35.001 -27l-11 13c15.333 14 27.666 29 36.999 45s15.666 31.667 18.999 47c-14.667 1.33301 -26 6 -34 14
s-12 17.667 -12 29s4 21 12 29s17.667 12 29 12c14 0 25.333 -5.16699 34 -15.5s13 -23.5 13 -39.5z" />
    <glyph glyph-name="lcommaaccent" unicode="&#x13c;" horiz-adv-x="187" 
d="M66 0v733h55v-733h-55zM140 -128c0 -12 -2.16309 -24.167 -6.49609 -36.5s-10.333 -24.5 -18 -36.5s-16.834 -23.333 -27.501 -34s-22.334 -19.667 -35.001 -27l-11 13c15.333 14 27.666 29 36.999 45s15.666 31.667 18.999 47c-14.667 1.33301 -26 6 -34 14
s-12 17.667 -12 29s4 21 12 29s17.667 12 29 12c14 0 25.333 -5.16699 34 -15.5s13 -23.5 13 -39.5z" />
    <glyph glyph-name="Lcaron" unicode="&#x13d;" horiz-adv-x="513" 
d="M87 0v733h56v-682h358v-51h-414zM343 725c0 -42 -8 -77.834 -24 -107.501s-38 -55.167 -66 -76.5l-25 21c19.333 20.667 34 44.834 44 72.501s15.667 60.5 17 98.5z" />
    <glyph glyph-name="lcaron" unicode="&#x13e;" horiz-adv-x="187" 
d="M66 0v733h55v-733h-55zM272 725c0 -42 -8 -77.834 -24 -107.501s-38 -55.167 -66 -76.5l-25 21c19.333 20.667 34 44.834 44 72.501s15.667 60.5 17 98.5z" />
    <glyph glyph-name="Ldot" unicode="&#x13f;" horiz-adv-x="513" 
d="M336 369c0 -11.333 4.16699 -21.166 12.5 -29.499s18.166 -12.5 29.499 -12.5c12 0 22.167 4.16699 30.5 12.5s12.5 18.166 12.5 29.499s-4.16699 21.333 -12.5 30s-18.5 13 -30.5 13c-11.333 0 -21.166 -4.33301 -29.499 -13s-12.5 -18.667 -12.5 -30zM87 0v733h56v-682
h358v-51h-414z" />
    <glyph glyph-name="ldot" unicode="&#x140;" horiz-adv-x="261" 
d="M181 367c0 -11.333 4.16699 -21.166 12.5 -29.499s18.166 -12.5 29.499 -12.5c12 0 22.167 4.16699 30.5 12.5s12.5 18.166 12.5 29.499s-4.16699 21.333 -12.5 30s-18.5 13 -30.5 13c-11.333 0 -21.166 -4.33301 -29.499 -13s-12.5 -18.667 -12.5 -30zM66 0v733h55v-733
h-55z" />
    <glyph glyph-name="Lslash" unicode="&#x141;" horiz-adv-x="533" 
d="M107 0v326.001l-65 -29v54l65 29v353h56v-328l104 48v-54l-52 -24l-36 -16c-10.667 -4.66699 -16 -7.33398 -16 -8.00098v-300h358v-51h-414z" />
    <glyph glyph-name="lslash" unicode="&#x142;" horiz-adv-x="212" 
d="M134 348v-348h-56v320l-51 -23v54l51 23v359h56v-331l51 23v-54z" />
    <glyph glyph-name="Nacute" unicode="&#x143;" horiz-adv-x="727" 
d="M630 -11l-488 622v-611h-55v741l13 3l484 -615v604h56v-742zM336 782l-18 31l181 123l29 -55z" />
    <glyph glyph-name="nacute" unicode="&#x144;" 
d="M359 0l-0.00292969 269c0 35.333 -7.5 62.333 -22.5 81s-39.5 28 -73.5 28c-26.667 0 -52.667 -8 -78 -24s-47.666 -34.667 -66.999 -56v-298h-55v418h53v-72c20.667 22 44.834 40.833 72.501 56.5s56.834 23.5 87.501 23.5c48 0 83.167 -13.667 105.5 -41
s33.5 -62 33.5 -104v-281h-56zM210.997 475l-18 31l181 123l29 -55z" />
    <glyph glyph-name="Ncommaaccent" unicode="&#x145;" horiz-adv-x="727" 
d="M630 -11l-488 622v-611h-55v741l13 3l484 -615v604h56v-742zM409 -116c0 -12 -2.16309 -24.167 -6.49609 -36.5s-10.333 -24.5 -18 -36.5s-16.834 -23.333 -27.501 -34s-22.334 -19.667 -35.001 -27l-11 13c15.333 14 27.666 29 36.999 45s15.666 31.667 18.999 47
c-14.667 1.33301 -26 6 -34 14s-12 17.667 -12 29s4 21 12 29s17.667 12 29 12c14 0 25.333 -5.16699 34 -15.5s13 -23.5 13 -39.5z" />
    <glyph glyph-name="ncommaaccent" unicode="&#x146;" 
d="M359 0l-0.00292969 269c0 35.333 -7.5 62.333 -22.5 81s-39.5 28 -73.5 28c-26.667 0 -52.667 -8 -78 -24s-47.666 -34.667 -66.999 -56v-298h-55v418h53v-72c20.667 22 44.834 40.833 72.501 56.5s56.834 23.5 87.501 23.5c48 0 83.167 -13.667 105.5 -41
s33.5 -62 33.5 -104v-281h-56zM283.997 -128c0 -12 -2.16309 -24.167 -6.49609 -36.5s-10.333 -24.5 -18 -36.5s-16.834 -23.333 -27.501 -34s-22.334 -19.667 -35.001 -27l-11 13c15.333 14 27.666 29 36.999 45s15.666 31.667 18.999 47c-14.667 1.33301 -26 6 -34 14
s-12 17.667 -12 29s4 21 12 29s17.667 12 29 12c14 0 25.333 -5.16699 34 -15.5s13 -23.5 13 -39.5z" />
    <glyph glyph-name="Ncaron" unicode="&#x147;" horiz-adv-x="727" 
d="M630 -11l-488 622v-611h-55v741l13 3l484 -615v604h56v-742zM377 789h-29l-120 149h59l78 -98l76 98h58z" />
    <glyph glyph-name="ncaron" unicode="&#x148;" 
d="M359 0l-0.00292969 269c0 35.333 -7.5 62.333 -22.5 81s-39.5 28 -73.5 28c-26.667 0 -52.667 -8 -78 -24s-47.666 -34.667 -66.999 -56v-298h-55v418h53v-72c20.667 22 44.834 40.833 72.501 56.5s56.834 23.5 87.501 23.5c48 0 83.167 -13.667 105.5 -41
s33.5 -62 33.5 -104v-281h-56zM251.997 482h-29l-120 149h59l78 -98l76 98h58z" />
    <glyph glyph-name="Omacron" unicode="&#x14c;" horiz-adv-x="842" 
d="M723 366c0 46 -7.5 89 -22.5 129s-35.833 74.667 -62.5 104s-58.5 52.333 -95.5 69s-77.5 25 -121.5 25s-84.5 -8.33301 -121.5 -25s-68.833 -39.667 -95.5 -69s-47.5 -64 -62.5 -104s-22.5 -83 -22.5 -129s7.5 -88.833 22.5 -128.5s35.833 -74.167 62.5 -103.5
s58.5 -52.333 95.5 -69s77.5 -25 121.5 -25s84.5 8.33301 121.5 25s68.833 39.667 95.5 69s47.5 63.833 62.5 103.5s22.5 82.5 22.5 128.5zM784 366c0 -54 -9.5 -104 -28.5 -150s-45 -85.833 -78 -119.5s-71.667 -59.834 -116 -78.501s-91.833 -28 -142.5 -28
c-50 0 -97 9.33301 -141 28s-82.333 44.834 -115 78.501s-58.334 73.5 -77.001 119.5s-28 96 -28 150s9.5 104.167 28.5 150.5s45 86.333 78 120s71.667 60 116 79s91.833 28.5 142.5 28.5c50 0 97 -9.5 141 -28.5s82.333 -45.333 115 -79s58.334 -73.667 77.001 -120
s28 -96.5 28 -150.5zM278 832v48h287v-48h-287z" />
    <glyph glyph-name="omacron" unicode="&#x14d;" horiz-adv-x="500" 
d="M402 209c0 24.667 -3.66699 47.501 -11 68.501s-17.666 39 -30.999 54s-29.333 26.667 -48 35s-39.334 12.5 -62.001 12.5s-43.334 -4.33301 -62.001 -13s-34.667 -20.5 -48 -35.5s-23.666 -32.833 -30.999 -53.5s-11 -43.334 -11 -68.001s3.66699 -47.334 11 -68.001
s17.666 -38.5 30.999 -53.5s29.333 -26.833 48 -35.5s39.334 -13 62.001 -13s43.334 4.33301 62.001 13s34.667 20.5 48 35.5s23.666 32.833 30.999 53.5s11 43.334 11 68.001zM458 210.001c0 -30 -5.16992 -58.333 -15.5029 -85s-24.666 -49.834 -42.999 -69.501
s-40.166 -35.167 -65.499 -46.5s-53.333 -17 -84 -17s-58.667 5.66699 -84 17s-47.166 26.666 -65.499 45.999s-32.5 42.333 -42.5 69s-15 55 -15 85s5 58.167 15 84.5s24.167 49.333 42.5 69s40.333 35.167 66 46.5s53.834 17 84.501 17s58.667 -5.66699 84 -17
s47.166 -26.666 65.499 -45.999s32.5 -42.166 42.5 -68.499s15 -54.5 15 -84.5zM106.997 512.001v48h287v-48h-287z" />
    <glyph glyph-name="Obreve" unicode="&#x14e;" horiz-adv-x="842" 
d="M543 925c0 -16 -2.66602 -31 -7.99902 -45s-13.333 -26.5 -24 -37.5s-23.5 -19.667 -38.5 -26s-32.167 -9.5 -51.5 -9.5c-18.667 0 -35.5 3.16699 -50.5 9.5s-27.833 15 -38.5 26s-18.834 23.5 -24.501 37.5s-8.5 29 -8.5 45l51 5c0.666992 -24.667 7.16699 -44 19.5 -58
s29.5 -21 51.5 -21s39.167 7 51.5 21s18.833 33.333 19.5 58zM723.001 366c0 46 -7.5 89 -22.5 129s-35.833 74.667 -62.5 104s-58.5 52.333 -95.5 69s-77.5 25 -121.5 25s-84.5 -8.33301 -121.5 -25s-68.833 -39.667 -95.5 -69s-47.5 -64 -62.5 -104s-22.5 -83 -22.5 -129
s7.5 -88.833 22.5 -128.5s35.833 -74.167 62.5 -103.5s58.5 -52.333 95.5 -69s77.5 -25 121.5 -25s84.5 8.33301 121.5 25s68.833 39.667 95.5 69s47.5 63.833 62.5 103.5s22.5 82.5 22.5 128.5zM784.001 366c0 -54 -9.5 -104 -28.5 -150s-45 -85.833 -78 -119.5
s-71.667 -59.834 -116 -78.501s-91.833 -28 -142.5 -28c-50 0 -97 9.33301 -141 28s-82.333 44.834 -115 78.501s-58.334 73.5 -77.001 119.5s-28 96 -28 150s9.5 104.167 28.5 150.5s45 86.333 78 120s71.667 60 116 79s91.833 28.5 142.5 28.5c50 0 97 -9.5 141 -28.5
s82.333 -45.333 115 -79s58.334 -73.667 77.001 -120s28 -96.5 28 -150.5z" />
    <glyph glyph-name="obreve" unicode="&#x14f;" horiz-adv-x="500" 
d="M372 605c0 -16 -2.66602 -31 -7.99902 -45s-13.333 -26.5 -24 -37.5s-23.5 -19.667 -38.5 -26s-32.167 -9.5 -51.5 -9.5c-18.667 0 -35.5 3.16699 -50.5 9.5s-27.833 15 -38.5 26s-18.834 23.5 -24.501 37.5s-8.5 29 -8.5 45l51 5c0.666992 -24.667 7.16699 -44 19.5 -58
s29.5 -21 51.5 -21s39.167 7 51.5 21s18.833 33.333 19.5 58zM402.001 209c0 24.667 -3.66699 47.501 -11 68.501s-17.666 39 -30.999 54s-29.333 26.667 -48 35s-39.334 12.5 -62.001 12.5s-43.334 -4.33301 -62.001 -13s-34.667 -20.5 -48 -35.5
s-23.666 -32.833 -30.999 -53.5s-11 -43.334 -11 -68.001s3.66699 -47.334 11 -68.001s17.666 -38.5 30.999 -53.5s29.333 -26.833 48 -35.5s39.334 -13 62.001 -13s43.334 4.33301 62.001 13s34.667 20.5 48 35.5s23.666 32.833 30.999 53.5s11 43.334 11 68.001z
M458.001 210.001c0 -30 -5.16992 -58.333 -15.5029 -85s-24.666 -49.834 -42.999 -69.501s-40.166 -35.167 -65.499 -46.5s-53.333 -17 -84 -17s-58.667 5.66699 -84 17s-47.166 26.666 -65.499 45.999s-32.5 42.333 -42.5 69s-15 55 -15 85s5 58.167 15 84.5
s24.167 49.333 42.5 69s40.333 35.167 66 46.5s53.834 17 84.501 17s58.667 -5.66699 84 -17s47.166 -26.666 65.499 -45.999s32.5 -42.166 42.5 -68.499s15 -54.5 15 -84.5z" />
    <glyph glyph-name="Ohungarumlaut" unicode="&#x150;" horiz-adv-x="842" 
d="M723 366c0 46 -7.5 89 -22.5 129s-35.833 74.667 -62.5 104s-58.5 52.333 -95.5 69s-77.5 25 -121.5 25s-84.5 -8.33301 -121.5 -25s-68.833 -39.667 -95.5 -69s-47.5 -64 -62.5 -104s-22.5 -83 -22.5 -129s7.5 -88.833 22.5 -128.5s35.833 -74.167 62.5 -103.5
s58.5 -52.333 95.5 -69s77.5 -25 121.5 -25s84.5 8.33301 121.5 25s68.833 39.667 95.5 69s47.5 63.833 62.5 103.5s22.5 82.5 22.5 128.5zM784 366c0 -54 -9.5 -104 -28.5 -150s-45 -85.833 -78 -119.5s-71.667 -59.834 -116 -78.501s-91.833 -28 -142.5 -28
c-50 0 -97 9.33301 -141 28s-82.333 44.834 -115 78.501s-58.334 73.5 -77.001 119.5s-28 96 -28 150s9.5 104.167 28.5 150.5s45 86.333 78 120s71.667 60 116 79s91.833 28.5 142.5 28.5c50 0 97 -9.5 141 -28.5s82.333 -45.333 115 -79s58.334 -73.667 77.001 -120
s28 -96.5 28 -150.5zM494 790l-28 18l86 170l50 -31zM362 801l-28 18l88 173l50 -31z" />
    <glyph glyph-name="ohungarumlaut" unicode="&#x151;" horiz-adv-x="500" 
d="M402 209c0 24.667 -3.66699 47.501 -11 68.501s-17.666 39 -30.999 54s-29.333 26.667 -48 35s-39.334 12.5 -62.001 12.5s-43.334 -4.33301 -62.001 -13s-34.667 -20.5 -48 -35.5s-23.666 -32.833 -30.999 -53.5s-11 -43.334 -11 -68.001s3.66699 -47.334 11 -68.001
s17.666 -38.5 30.999 -53.5s29.333 -26.833 48 -35.5s39.334 -13 62.001 -13s43.334 4.33301 62.001 13s34.667 20.5 48 35.5s23.666 32.833 30.999 53.5s11 43.334 11 68.001zM458 210.001c0 -30 -5.16992 -58.333 -15.5029 -85s-24.666 -49.834 -42.999 -69.501
s-40.166 -35.167 -65.499 -46.5s-53.333 -17 -84 -17s-58.667 5.66699 -84 17s-47.166 26.666 -65.499 45.999s-32.5 42.333 -42.5 69s-15 55 -15 85s5 58.167 15 84.5s24.167 49.333 42.5 69s40.333 35.167 66 46.5s53.834 17 84.501 17s58.667 -5.66699 84 -17
s47.166 -26.666 65.499 -45.999s32.5 -42.166 42.5 -68.499s15 -54.5 15 -84.5zM322.997 470.001l-28 18l86 170l50 -31zM190.997 481.001l-28 18l88 173l50 -31z" />
    <glyph glyph-name="OE" unicode="&#x152;" horiz-adv-x="1068" 
d="M592 684c-15.333 2.66699 -33.333 4.66895 -54 6.00195s-43.667 2 -69 2c-58 0 -109 -8.5 -153 -25.5s-80.5 -40.5 -109.5 -70.5s-50.833 -65.167 -65.5 -105.5s-22 -83.833 -22 -130.5c0 -43.333 7.66699 -84.333 23 -123s38 -72.334 68 -101.001
s67 -51.334 111 -68.001s95 -25 153 -25c22 0 43.667 0.666992 65 2s39 3 53 5v634zM605 0.00195312c-19.333 -2 -40.002 -3.66797 -62.002 -5.00098s-44.667 -2 -68 -2c-68 0 -128 10.333 -180 31s-95.5 48.167 -130.5 82.5s-61.5 73.5 -79.5 117.5s-27 89.333 -27 136
c0 50.667 8.83301 99 26.5 145s43.834 86.333 78.501 121s77.834 62.334 129.501 83.001s111.5 31 179.5 31c25.333 0 49.833 -0.666992 73.5 -2s45.167 -3 64.5 -5h396v-50h-358v-286h323v-50h-323v-296h358v-51h-401z" />
    <glyph glyph-name="oe" unicode="&#x153;" horiz-adv-x="818" 
d="M402 209c0 24.667 -3.66699 47.501 -11 68.501s-17.666 39 -30.999 54s-29.333 26.667 -48 35s-39.334 12.5 -62.001 12.5s-43.334 -4.33301 -62.001 -13s-34.667 -20.5 -48 -35.5s-23.666 -32.833 -30.999 -53.5s-11 -43.334 -11 -68.001s3.66699 -47.334 11 -68.001
s17.666 -38.5 30.999 -53.5s29.333 -26.833 48 -35.5s39.334 -13 62.001 -13s43.334 4.33301 62.001 13s34.667 20.5 48 35.5s23.666 32.833 30.999 53.5s11 43.334 11 68.001zM727 241.001c-0.666992 19.333 -4 37.333 -10 54s-14.5 31.167 -25.5 43.5s-24.5 22 -40.5 29
s-34.667 10.5 -56 10.5c-40 0 -71.667 -12.5 -95 -37.5s-37.333 -58.167 -42 -99.5h269zM780 224.001v-12.998c0 -4 -0.333008 -8.66699 -1 -14h-323c1.33301 -22 5.5 -42.5 12.5 -61.5s17.333 -35.5 31 -49.5s31 -25 52 -33s45.833 -12 74.5 -12
c19.333 0 39.166 2.33301 59.499 7s40.166 10.667 59.499 18l6 -24c1.33301 -3.33301 2.16602 -6.33301 2.49902 -9s0.833008 -5 1.5 -7c0.666992 -2.66699 1 -5 1 -7c-21.333 -8 -43.666 -14.5 -66.999 -19.5s-45.333 -7.5 -66 -7.5c-50 0 -91.167 9.83301 -123.5 29.5
s-56.5 45.834 -72.5 78.501c-16.667 -32.667 -40.167 -58.834 -70.5 -78.501s-65.833 -29.5 -106.5 -29.5c-30.667 0 -58.667 5.66699 -84 17s-47.166 26.666 -65.499 45.999s-32.5 42.333 -42.5 69s-15 55 -15 85s5 58.167 15 84.5s24.167 49.333 42.5 69
s40.333 35.167 66 46.5s53.834 17 84.501 17c40.667 0 76.167 -9.83301 106.5 -29.5s53.833 -45.5 70.5 -77.5c15.333 32 37.5 57.833 66.5 77.5s63.833 29.5 104.5 29.5c29.333 0 55.333 -5.16699 78 -15.5s41.667 -24.5 57 -42.5s26.833 -39.333 34.5 -64
s11.5 -51.334 11.5 -80.001z" />
    <glyph glyph-name="Racute" unicode="&#x154;" horiz-adv-x="590" 
d="M254 795l-18 31l181 123l29 -55zM462 518c0 24.667 -4.50195 47.332 -13.502 67.999s-22.5 38.5 -40.5 53.5s-40.167 26.833 -66.5 35.5s-56.833 13 -91.5 13c-35.333 0 -70.666 -3 -105.999 -9v-331c12.667 -1.33301 27.334 -2.66602 44.001 -3.99902s32.667 -2 48 -2
c74 0 130.167 15.833 168.5 47.5s57.5 74.5 57.5 128.5zM496.998 -0.00195312l-199.999 298.001c-10 -1.33301 -20.333 -2.33301 -31 -3s-21.667 -1 -33 -1c-13.333 0 -28.5 0.333008 -45.5 1s-31.5 1.66699 -43.5 3v-298h-57v726
c27.333 3.33301 53.166 6.16602 77.499 8.49902s50.833 3.5 79.5 3.5c45.333 0 85.333 -5.33301 120 -16s63.667 -25.5 87 -44.5s41 -41.833 53 -68.5s18 -56 18 -88c0 -50 -14.667 -93.667 -44 -131s-71.333 -64 -126 -80l213 -310h-68z" />
    <glyph glyph-name="racute" unicode="&#x155;" horiz-adv-x="285" 
d="M133 475l-18 31l181 123l29 -55zM268 373c-30 -1.33301 -58.5 -9.16699 -85.5 -23.5s-48.5 -35.5 -64.5 -63.5v-286h-55v418h53v-79c19.333 27.333 42 48.833 68 64.5s54 23.5 84 23.5v-54z" />
    <glyph glyph-name="Rcommaaccent" unicode="&#x156;" horiz-adv-x="590" 
d="M331 -121c0 -12 -2.16309 -24.167 -6.49609 -36.5s-10.333 -24.5 -18 -36.5s-16.834 -23.333 -27.501 -34s-22.334 -19.667 -35.001 -27l-11 13c15.333 14 27.666 29 36.999 45s15.666 31.667 18.999 47c-14.667 1.33301 -26 6 -34 14s-12 17.667 -12 29s4 21 12 29
s17.667 12 29 12c14 0 25.333 -5.16699 34 -15.5s13 -23.5 13 -39.5zM462.004 518c0 24.667 -4.50195 47.332 -13.502 67.999s-22.5 38.5 -40.5 53.5s-40.167 26.833 -66.5 35.5s-56.833 13 -91.5 13c-35.333 0 -70.666 -3 -105.999 -9v-331
c12.667 -1.33301 27.334 -2.66602 44.001 -3.99902s32.667 -2 48 -2c74 0 130.167 15.833 168.5 47.5s57.5 74.5 57.5 128.5zM497.002 -0.00195312l-199.999 298.001c-10 -1.33301 -20.333 -2.33301 -31 -3s-21.667 -1 -33 -1c-13.333 0 -28.5 0.333008 -45.5 1
s-31.5 1.66699 -43.5 3v-298h-57v726c27.333 3.33301 53.166 6.16602 77.499 8.49902s50.833 3.5 79.5 3.5c45.333 0 85.333 -5.33301 120 -16s63.667 -25.5 87 -44.5s41 -41.833 53 -68.5s18 -56 18 -88c0 -50 -14.667 -93.667 -44 -131s-71.333 -64 -126 -80l213 -310h-68
z" />
    <glyph glyph-name="rcommaaccent" unicode="&#x157;" horiz-adv-x="285" 
d="M138 -127c0 -12 -2.16309 -24.167 -6.49609 -36.5s-10.333 -24.5 -18 -36.5s-16.834 -23.333 -27.501 -34s-22.334 -19.667 -35.001 -27l-11 13c15.333 14 27.666 29 36.999 45s15.666 31.667 18.999 47c-14.667 1.33301 -26 6 -34 14s-12 17.667 -12 29s4 21 12 29
s17.667 12 29 12c14 0 25.333 -5.16699 34 -15.5s13 -23.5 13 -39.5zM268.004 373c-30 -1.33301 -58.5 -9.16699 -85.5 -23.5s-48.5 -35.5 -64.5 -63.5v-286h-55v418h53v-79c19.333 27.333 42 48.833 68 64.5s54 23.5 84 23.5v-54z" />
    <glyph glyph-name="Rcaron" unicode="&#x158;" horiz-adv-x="590" 
d="M295 802h-29l-120 149h59l78 -98l76 98h58zM462 518c0 24.667 -4.50195 47.332 -13.502 67.999s-22.5 38.5 -40.5 53.5s-40.167 26.833 -66.5 35.5s-56.833 13 -91.5 13c-35.333 0 -70.666 -3 -105.999 -9v-331c12.667 -1.33301 27.334 -2.66602 44.001 -3.99902
s32.667 -2 48 -2c74 0 130.167 15.833 168.5 47.5s57.5 74.5 57.5 128.5zM496.998 -0.00195312l-199.999 298.001c-10 -1.33301 -20.333 -2.33301 -31 -3s-21.667 -1 -33 -1c-13.333 0 -28.5 0.333008 -45.5 1s-31.5 1.66699 -43.5 3v-298h-57v726
c27.333 3.33301 53.166 6.16602 77.499 8.49902s50.833 3.5 79.5 3.5c45.333 0 85.333 -5.33301 120 -16s63.667 -25.5 87 -44.5s41 -41.833 53 -68.5s18 -56 18 -88c0 -50 -14.667 -93.667 -44 -131s-71.333 -64 -126 -80l213 -310h-68z" />
    <glyph glyph-name="rcaron" unicode="&#x159;" horiz-adv-x="285" 
d="M174 482h-29l-120 149h59l78 -98l76 98h58zM268 373c-30 -1.33301 -58.5 -9.16699 -85.5 -23.5s-48.5 -35.5 -64.5 -63.5v-286h-55v418h53v-79c19.333 27.333 42 48.833 68 64.5s54 23.5 84 23.5v-54z" />
    <glyph glyph-name="Sacute" unicode="&#x15a;" horiz-adv-x="517" 
d="M464 189c0 -30 -5.82715 -57.335 -17.4941 -82.002s-27.667 -45.834 -48 -63.501s-44 -31.334 -71 -41.001s-56.167 -14.5 -87.5 -14.5c-39.333 0 -76.5 6 -111.5 18s-68.5 28.667 -100.5 50l27 49c30 -20 60.833 -36 92.5 -48s64.167 -18 97.5 -18
c24 0 46 3.66699 66 11s37.167 17.333 51.5 30s25.333 27.834 33 45.501s11.5 36.5 11.5 56.5c0 21.333 -3.5 39.833 -10.5 55.5s-17.333 30 -31 43s-30.5 25 -50.5 36s-43 22.5 -69 34.5c-28 12.667 -53.333 25.5 -76 38.5s-41.834 27.5 -57.501 43.5
s-27.667 33.833 -36 53.5s-12.5 42.167 -12.5 67.5c0 26.667 5.33301 51.5 16 74.5s25.667 43.167 45 60.5s42.5 31 69.5 41s56.833 15 89.5 15c32 0 62.167 -4.66699 90.5 -14s53.166 -21.333 74.499 -36l-27 -47c-18.667 13.333 -40.167 24.333 -64.5 33
s-50.5 13 -78.5 13c-24.667 0 -46.834 -3.5 -66.501 -10.5s-36.334 -16.667 -50.001 -29s-24.167 -26.666 -31.5 -42.999s-11 -34.166 -11 -53.499c0 -20 3.66699 -37.5 11 -52.5s17.666 -28.667 30.999 -41s29.333 -23.666 48 -33.999s39 -20.5 61 -30.5
c31.333 -14 59 -28 83 -42s44.167 -29.167 60.5 -45.5s28.666 -34.5 36.999 -54.5s12.5 -43 12.5 -69zM240.006 794.998l-18 31l181 123l29 -55z" />
    <glyph glyph-name="sacute" unicode="&#x15b;" horiz-adv-x="356" 
d="M311 116c0 -16 -3.16699 -31.498 -9.5 -46.498s-15.333 -28.333 -27 -40s-25.834 -20.834 -42.501 -27.501s-35 -10 -55 -10c-28 0 -54 4.83301 -78 14.5s-46.667 22.167 -68 37.5l27 40c17.333 -13.333 36.166 -24.333 56.499 -33s40.5 -13 60.5 -13
c27.333 0 48.333 6.5 63 19.5s22 30.167 22 51.5c0 16.667 -5.16699 30.167 -15.5 40.5s-23.166 19.333 -38.499 27s-31.833 14.667 -49.5 21s-34.167 14.166 -49.5 23.499s-28.166 21 -38.499 35s-15.5 32 -15.5 54c0 15.333 3 29.833 9 43.5s14.833 26 26.5 37
s25.834 19.667 42.501 26s35.334 9.5 56.001 9.5c22 0 43.333 -3.83301 64 -11.5s39.667 -17.167 57 -28.5l-25 -42c-15.333 11.333 -30.833 20.166 -46.5 26.499s-32.5 9.5 -50.5 9.5c-28 0 -48.667 -6.5 -62 -19.5s-20 -28.167 -20 -45.5
c0 -16 5.16699 -28.833 15.5 -38.5s23.166 -18.167 38.499 -25.5s31.833 -14.333 49.5 -21s34.167 -14.667 49.5 -24s28.166 -21.166 38.499 -35.499s15.5 -32.5 15.5 -54.5zM154 475.002l-18 31l181 123l29 -55z" />
    <glyph glyph-name="Scedilla" unicode="&#x15e;" horiz-adv-x="517" 
d="M341 -150c0 -23.333 -8.49609 -43.6748 -25.4961 -61.0078s-42.5 -26 -76.5 -26c-17.333 0 -34.5 2.83301 -51.5 8.5s-35.167 13.834 -54.5 24.501l18 36c17.333 -9.33301 33 -16.5 47 -21.5s27.667 -7.5 41 -7.5c18 0 31.667 4.16699 41 12.5s14 19.166 14 32.499
c0 15.333 -7.5 28.833 -22.5 40.5s-41.167 19.167 -78.5 22.5l-3 6l19 72c-33.333 3.33301 -64.833 10.666 -94.5 21.999s-58.5 26.333 -86.5 45l27 49c30 -20 60.833 -36 92.5 -48s64.167 -18 97.5 -18c24 0 46 3.66699 66 11s37.167 17.333 51.5 30
s25.333 27.834 33 45.501s11.5 36.5 11.5 56.5c0 21.333 -3.5 39.833 -10.5 55.5s-17.333 30 -31 43s-30.5 25 -50.5 36s-43 22.5 -69 34.5c-28 12.667 -53.333 25.5 -76 38.5s-41.834 27.5 -57.501 43.5s-27.667 33.833 -36 53.5s-12.5 42.167 -12.5 67.5
c0 26.667 5.33301 51.5 16 74.5s25.667 43.167 45 60.5s42.5 31 69.5 41s56.833 15 89.5 15c32 0 62.167 -4.66699 90.5 -14s53.166 -21.333 74.499 -36l-27 -47c-18.667 13.333 -40.167 24.333 -64.5 33s-50.5 13 -78.5 13c-24.667 0 -46.834 -3.5 -66.501 -10.5
s-36.334 -16.667 -50.001 -29s-24.167 -26.666 -31.5 -42.999s-11 -34.166 -11 -53.499c0 -20 3.66699 -37.5 11 -52.5s17.666 -28.667 30.999 -41s29.333 -23.666 48 -33.999s39 -20.5 61 -30.5c31.333 -14 59 -28 83 -42s44.167 -29.167 60.5 -45.5
s28.666 -34.5 36.999 -54.5s12.5 -43 12.5 -69c0 -29.333 -5.66699 -56.166 -17 -80.499s-26.666 -45.166 -45.999 -62.499s-42.166 -31.166 -68.499 -41.499s-54.5 -15.833 -84.5 -16.5l-11 -43c36.667 -7.33301 63.167 -19.666 79.5 -36.999s24.5 -36.666 24.5 -57.999z
" />
    <glyph glyph-name="scedilla" unicode="&#x15f;" horiz-adv-x="356" 
d="M270 -150c0 -23.333 -8.50098 -43.668 -25.501 -61.001s-42.5 -26 -76.5 -26c-17.333 0 -34.5 2.83301 -51.5 8.5s-35.167 13.834 -54.5 24.501l18 36c17.333 -9.33301 33 -16.5 47 -21.5s27.667 -7.5 41 -7.5c18 0 31.667 4.16699 41 12.5s14 19.166 14 32.499
c0 15.333 -7.5 28.833 -22.5 40.5s-41.167 19.167 -78.5 22.5l-3 6l21 78c-20.667 3.33301 -40 9.33301 -58 18s-35 19 -51 31l27 40c17.333 -13.333 36.166 -24.333 56.499 -33s40.5 -13 60.5 -13c27.333 0 48.333 6.5 63 19.5s22 30.167 22 51.5
c0 16.667 -5.16699 30.167 -15.5 40.5s-23.166 19.333 -38.499 27s-31.833 14.667 -49.5 21s-34.167 14.166 -49.5 23.499s-28.166 21 -38.499 35s-15.5 32 -15.5 54c0 15.333 3 29.833 9 43.5s14.833 26 26.5 37s25.834 19.667 42.501 26s35.334 9.5 56.001 9.5
c22 0 43.333 -3.83301 64 -11.5s39.667 -17.167 57 -28.5l-25 -42c-15.333 11.333 -30.833 20.166 -46.5 26.499s-32.5 9.5 -50.5 9.5c-28 0 -48.667 -6.5 -62 -19.5s-20 -28.167 -20 -45.5c0 -16 5.16699 -28.833 15.5 -38.5s23.166 -18.167 38.499 -25.5
s31.833 -14.333 49.5 -21s34.167 -14.667 49.5 -24s28.166 -21.166 38.499 -35.499s15.5 -32.5 15.5 -54.5c0 -16 -3.16699 -31.5 -9.5 -46.5s-15.333 -28.167 -27 -39.5s-25.667 -20.5 -42 -27.5s-34.5 -10.5 -54.5 -10.5l-12 -47
c36.667 -7.33301 63.167 -19.666 79.5 -36.999s24.5 -36.666 24.5 -57.999z" />
    <glyph glyph-name="Scaron" unicode="&#x160;" horiz-adv-x="517" 
d="M464 189c0 -30 -5.82715 -57.335 -17.4941 -82.002s-27.667 -45.834 -48 -63.501s-44 -31.334 -71 -41.001s-56.167 -14.5 -87.5 -14.5c-39.333 0 -76.5 6 -111.5 18s-68.5 28.667 -100.5 50l27 49c30 -20 60.833 -36 92.5 -48s64.167 -18 97.5 -18
c24 0 46 3.66699 66 11s37.167 17.333 51.5 30s25.333 27.834 33 45.501s11.5 36.5 11.5 56.5c0 21.333 -3.5 39.833 -10.5 55.5s-17.333 30 -31 43s-30.5 25 -50.5 36s-43 22.5 -69 34.5c-28 12.667 -53.333 25.5 -76 38.5s-41.834 27.5 -57.501 43.5
s-27.667 33.833 -36 53.5s-12.5 42.167 -12.5 67.5c0 26.667 5.33301 51.5 16 74.5s25.667 43.167 45 60.5s42.5 31 69.5 41s56.833 15 89.5 15c32 0 62.167 -4.66699 90.5 -14s53.166 -21.333 74.499 -36l-27 -47c-18.667 13.333 -40.167 24.333 -64.5 33
s-50.5 13 -78.5 13c-24.667 0 -46.834 -3.5 -66.501 -10.5s-36.334 -16.667 -50.001 -29s-24.167 -26.666 -31.5 -42.999s-11 -34.166 -11 -53.499c0 -20 3.66699 -37.5 11 -52.5s17.666 -28.667 30.999 -41s29.333 -23.666 48 -33.999s39 -20.5 61 -30.5
c31.333 -14 59 -28 83 -42s44.167 -29.167 60.5 -45.5s28.666 -34.5 36.999 -54.5s12.5 -43 12.5 -69zM280.006 801.998h-29l-120 149h59l78 -98l76 98h58z" />
    <glyph glyph-name="scaron" unicode="&#x161;" horiz-adv-x="356" 
d="M311 116c0 -16 -3.16699 -31.498 -9.5 -46.498s-15.333 -28.333 -27 -40s-25.834 -20.834 -42.501 -27.501s-35 -10 -55 -10c-28 0 -54 4.83301 -78 14.5s-46.667 22.167 -68 37.5l27 40c17.333 -13.333 36.166 -24.333 56.499 -33s40.5 -13 60.5 -13
c27.333 0 48.333 6.5 63 19.5s22 30.167 22 51.5c0 16.667 -5.16699 30.167 -15.5 40.5s-23.166 19.333 -38.499 27s-31.833 14.667 -49.5 21s-34.167 14.166 -49.5 23.499s-28.166 21 -38.499 35s-15.5 32 -15.5 54c0 15.333 3 29.833 9 43.5s14.833 26 26.5 37
s25.834 19.667 42.501 26s35.334 9.5 56.001 9.5c22 0 43.333 -3.83301 64 -11.5s39.667 -17.167 57 -28.5l-25 -42c-15.333 11.333 -30.833 20.166 -46.5 26.499s-32.5 9.5 -50.5 9.5c-28 0 -48.667 -6.5 -62 -19.5s-20 -28.167 -20 -45.5
c0 -16 5.16699 -28.833 15.5 -38.5s23.166 -18.167 38.499 -25.5s31.833 -14.333 49.5 -21s34.167 -14.667 49.5 -24s28.166 -21.166 38.499 -35.499s15.5 -32.5 15.5 -54.5zM195 482.002h-29l-120 149h59l78 -98l76 98h58z" />
    <glyph glyph-name="Tcommaaccent" unicode="&#x162;" horiz-adv-x="614" 
d="M336 683v-683h-57v683h-249v50h554v-50h-248zM353 -128c0 -12 -2.16309 -24.167 -6.49609 -36.5s-10.333 -24.5 -18 -36.5s-16.834 -23.333 -27.501 -34s-22.334 -19.667 -35.001 -27l-11 13c15.333 14 27.666 29 36.999 45s15.666 31.667 18.999 47
c-14.667 1.33301 -26 6 -34 14s-12 17.667 -12 29s4 21 12 29s17.667 12 29 12c14 0 25.333 -5.16699 34 -15.5s13 -23.5 13 -39.5z" />
    <glyph glyph-name="tcommaaccent" unicode="&#x163;" horiz-adv-x="293" 
d="M143 369l0.000976562 -262c0 -44 23.333 -66 70 -66c8 0 15.667 0.5 23 1.5s14.666 2.16699 21.999 3.5l5 -47c-11.333 -2 -21.833 -3.66699 -31.5 -5s-20.167 -2 -31.5 -2c-36 0 -63.5 9.5 -82.5 28.5s-28.5 49.167 -28.5 90.5v258h-71v13l71 39v90l54 40v-133h132v-49
h-132zM214.001 -128c0 -12 -2.16309 -24.167 -6.49609 -36.5s-10.333 -24.5 -18 -36.5s-16.834 -23.333 -27.501 -34s-22.334 -19.667 -35.001 -27l-11 13c15.333 14 27.666 29 36.999 45s15.666 31.667 18.999 47c-14.667 1.33301 -26 6 -34 14s-12 17.667 -12 29
s4 21 12 29s17.667 12 29 12c14 0 25.333 -5.16699 34 -15.5s13 -23.5 13 -39.5z" />
    <glyph glyph-name="Tcaron" unicode="&#x164;" horiz-adv-x="614" 
d="M336 683v-683h-57v683h-249v50h554v-50h-248zM320 802h-29l-120 149h59l78 -98l76 98h58z" />
    <glyph glyph-name="tcaron" unicode="&#x165;" horiz-adv-x="293" 
d="M143 369l0.000976562 -262c0 -44 23.333 -66 70 -66c8 0 15.667 0.5 23 1.5s14.666 2.16699 21.999 3.5l5 -47c-11.333 -2 -21.833 -3.66699 -31.5 -5s-20.167 -2 -31.5 -2c-36 0 -63.5 9.5 -82.5 28.5s-28.5 49.167 -28.5 90.5v258h-71v13l71 39v90l54 40v-133h132v-49
h-132zM300.001 663c0 -42 -8 -77.834 -24 -107.501s-38 -55.167 -66 -76.5l-25 21c19.333 20.667 34 44.834 44 72.501s15.667 60.5 17 98.5z" />
    <glyph glyph-name="Umacron" unicode="&#x16a;" horiz-adv-x="708" 
d="M212 819v48h287v-48h-287zM628 266c0 -42.667 -6.49902 -81.165 -19.499 -115.498s-31.5 -63.333 -55.5 -87s-53 -41.834 -87 -54.501s-71.667 -19 -113 -19c-85.333 0 -152 23.667 -200 71s-72 115.666 -72 204.999v467h56v-466c0 -74.667 19.667 -131 59 -169
s91.666 -57 156.999 -57c32.667 0 62.5 4.83301 89.5 14.5s50 24 69 43s33.667 42.667 44 71s15.5 60.833 15.5 97.5v466h57v-467z" />
    <glyph glyph-name="umacron" unicode="&#x16b;" 
d="M92 512v48h287v-48h-287zM358 0l0.00195312 69c-9.33301 -10 -20 -19.5 -32 -28.5s-24.833 -17.167 -38.5 -24.5s-27.834 -13.166 -42.501 -17.499s-29.667 -6.5 -45 -6.5c-48.667 0 -84.334 13.667 -107.001 41s-34 62 -34 104v281h56v-269
c0 -35.333 7.66699 -62.333 23 -81s40 -28 74 -28c26.667 0 52.5 7.66699 77.5 23s47.167 33.666 66.5 54.999v300h55v-418h-53z" />
    <glyph glyph-name="Ubreve" unicode="&#x16c;" horiz-adv-x="708" 
d="M477 912c0 -16 -2.66602 -31 -7.99902 -45s-13.333 -26.5 -24 -37.5s-23.5 -19.667 -38.5 -26s-32.167 -9.5 -51.5 -9.5c-18.667 0 -35.5 3.16699 -50.5 9.5s-27.833 15 -38.5 26s-18.834 23.5 -24.501 37.5s-8.5 29 -8.5 45l51 5c0.666992 -24.667 7.16699 -44 19.5 -58
s29.5 -21 51.5 -21s39.167 7 51.5 21s18.833 33.333 19.5 58zM628.001 266c0 -42.667 -6.49902 -81.165 -19.499 -115.498s-31.5 -63.333 -55.5 -87s-53 -41.834 -87 -54.501s-71.667 -19 -113 -19c-85.333 0 -152 23.667 -200 71s-72 115.666 -72 204.999v467h56v-466
c0 -74.667 19.667 -131 59 -169s91.666 -57 156.999 -57c32.667 0 62.5 4.83301 89.5 14.5s50 24 69 43s33.667 42.667 44 71s15.5 60.833 15.5 97.5v466h57v-467z" />
    <glyph glyph-name="ubreve" unicode="&#x16d;" 
d="M357 605c0 -16 -2.66602 -31 -7.99902 -45s-13.333 -26.5 -24 -37.5s-23.5 -19.667 -38.5 -26s-32.167 -9.5 -51.5 -9.5c-18.667 0 -35.5 3.16699 -50.5 9.5s-27.833 15 -38.5 26s-18.834 23.5 -24.501 37.5s-8.5 29 -8.5 45l51 5c0.666992 -24.667 7.16699 -44 19.5 -58
s29.5 -21 51.5 -21s39.167 7 51.5 21s18.833 33.333 19.5 58zM358.001 0l0.00195312 69c-9.33301 -10 -20 -19.5 -32 -28.5s-24.833 -17.167 -38.5 -24.5s-27.834 -13.166 -42.501 -17.499s-29.667 -6.5 -45 -6.5c-48.667 0 -84.334 13.667 -107.001 41s-34 62 -34 104v281
h56v-269c0 -35.333 7.66699 -62.333 23 -81s40 -28 74 -28c26.667 0 52.5 7.66699 77.5 23s47.167 33.666 66.5 54.999v300h55v-418h-53z" />
    <glyph glyph-name="Uring" unicode="&#x16e;" horiz-adv-x="708" 
d="M416 893c0 19.333 -5.83301 35.166 -17.5 47.499s-26.5 18.5 -44.5 18.5c-17.333 0 -31.833 -6.16699 -43.5 -18.5s-17.5 -28.166 -17.5 -47.499s5.83301 -35.166 17.5 -47.499s26.167 -18.5 43.5 -18.5c18 0 32.833 6.16699 44.5 18.5s17.5 28.166 17.5 47.499zM457 893
c0 -28 -9.33301 -51.832 -28 -71.499s-43.667 -29.5 -75 -29.5c-30.667 0 -55.5 9.83301 -74.5 29.5s-28.5 43.5 -28.5 71.5c0 14 2.5 27 7.5 39s12 22.667 21 32s19.833 16.666 32.5 21.999s26.667 8 42 8c31.333 0 56.333 -9.83301 75 -29.5s28 -43.5 28 -71.5z
M628 266.001c0 -42.667 -6.49902 -81.165 -19.499 -115.498s-31.5 -63.333 -55.5 -87s-53 -41.834 -87 -54.501s-71.667 -19 -113 -19c-85.333 0 -152 23.667 -200 71s-72 115.666 -72 204.999v467h56v-466c0 -74.667 19.667 -131 59 -169s91.666 -57 156.999 -57
c32.667 0 62.5 4.83301 89.5 14.5s50 24 69 43s33.667 42.667 44 71s15.5 60.833 15.5 97.5v466h57v-467z" />
    <glyph glyph-name="uring" unicode="&#x16f;" 
d="M358 0l0.00195312 69c-9.33301 -10 -20 -19.5 -32 -28.5s-24.833 -17.167 -38.5 -24.5s-27.834 -13.166 -42.501 -17.499s-29.667 -6.5 -45 -6.5c-48.667 0 -84.334 13.667 -107.001 41s-34 62 -34 104v281h56v-269c0 -35.333 7.66699 -62.333 23 -81s40 -28 74 -28
c26.667 0 52.5 7.66699 77.5 23s47.167 33.666 66.5 54.999v300h55v-418h-53zM296.002 586c0 19.333 -5.83301 35.166 -17.5 47.499s-26.5 18.5 -44.5 18.5c-17.333 0 -31.833 -6.16699 -43.5 -18.5s-17.5 -28.166 -17.5 -47.499s5.83301 -35.166 17.5 -47.499
s26.167 -18.5 43.5 -18.5c18 0 32.833 6.16699 44.5 18.5s17.5 28.166 17.5 47.499zM337.002 586c0 -28 -9.33301 -51.832 -28 -71.499s-43.667 -29.5 -75 -29.5c-30.667 0 -55.5 9.83301 -74.5 29.5s-28.5 43.5 -28.5 71.5c0 14 2.5 27 7.5 39s12 22.667 21 32
s19.833 16.666 32.5 21.999s26.667 8 42 8c31.333 0 56.333 -9.83301 75 -29.5s28 -43.5 28 -71.5z" />
    <glyph glyph-name="Uhungarumlaut" unicode="&#x170;" horiz-adv-x="708" 
d="M428 777l-28 18l86 170l50 -31zM296 788l-28 18l88 173l50 -31zM628 266c0 -42.667 -6.49902 -81.165 -19.499 -115.498s-31.5 -63.333 -55.5 -87s-53 -41.834 -87 -54.501s-71.667 -19 -113 -19c-85.333 0 -152 23.667 -200 71s-72 115.666 -72 204.999v467h56v-466
c0 -74.667 19.667 -131 59 -169s91.666 -57 156.999 -57c32.667 0 62.5 4.83301 89.5 14.5s50 24 69 43s33.667 42.667 44 71s15.5 60.833 15.5 97.5v466h57v-467z" />
    <glyph glyph-name="uhungarumlaut" unicode="&#x171;" 
d="M308 470l-28 18l86 170l50 -31zM176 481l-28 18l88 173l50 -31zM358 0l0.00195312 69c-9.33301 -10 -20 -19.5 -32 -28.5s-24.833 -17.167 -38.5 -24.5s-27.834 -13.166 -42.501 -17.499s-29.667 -6.5 -45 -6.5c-48.667 0 -84.334 13.667 -107.001 41s-34 62 -34 104v281
h56v-269c0 -35.333 7.66699 -62.333 23 -81s40 -28 74 -28c26.667 0 52.5 7.66699 77.5 23s47.167 33.666 66.5 54.999v300h55v-418h-53z" />
    <glyph glyph-name="Uogonek" unicode="&#x172;" horiz-adv-x="708" 
d="M628 266c0 -40 -5.66602 -76.167 -16.999 -108.5s-27.5 -60.166 -48.5 -83.499s-46.333 -42 -76 -56s-62.834 -22.667 -99.501 -26c-22 -25.333 -39.667 -48.5 -53 -69.5s-20 -40.833 -20 -59.5c0 -13.333 3.5 -23.833 10.5 -31.5s16.167 -11.5 27.5 -11.5
s21.333 2.83301 30 8.5s17.334 14.167 26.001 25.5l24 -23c-11.333 -15.333 -23.833 -27.5 -37.5 -36.5s-30.167 -13.5 -49.5 -13.5c-23.333 -0.666992 -42.166 6 -56.499 20s-21.5 32.667 -21.5 56c0.666992 21.333 6.66699 42.166 18 62.499s29.666 43.833 54.999 70.5
c-81.333 2.66699 -144.833 27.5 -190.5 74.5s-68.5 114.167 -68.5 201.5v467h56v-466c0 -74.667 19.667 -131 59 -169s91.666 -57 156.999 -57c32.667 0 62.5 4.83301 89.5 14.5s50 24 69 43s33.667 42.667 44 71s15.5 60.833 15.5 97.5v466h57v-467z" />
    <glyph glyph-name="uogonek" unicode="&#x173;" 
d="M401 0c-24.667 -26.667 -44.332 -51.333 -58.999 -74s-22 -43.667 -22 -63c0 -13.333 3.5 -23.833 10.5 -31.5s16.167 -11.5 27.5 -11.5s21.333 2.83301 30 8.5s17.334 14.167 26.001 25.5l24 -23c-11.333 -15.333 -23.833 -27.5 -37.5 -36.5s-30.167 -13.5 -49.5 -13.5
c-23.333 -0.666992 -42.166 6 -56.499 20s-21.5 32.667 -21.5 56c0.666992 22.667 7.66699 45 21 67s34.666 48 63.999 78v67c-9.33301 -10 -20 -19.5 -32 -28.5s-24.833 -17.167 -38.5 -24.5s-27.834 -13.166 -42.501 -17.499s-29.667 -6.5 -45 -6.5
c-48.667 0 -84.334 13.667 -107.001 41s-34 62 -34 104v281h56v-269c0 -35.333 7.66699 -62.333 23 -81s40 -28 74 -28c26.667 0 52.5 7.66699 77.5 23s47.167 33.666 66.5 54.999v300h55v-418h-10z" />
    <glyph glyph-name="Wcircumflex" unicode="&#x174;" horiz-adv-x="952" 
d="M726 -10l-14 -2l-237 627l-235 -627l-14 2l-192 743h56l154 -601l227 605h10l229 -603l153 599h55zM552 807l-79 98l-75 -98h-58l121 149h30l120 -149h-59z" />
    <glyph glyph-name="wcircumflex" unicode="&#x175;" horiz-adv-x="611" 
d="M453 -12h-10l-134 324l-137 -324h-10l-141 430h60l94 -314l128 314h10l131 -314l90 314h59zM383 487l-79 98l-75 -98h-58l121 149h30l120 -149h-59z" />
    <glyph glyph-name="Ycircumflex" unicode="&#x176;" horiz-adv-x="626" 
d="M389 794l-79 98l-75 -98h-58l121 149h30l120 -149h-59zM341 329v-329h-56v330l-256 403h63l223 -356l220 356h62z" />
    <glyph glyph-name="ycircumflex" unicode="&#x177;" horiz-adv-x="427" 
d="M290 487l-79 98l-75 -98h-58l121 149h30l120 -149h-59zM125 -216h-56l118 244l-179 390h61l145 -334l146 334h60z" />
    <glyph glyph-name="Ydieresis" unicode="&#x178;" horiz-adv-x="626" 
d="M269 850c0 -11.333 -4.16699 -21.166 -12.5 -29.499s-18.166 -12.5 -29.499 -12.5s-21.166 4.16699 -29.499 12.5s-12.5 18.166 -12.5 29.499s4.16699 21.333 12.5 30s18.166 13 29.499 13s21.166 -4.33301 29.499 -13s12.5 -18.667 12.5 -30zM440 850
c0 -11.333 -4.16699 -21.166 -12.5 -29.499s-18.166 -12.5 -29.499 -12.5c-12 0 -22.167 4.16699 -30.5 12.5s-12.5 18.166 -12.5 29.499s4.16699 21.333 12.5 30s18.5 13 30.5 13c11.333 0 21.166 -4.33301 29.499 -13s12.5 -18.667 12.5 -30zM341 329v-329h-56v330
l-256 403h63l223 -356l220 356h62z" />
    <glyph glyph-name="Zacute" unicode="&#x179;" horiz-adv-x="631" 
d="M134 51h441v-51h-525l-4 10l445 673h-420v50h504l5 -10zM288 795l-18 31l181 123l29 -55z" />
    <glyph glyph-name="zacute" unicode="&#x17a;" horiz-adv-x="397" 
d="M100 48h270v-48h-352l-4 9l276 361h-256v48h338l4 -10zM170 475l-18 31l181 123l29 -55z" />
    <glyph glyph-name="Zdotaccent" unicode="&#x17b;" horiz-adv-x="631" 
d="M272 863c0 11.333 4.16699 21.333 12.5 30s18.166 13 29.499 13c12 0 22.167 -4.33301 30.5 -13s12.5 -18.667 12.5 -30s-4.16699 -21.166 -12.5 -29.499s-18.5 -12.5 -30.5 -12.5c-11.333 0 -21.166 4.16699 -29.499 12.5s-12.5 18.166 -12.5 29.499zM134 51h441v-51
h-525l-4 10l445 673h-420v50h504l5 -10z" />
    <glyph glyph-name="zdotaccent" unicode="&#x17c;" horiz-adv-x="397" 
d="M155 543c0 11.333 4.16699 21.333 12.5 30s18.166 13 29.499 13c12 0 22.167 -4.33301 30.5 -13s12.5 -18.667 12.5 -30s-4.16699 -21.166 -12.5 -29.499s-18.5 -12.5 -30.5 -12.5c-11.333 0 -21.166 4.16699 -29.499 12.5s-12.5 18.166 -12.5 29.499zM100 48h270v-48
h-352l-4 9l276 361h-256v48h338l4 -10z" />
    <glyph glyph-name="Zcaron" unicode="&#x17d;" horiz-adv-x="631" 
d="M134 51h441v-51h-525l-4 10l445 673h-420v50h504l5 -10zM328 802h-29l-120 149h59l78 -98l76 98h58z" />
    <glyph glyph-name="zcaron" unicode="&#x17e;" horiz-adv-x="397" 
d="M100 48h270v-48h-352l-4 9l276 361h-256v48h338l4 -10zM211 482h-29l-120 149h59l78 -98l76 98h58z" />
    <glyph glyph-name="florin" unicode="&#x192;" horiz-adv-x="375" 
d="M356 528c-6.66699 2 -14.332 3.66699 -22.999 5s-17 2 -25 2c-36 0 -63 -10.667 -81 -32s-30 -57 -36 -107l-7 -60h100l-2 -48h-103l-33 -288h-56l33 288h-62l3 11l65 40l6 53c7.33301 64 25.166 112.333 53.499 145s67.5 49 117.5 49c12.667 0 23.5 -0.833008 32.5 -2.5
s18.5 -4.16699 28.5 -7.5z" />
    <glyph glyph-name="Aringacute" unicode="&#x1fa;" horiz-adv-x="696" 
d="M410 812c0 19.333 -5.83301 35 -17.5 47s-26.5 18 -44.5 18c-17.333 0 -31.833 -6 -43.5 -18s-17.5 -27.667 -17.5 -47s5.83301 -35.166 17.5 -47.499s26.167 -18.5 43.5 -18.5c18 0 32.833 6.16699 44.5 18.5s17.5 28.166 17.5 47.499zM347 631l-151 -359h302zM451 811
c0 -25.333 -7.66797 -47.168 -23.001 -65.501s-35.666 -29.833 -60.999 -34.5l307 -711h-60l-95 224h-344l-94 -224h-59l306 712c-25.333 4 -45.5 15.333 -60.5 34s-22.5 40.334 -22.5 65.001c0 28 9.5 51.833 28.5 71.5s43.833 29.5 74.5 29.5
c31.333 0 56.333 -9.83301 75 -29.5s28 -43.5 28 -71.5zM310.999 938.998l-18 31l181 123l29 -55z" />
    <glyph glyph-name="aringacute" unicode="&#x1fb;" horiz-adv-x="433" 
d="M191 730l-18 31l181 123l29 -55zM280 586c0 19.333 -5.83301 35.166 -17.5 47.499s-26.5 18.5 -44.5 18.5c-17.333 0 -31.833 -6.16699 -43.5 -18.5s-17.5 -28.166 -17.5 -47.499s5.83301 -35.166 17.5 -47.499s26.167 -18.5 43.5 -18.5c18 0 32.833 6.16699 44.5 18.5
s17.5 28.166 17.5 47.499zM321 175c-20.667 11.333 -40 20.001 -58 26.001s-38.667 9 -62 9c-32 0 -58.333 -7.33301 -79 -22s-31 -36.334 -31 -65.001c0 -28 10.167 -49.167 30.5 -63.5s47.5 -21.5 81.5 -21.5c25.333 0 48 5.16699 68 15.5s36.667 23.5 50 39.5v82z
M321 586.001c0 -28 -9.33301 -51.832 -28 -71.499s-43.667 -29.5 -75 -29.5c-30.667 0 -55.5 9.83301 -74.5 29.5s-28.5 43.5 -28.5 71.5c0 14 2.5 27 7.5 39s12 22.667 21 32s19.833 16.666 32.5 21.999s26.667 8 42 8c31.333 0 56.333 -9.83301 75 -29.5
s28 -43.5 28 -71.5zM324 0.00195312v45.0029c-15.333 -15.333 -34.5 -28 -57.5 -38s-47.833 -15 -74.5 -15c-21.333 0 -41.333 2.83301 -60 8.5s-35 14.167 -49 25.5s-25 25.166 -33 41.499s-12 34.833 -12 55.5c0 20 4 38 12 54s19 29.667 33 41s30.5 20.166 49.5 26.499
s39.5 9.5 61.5 9.5c27.333 0 50.833 -3.16699 70.5 -9.5s38.5 -13.833 56.5 -22.5v38c0 40 -9.16699 69.5 -27.5 88.5s-49.5 28.5 -93.5 28.5c-17.333 0 -35.833 -2 -55.5 -6s-37.5 -9.66699 -53.5 -17l-11 48c19.333 7.33301 40.333 13.166 63 17.499s43.667 6.5 63 6.5
c58.667 0 101.667 -13.833 129 -41.5s41 -69.167 41 -124.5v-260h-52z" />
    <glyph glyph-name="AEacute" unicode="&#x1fc;" horiz-adv-x="1020" 
d="M619 795l-18 31l181 123l29 -55zM544 646l-254 -357h254v357zM544 0v241h-288l-171 -241h-66l527 733h412v-50h-357v-286h322v-50h-322v-296h357v-51h-414z" />
    <glyph glyph-name="aeacute" unicode="&#x1fd;" horiz-adv-x="738" 
d="M325 168c-16.667 12.667 -35.668 22.835 -57.001 30.502s-43.666 11.5 -66.999 11.5c-32 0 -58.333 -7.33301 -79 -22s-31 -36.334 -31 -65.001c0 -28 9.33301 -49.167 28 -63.5s43.667 -21.5 75 -21.5c14 0 28.167 2.33301 42.5 7s27.5 12.167 39.5 22.5
s22.5 23.666 31.5 39.999s14.833 36.5 17.5 60.5zM646.999 241.001c-1.33301 19.333 -4.83203 37.333 -10.499 54s-14 31.167 -25 43.5s-24.5 22 -40.5 29s-34.667 10.5 -56 10.5c-40 0 -71.833 -12.5 -95.5 -37.5s-37.834 -58.167 -42.501 -99.5h270zM321 260.001
c0 40 -9.16113 69.5049 -27.4941 88.5049s-49.5 28.5 -93.5 28.5c-17.333 0 -35.833 -2 -55.5 -6s-37.5 -9.66699 -53.5 -17l-11 48c19.333 7.33301 40.5 13.166 63.5 17.499s44.167 6.5 63.5 6.5c42.667 0 76.167 -7.5 100.5 -22.5s41.166 -37.5 50.499 -67.5
c16 27.333 37.667 49.166 65 65.499s59.333 24.5 96 24.5c29.333 0 55.166 -5 77.499 -15s41.166 -24 56.499 -42s26.833 -39.167 34.5 -63.5s11.5 -50.833 11.5 -79.5v-14c0 -4.66699 -0.333008 -9.66699 -1 -15h-323c1.33301 -22 5.5 -42.5 12.5 -61.5
s17.5 -35.5 31.5 -49.5s31.5 -25 52.5 -33s45.833 -12 74.5 -12c19.333 0 39.166 2.33301 59.499 7s39.833 10.667 58.5 18l6 -24c1.33301 -3.33301 2.16602 -6.33301 2.49902 -9s0.833008 -5 1.5 -7c0.666992 -2.66699 1.33398 -5 2.00098 -7
c-21.333 -8 -43.666 -14.5 -66.999 -19.5s-45.333 -7.5 -66 -7.5c-48.667 0 -88.834 9.5 -120.501 28.5s-55.167 44.167 -70.5 75.5c-16 -34 -39.167 -59.833 -69.5 -77.5s-63.5 -26.5 -99.5 -26.5c-19.333 0 -37.833 3 -55.5 9s-33.167 14.5 -46.5 25.5
s-23.833 24.667 -31.5 41s-11.5 34.833 -11.5 55.5c0 19.333 4 37.166 12 53.499s19 30.166 33 41.499s30.5 20.166 49.5 26.499s39.167 9.5 60.5 9.5c27.333 0 51.166 -3.16699 71.499 -9.5s39.166 -13.833 56.499 -22.5v38zM342.006 475.006l-18 31l181 123l29 -55z" />
    <glyph glyph-name="Oslashacute" unicode="&#x1fe;" horiz-adv-x="842" 
d="M394 795l-18 31l181 123l29 -55zM723 366c0 40.667 -5.83301 78.833 -17.5 114.5s-28.167 67.5 -49.5 95.5l-18.5 -19.5l-49.5 -51.5l-70.5 -73l-80.5 -83.5l-80.5 -83.5l-70.5 -73l-50 -52l-19 -20c26.667 -25.333 57.167 -45 91.5 -59s71.833 -21 112.5 -21
c44 0 84.5 8.33301 121.5 25s68.833 39.667 95.5 69s47.5 63.833 62.5 103.5s22.5 82.5 22.5 128.5zM625 611.999c-26.667 25.333 -57.167 45.167 -91.5 59.5s-71.833 21.5 -112.5 21.5c-44 0 -84.5 -8.33301 -121.5 -25s-68.833 -39.667 -95.5 -69s-47.5 -64 -62.5 -104
s-22.5 -83 -22.5 -129c0 -40.667 5.83301 -78.667 17.5 -114s28.167 -67 49.5 -95zM784 366c0 -54 -9.50098 -103.998 -28.501 -149.998s-45 -85.833 -78 -119.5s-71.667 -59.834 -116 -78.501s-91.833 -28 -142.5 -28c-46 0 -89.5 8 -130.5 24s-77.5 38.333 -109.5 67
c-4 -4.66699 -10.667 -11.667 -20 -21l-28 -29l-35 -37l-34 35l42 43l29 30.5c8.66699 9 13 13.167 13 12.5c-28 33.333 -49.667 71.166 -65 113.499s-23 88.166 -23 137.499c0 54 9.5 104.167 28.5 150.5s45 86.333 78 120s71.667 60 116 79s91.833 28.5 142.5 28.5
c46.667 0 90.334 -8.16699 131.001 -24.5s77 -39.166 109 -68.499l84 88l34 -34l-36 -38l-28 -29l-21 -21c28 -32.667 49.667 -70.167 65 -112.5s23 -88.5 23 -138.5z" />
    <glyph glyph-name="oslashacute" unicode="&#x1ff;" horiz-adv-x="500" 
d="M222 475l-18 31l181 123l29 -55zM146 80c27.333 -27.333 62.001 -41 104.001 -41c23.333 0 44.333 4.16699 63 12.5s34.667 20 48 35s23.666 33 30.999 54s11 43.833 11 68.5c0 36 -7.66699 67.667 -23 95zM356.001 337c-26.667 28 -62 42 -106 42
c-22.667 0 -43.5 -4.16699 -62.5 -12.5s-35 -20 -48 -35s-23.167 -32.833 -30.5 -53.5s-11 -43.667 -11 -69c0 -36 7.66699 -68.333 23 -97zM418.001 341c26.667 -36.667 39.9971 -80.3311 39.9971 -130.998c0 -30.667 -5.16699 -59.167 -15.5 -85.5
s-24.666 -49.333 -42.999 -69s-40.166 -35.167 -65.499 -46.5s-53.333 -17 -84 -17c-28 0 -53.833 4.66699 -77.5 14s-44.5 22.666 -62.5 39.999l-56 -54l-29 29l58 55c-26.667 38 -40 82.333 -40 133c0 30 5 58.333 15 85s24.167 49.667 42.5 69s40.333 34.666 66 45.999
s53.834 17 84.501 17c28 0 54 -4.83301 78 -14.5s45 -23.167 63 -40.5l14 13.5l18 17.5l22 21l28 -29z" />
    <glyph glyph-name="Scommaaccent" unicode="&#x218;" horiz-adv-x="517" 
d="M464 189c0 -30 -5.82715 -57.335 -17.4941 -82.002s-27.667 -45.834 -48 -63.501s-44 -31.334 -71 -41.001s-56.167 -14.5 -87.5 -14.5c-39.333 0 -76.5 6 -111.5 18s-68.5 28.667 -100.5 50l27 49c30 -20 60.833 -36 92.5 -48s64.167 -18 97.5 -18
c24 0 46 3.66699 66 11s37.167 17.333 51.5 30s25.333 27.834 33 45.501s11.5 36.5 11.5 56.5c0 21.333 -3.5 39.833 -10.5 55.5s-17.333 30 -31 43s-30.5 25 -50.5 36s-43 22.5 -69 34.5c-28 12.667 -53.333 25.5 -76 38.5s-41.834 27.5 -57.501 43.5
s-27.667 33.833 -36 53.5s-12.5 42.167 -12.5 67.5c0 26.667 5.33301 51.5 16 74.5s25.667 43.167 45 60.5s42.5 31 69.5 41s56.833 15 89.5 15c32 0 62.167 -4.66699 90.5 -14s53.166 -21.333 74.499 -36l-27 -47c-18.667 13.333 -40.167 24.333 -64.5 33
s-50.5 13 -78.5 13c-24.667 0 -46.834 -3.5 -66.501 -10.5s-36.334 -16.667 -50.001 -29s-24.167 -26.666 -31.5 -42.999s-11 -34.166 -11 -53.499c0 -20 3.66699 -37.5 11 -52.5s17.666 -28.667 30.999 -41s29.333 -23.666 48 -33.999s39 -20.5 61 -30.5
c31.333 -14 59 -28 83 -42s44.167 -29.167 60.5 -45.5s28.666 -34.5 36.999 -54.5s12.5 -43 12.5 -69zM298.006 -128.002c0 -12 -2.16309 -24.167 -6.49609 -36.5s-10.333 -24.5 -18 -36.5s-16.834 -23.333 -27.501 -34s-22.334 -19.667 -35.001 -27l-11 13
c15.333 14 27.666 29 36.999 45s15.666 31.667 18.999 47c-14.667 1.33301 -26 6 -34 14s-12 17.667 -12 29s4 21 12 29s17.667 12 29 12c14 0 25.333 -5.16699 34 -15.5s13 -23.5 13 -39.5z" />
    <glyph glyph-name="scommaaccent" unicode="&#x219;" horiz-adv-x="356" 
d="M311 116c0 -16 -3.16699 -31.498 -9.5 -46.498s-15.333 -28.333 -27 -40s-25.834 -20.834 -42.501 -27.501s-35 -10 -55 -10c-28 0 -54 4.83301 -78 14.5s-46.667 22.167 -68 37.5l27 40c17.333 -13.333 36.166 -24.333 56.499 -33s40.5 -13 60.5 -13
c27.333 0 48.333 6.5 63 19.5s22 30.167 22 51.5c0 16.667 -5.16699 30.167 -15.5 40.5s-23.166 19.333 -38.499 27s-31.833 14.667 -49.5 21s-34.167 14.166 -49.5 23.499s-28.166 21 -38.499 35s-15.5 32 -15.5 54c0 15.333 3 29.833 9 43.5s14.833 26 26.5 37
s25.834 19.667 42.501 26s35.334 9.5 56.001 9.5c22 0 43.333 -3.83301 64 -11.5s39.667 -17.167 57 -28.5l-25 -42c-15.333 11.333 -30.833 20.166 -46.5 26.499s-32.5 9.5 -50.5 9.5c-28 0 -48.667 -6.5 -62 -19.5s-20 -28.167 -20 -45.5
c0 -16 5.16699 -28.833 15.5 -38.5s23.166 -18.167 38.499 -25.5s31.833 -14.333 49.5 -21s34.167 -14.667 49.5 -24s28.166 -21.166 38.499 -35.499s15.5 -32.5 15.5 -54.5zM220 -127.998c0 -12 -2.16309 -24.167 -6.49609 -36.5s-10.333 -24.5 -18 -36.5
s-16.834 -23.333 -27.501 -34s-22.334 -19.667 -35.001 -27l-11 13c15.333 14 27.666 29 36.999 45s15.666 31.667 18.999 47c-14.667 1.33301 -26 6 -34 14s-12 17.667 -12 29s4 21 12 29s17.667 12 29 12c14 0 25.333 -5.16699 34 -15.5s13 -23.5 13 -39.5z" />
    <glyph glyph-name="schwa" unicode="&#x259;" horiz-adv-x="461" 
d="M92 176c1.33301 -19.333 4.83203 -37.333 10.499 -54s14 -31.167 25 -43.5s24.5 -22 40.5 -29s34.667 -10.5 56 -10.5c40 0 71.833 12.5 95.5 37.5s37.834 58.167 42.501 99.5h-270zM38.999 193l-0.00488281 12.998c0 4 0.666992 8.66699 2 14h323
c-1.33301 22 -5.5 42.5 -12.5 61.5s-17.5 35.5 -31.5 49.5s-31.5 25 -52.5 33s-45.833 12 -74.5 12c-19.333 0 -39.166 -2.33301 -59.499 -7s-40.166 -10.667 -59.499 -18c-1.33301 8.66699 -3 16.667 -5 24c-1.33301 6 -2.66602 11.5 -3.99902 16.5s-2 7.16699 -2 6.5
c21.333 8 43.666 14.5 66.999 19.5s45.333 7.5 66 7.5c37.333 0 69.833 -5.5 97.5 -16.5s50.834 -26.333 69.501 -46s32.667 -42.667 42 -69s14 -54.5 14 -84.5c0 -29.333 -4.5 -57.166 -13.5 -83.499s-22.167 -49.5 -39.5 -69.5s-38.166 -35.833 -62.499 -47.5
s-52.166 -17.5 -83.499 -17.5c-29.333 0 -55.333 5.16699 -78 15.5s-41.667 24.5 -57 42.5s-26.833 39.333 -34.5 64s-11.5 51.334 -11.5 80.001z" />
    <glyph glyph-name="circumflex" unicode="&#x2c6;" horiz-adv-x="440" 
d="M298 487l-79 98l-75 -98h-58l121 149h30l120 -149h-59z" />
    <glyph glyph-name="caron" unicode="&#x2c7;" horiz-adv-x="440" 
d="M233 482h-29l-120 149h59l78 -98l76 98h58z" />
    <glyph glyph-name="breve" unicode="&#x2d8;" horiz-adv-x="440" 
d="M342 605c0 -16 -2.66602 -31 -7.99902 -45s-13.333 -26.5 -24 -37.5s-23.5 -19.667 -38.5 -26s-32.167 -9.5 -51.5 -9.5c-18.667 0 -35.5 3.16699 -50.5 9.5s-27.833 15 -38.5 26s-18.834 23.5 -24.501 37.5s-8.5 29 -8.5 45l51 5c0.666992 -24.667 7.16699 -44 19.5 -58
s29.5 -21 51.5 -21s39.167 7 51.5 21s18.833 33.333 19.5 58z" />
    <glyph glyph-name="dotaccent" unicode="&#x2d9;" horiz-adv-x="440" 
d="M178 543c0 11.333 4.16699 21.333 12.5 30s18.166 13 29.499 13c12 0 22.167 -4.33301 30.5 -13s12.5 -18.667 12.5 -30s-4.16699 -21.166 -12.5 -29.499s-18.5 -12.5 -30.5 -12.5c-11.333 0 -21.166 4.16699 -29.499 12.5s-12.5 18.166 -12.5 29.499z" />
    <glyph glyph-name="ring" unicode="&#x2da;" horiz-adv-x="440" 
d="M282 586c0 19.333 -5.83301 35.166 -17.5 47.499s-26.5 18.5 -44.5 18.5c-17.333 0 -31.833 -6.16699 -43.5 -18.5s-17.5 -28.166 -17.5 -47.499s5.83301 -35.166 17.5 -47.499s26.167 -18.5 43.5 -18.5c18 0 32.833 6.16699 44.5 18.5s17.5 28.166 17.5 47.499zM323 586
c0 -28 -9.33301 -51.832 -28 -71.499s-43.667 -29.5 -75 -29.5c-30.667 0 -55.5 9.83301 -74.5 29.5s-28.5 43.5 -28.5 71.5c0 14 2.5 27 7.5 39s12 22.667 21 32s19.833 16.666 32.5 21.999s26.667 8 42 8c31.333 0 56.333 -9.83301 75 -29.5s28 -43.5 28 -71.5z" />
    <glyph glyph-name="ogonek" unicode="&#x2db;" horiz-adv-x="440" 
d="M323 -169c-11.333 -15.333 -23.8369 -27.5 -37.5039 -36.5s-30.167 -13.5 -49.5 -13.5c-23.333 -0.666992 -42.166 6 -56.499 20s-21.5 32.667 -21.5 56c0.666992 25.333 9.83398 50.833 27.501 76.5s45.5 57.5 83.5 95.5l20 -26
c-25.333 -28 -45.666 -53.333 -60.999 -76s-23 -44 -23 -64c0 -13.333 3.5 -23.833 10.5 -31.5s16.167 -11.5 27.5 -11.5s21.333 2.83301 30 8.5s17.334 14.167 26.001 25.5z" />
    <glyph glyph-name="tilde" unicode="&#x2dc;" horiz-adv-x="440" 
d="M370 551c-31.333 -37.333 -62.665 -55.333 -93.998 -54c-10.667 0 -21.167 2.16699 -31.5 6.5s-20.5 9.5 -30.5 15.5c-9.33301 6 -18.5 11 -27.5 15s-17.167 6.33301 -24.5 7c-11.333 0 -22 -3.16699 -32 -9.5s-21 -16.833 -33 -31.5l-28 34
c31.333 37.333 62.666 55.333 93.999 54c10.667 0 21.167 -2.16699 31.5 -6.5s20.166 -9.5 29.499 -15.5c10 -6 19.5 -11 28.5 -15s17.167 -6.33301 24.5 -7c11.333 0 22 3.16699 32 9.5s21 16.833 33 31.5z" />
    <glyph glyph-name="hungarumlaut" unicode="&#x2dd;" horiz-adv-x="440" 
d="M258 470l-28 18l86 170l50 -31zM126 481l-28 18l88 173l50 -31z" />
    <glyph glyph-name="commaaccent" unicode="&#x326;" horiz-adv-x="188" 
d="M141 -128c0 -12 -2.16309 -24.167 -6.49609 -36.5s-10.333 -24.5 -18 -36.5s-16.834 -23.333 -27.501 -34s-22.334 -19.667 -35.001 -27l-11 13c15.333 14 27.666 29 36.999 45s15.666 31.667 18.999 47c-14.667 1.33301 -26 6 -34 14s-12 17.667 -12 29s4 21 12 29
s17.667 12 29 12c14 0 25.333 -5.16699 34 -15.5s13 -23.5 13 -39.5z" />
    <glyph glyph-name="Wgrave" unicode="&#x1e80;" horiz-adv-x="952" 
d="M499 795l-192 99l31 54l180 -123zM726 -10l-14 -2l-237 627l-235 -627l-14 2l-192 743h56l154 -601l227 605h10l229 -603l153 599h55z" />
    <glyph glyph-name="wgrave" unicode="&#x1e81;" horiz-adv-x="611" 
d="M329 475l-192 99l31 54l180 -123zM453 -12h-10l-134 324l-137 -324h-10l-141 430h60l94 -314l128 314h10l131 -314l90 314h59z" />
    <glyph glyph-name="Wacute" unicode="&#x1e82;" horiz-adv-x="952" 
d="M726 -10l-14 -2l-237 627l-235 -627l-14 2l-192 743h56l154 -601l227 605h10l229 -603l153 599h55zM449 795l-18 31l181 123l29 -55z" />
    <glyph glyph-name="wacute" unicode="&#x1e83;" horiz-adv-x="611" 
d="M453 -12h-10l-134 324l-137 -324h-10l-141 430h60l94 -314l128 314h10l131 -314l90 314h59zM280 475l-18 31l181 123l29 -55z" />
    <glyph glyph-name="Wdieresis" unicode="&#x1e84;" horiz-adv-x="952" 
d="M726 -10l-14 -2l-237 627l-235 -627l-14 2l-192 743h56l154 -601l227 605h10l229 -603l153 599h55zM433 863c0 -11.333 -4.16699 -21.166 -12.5 -29.499s-18.166 -12.5 -29.499 -12.5s-21.166 4.16699 -29.499 12.5s-12.5 18.166 -12.5 29.499s4.16699 21.333 12.5 30
s18.166 13 29.499 13s21.166 -4.33301 29.499 -13s12.5 -18.667 12.5 -30zM604 863c0 -11.333 -4.16699 -21.166 -12.5 -29.499s-18.166 -12.5 -29.499 -12.5c-12 0 -22.167 4.16699 -30.5 12.5s-12.5 18.166 -12.5 29.499s4.16699 21.333 12.5 30s18.5 13 30.5 13
c11.333 0 21.166 -4.33301 29.499 -13s12.5 -18.667 12.5 -30z" />
    <glyph glyph-name="wdieresis" unicode="&#x1e85;" horiz-adv-x="611" 
d="M453 -12h-10l-134 324l-137 -324h-10l-141 430h60l94 -314l128 314h10l131 -314l90 314h59zM263 543c0 -11.333 -4.16699 -21.166 -12.5 -29.499s-18.166 -12.5 -29.499 -12.5s-21.166 4.16699 -29.499 12.5s-12.5 18.166 -12.5 29.499s4.16699 21.333 12.5 30
s18.166 13 29.499 13s21.166 -4.33301 29.499 -13s12.5 -18.667 12.5 -30zM434 543c0 -11.333 -4.16699 -21.166 -12.5 -29.499s-18.166 -12.5 -29.499 -12.5c-12 0 -22.167 4.16699 -30.5 12.5s-12.5 18.166 -12.5 29.499s4.16699 21.333 12.5 30s18.5 13 30.5 13
c11.333 0 21.166 -4.33301 29.499 -13s12.5 -18.667 12.5 -30z" />
    <glyph glyph-name="Ygrave" unicode="&#x1ef2;" horiz-adv-x="626" 
d="M335 782l-192 99l31 54l180 -123zM341 329v-329h-56v330l-256 403h63l223 -356l220 356h62z" />
    <glyph glyph-name="ygrave" unicode="&#x1ef3;" horiz-adv-x="427" 
d="M236 475l-192 99l31 54l180 -123zM125 -216h-56l118 244l-179 390h61l145 -334l146 334h60z" />
    <glyph glyph-name="enspace" unicode="&#x2002;" horiz-adv-x="500" 
 />
    <glyph glyph-name="emspace" unicode="&#x2003;" horiz-adv-x="1000" 
 />
    <glyph glyph-name="threeperemspace" unicode="&#x2004;" horiz-adv-x="333" 
 />
    <glyph glyph-name="fourperemspace" unicode="&#x2005;" horiz-adv-x="250" 
 />
    <glyph glyph-name="figurespace" unicode="&#x2007;" horiz-adv-x="520" 
 />
    <glyph glyph-name="thinspace" unicode="&#x2009;" horiz-adv-x="133" 
 />
    <glyph glyph-name="hairspace" unicode="&#x200a;" horiz-adv-x="75" 
 />
    <glyph glyph-name="endash" unicode="&#x2013;" horiz-adv-x="500" 
d="M50 218v49h400v-49h-400z" />
    <glyph glyph-name="emdash" unicode="&#x2014;" horiz-adv-x="750" 
d="M50 218v49h650v-49h-650z" />
    <glyph glyph-name="quoteleft" unicode="&#x2018;" horiz-adv-x="158" 
d="M121 597c0 -11.333 -4 -21.001 -12 -29.001s-17.667 -12 -29 -12c-14.667 0 -26.334 5.16699 -35.001 15.5s-13 23.833 -13 40.5c0 12 2.16699 24.5 6.5 37.5s10.5 25.5 18.5 37.5s17.333 23.333 28 34s22.334 20 35.001 28l11 -13c-32 -30.667 -51 -62.334 -57 -95.001
c15.333 -1.33301 27 -6.16602 35 -14.499s12 -18.166 12 -29.499z" />
    <glyph glyph-name="quoteright" unicode="&#x2019;" horiz-adv-x="158" 
d="M127 687c0 -12 -2.16504 -24.498 -6.49805 -37.498s-10.5 -25.5 -18.5 -37.5s-17.5 -23.333 -28.5 -34s-22.833 -19.667 -35.5 -27l-11 13c16 14.667 28.667 30.167 38 46.5s15.666 32.166 18.999 47.499c-14.667 1.33301 -26.167 6.33301 -34.5 15
s-12.5 18.667 -12.5 30s4.16699 21 12.5 29s18.166 12 29.499 12c14 0 25.5 -5.33301 34.5 -16s13.5 -24.334 13.5 -41.001z" />
    <glyph glyph-name="quotesinglbase" unicode="&#x201a;" horiz-adv-x="158" 
d="M127 23c0 -24.667 -8.49805 -49.832 -25.498 -75.499s-38.167 -46.167 -63.5 -61.5l-11 13c16 14.667 28.667 30.167 38 46.5s15.666 32.166 18.999 47.499c-14.667 1.33301 -26.167 6.33301 -34.5 15s-12.5 18.667 -12.5 30s4.16699 21 12.5 29s18.166 12 29.499 12
c14 0 25.5 -5.16699 34.5 -15.5s13.5 -23.833 13.5 -40.5z" />
    <glyph glyph-name="quotedblleft" unicode="&#x201c;" horiz-adv-x="292" 
d="M121 597c0 -11.333 -4 -21.001 -12 -29.001s-17.667 -12 -29 -12c-14.667 0 -26.334 5.16699 -35.001 15.5s-13 23.833 -13 40.5c0 12 2.16699 24.5 6.5 37.5s10.5 25.5 18.5 37.5s17.333 23.333 28 34s22.334 20 35.001 28l11 -13c-32 -30.667 -51 -62.334 -57 -95.001
c15.333 -1.33301 27 -6.16602 35 -14.499s12 -18.166 12 -29.499zM255 596.999c0 -11.333 -4 -21.001 -12 -29.001s-17.667 -12 -29 -12c-14.667 0 -26.334 5.16699 -35.001 15.5s-13 23.833 -13 40.5c0 12 2.16699 24.5 6.5 37.5s10.5 25.5 18.5 37.5s17.333 23.333 28 34
s22.334 20 35.001 28l11 -13c-32 -30.667 -51 -62.334 -57 -95.001c15.333 -1.33301 27 -6.16602 35 -14.499s12 -18.166 12 -29.499z" />
    <glyph glyph-name="quotedblright" unicode="&#x201d;" horiz-adv-x="292" 
d="M127 687c0 -12 -2.16504 -24.498 -6.49805 -37.498s-10.5 -25.5 -18.5 -37.5s-17.5 -23.333 -28.5 -34s-22.833 -19.667 -35.5 -27l-11 13c16 14.667 28.667 30.167 38 46.5s15.666 32.166 18.999 47.499c-14.667 1.33301 -26.167 6.33301 -34.5 15
s-12.5 18.667 -12.5 30s4.16699 21 12.5 29s18.166 12 29.499 12c14 0 25.5 -5.33301 34.5 -16s13.5 -24.334 13.5 -41.001zM261.002 687.002c0 -12 -2.16504 -24.498 -6.49805 -37.498s-10.5 -25.5 -18.5 -37.5s-17.5 -23.333 -28.5 -34s-22.833 -19.667 -35.5 -27l-11 13
c16 14.667 28.667 30.167 38 46.5s15.666 32.166 18.999 47.499c-14.667 1.33301 -26.167 6.33301 -34.5 15s-12.5 18.667 -12.5 30s4.16699 21 12.5 29s18.166 12 29.499 12c14 0 25.5 -5.33301 34.5 -16s13.5 -24.334 13.5 -41.001z" />
    <glyph glyph-name="quotedblbase" unicode="&#x201e;" horiz-adv-x="292" 
d="M127 23c0 -24.667 -8.49805 -49.832 -25.498 -75.499s-38.167 -46.167 -63.5 -61.5l-11 13c16 14.667 28.667 30.167 38 46.5s15.666 32.166 18.999 47.499c-14.667 1.33301 -26.167 6.33301 -34.5 15s-12.5 18.667 -12.5 30s4.16699 21 12.5 29s18.166 12 29.499 12
c14 0 25.5 -5.16699 34.5 -15.5s13.5 -23.833 13.5 -40.5zM260.002 23.002c0 -24.667 -8.33105 -49.832 -24.998 -75.499s-37.667 -46.167 -63 -61.5l-11 13c16 14.667 28.667 30.167 38 46.5s15.666 32.166 18.999 47.499c-14.667 1.33301 -26.167 6.33301 -34.5 15
s-12.5 18.667 -12.5 30s4.16699 21 12.5 29s18.166 12 29.499 12c14 0 25.333 -5.16699 34 -15.5s13 -23.833 13 -40.5z" />
    <glyph glyph-name="dagger" unicode="&#x2020;" horiz-adv-x="455" 
d="M257 502v-346h-54v346h-160v49h160v182h54v-182h158v-49h-158z" />
    <glyph glyph-name="daggerdbl" unicode="&#x2021;" horiz-adv-x="455" 
d="M257 312v-156h-54v156h-157v48h157v169h-160v49h160v155h54v-155h158v-49h-158v-169h160v-48h-160z" />
    <glyph glyph-name="bullet" unicode="&#x2022;" horiz-adv-x="351" 
d="M292 366c0 -16 -3 -31.333 -9 -46s-14.333 -27.334 -25 -38.001s-23 -19.167 -37 -25.5s-29 -9.5 -45 -9.5s-31.167 3.16699 -45.5 9.5s-26.666 14.833 -36.999 25.5s-18.5 23.334 -24.5 38.001s-9 30 -9 46c0 16.667 3 32.167 9 46.5s14.167 26.833 24.5 37.5
s22.666 19.167 36.999 25.5s29.5 9.5 45.5 9.5s31 -3.16699 45 -9.5s26.333 -14.833 37 -25.5s19 -23.167 25 -37.5s9 -29.833 9 -46.5z" />
    <glyph glyph-name="ellipsis" unicode="&#x2026;" horiz-adv-x="605" 
d="M459 36c0 12 4.33301 22.167 13 30.5s19 12.5 31 12.5s22.333 -4.16699 31 -12.5s13 -18.5 13 -30.5c0 -12.667 -4.33301 -23.167 -13 -31.5s-19 -12.5 -31 -12.5s-22.333 4.16699 -31 12.5s-13 18.833 -13 31.5zM259 36c0 12 4.33301 22.167 13 30.5s19 12.5 31 12.5
s22.333 -4.16699 31 -12.5s13 -18.5 13 -30.5c0 -12.667 -4.33301 -23.167 -13 -31.5s-19 -12.5 -31 -12.5s-22.333 4.16699 -31 12.5s-13 18.833 -13 31.5zM59 36c0 12 4.33301 22.167 13 30.5s19 12.5 31 12.5s22.333 -4.16699 31 -12.5s13 -18.5 13 -30.5
c0 -12.667 -4.33301 -23.167 -13 -31.5s-19 -12.5 -31 -12.5s-22.333 4.16699 -31 12.5s-13 18.833 -13 31.5z" />
    <glyph glyph-name="perthousand" unicode="&#x2030;" horiz-adv-x="924" 
d="M877 137c0 -19.333 -2.66797 -37.833 -8.00098 -55.5s-13.166 -33.167 -23.499 -46.5s-23.166 -24 -38.499 -32s-32.666 -12 -51.999 -12c-20 0 -37.5 4 -52.5 12s-27.5 18.667 -37.5 32s-17.667 28.833 -23 46.5s-8 36.167 -8 55.5c0 20 2.66699 38.833 8 56.5
s13.166 33.167 23.499 46.5s23 23.833 38 31.5s32.5 11.5 52.5 11.5c19.333 0 36.5 -3.83301 51.5 -11.5s27.667 -18.167 38 -31.5s18.166 -28.833 23.499 -46.5s8 -36.5 8 -56.5zM831.999 137c0 28.667 -6.5 53.334 -19.5 74.001s-32.167 31 -57.5 31
s-44.333 -10.333 -57 -31s-19 -45.334 -19 -74.001c0 -28 6.33301 -52.333 19 -73s31.667 -31 57 -31s44.5 10.333 57.5 31s19.5 45 19.5 73zM594.999 137c0 -19.333 -2.66797 -37.833 -8.00098 -55.5s-13.166 -33.167 -23.499 -46.5s-23.166 -24 -38.499 -32
s-32.666 -12 -51.999 -12c-20 0 -37.5 4 -52.5 12s-27.5 18.667 -37.5 32s-17.667 28.833 -23 46.5s-8 36.167 -8 55.5c0 20 2.66699 38.833 8 56.5s13.166 33.167 23.499 46.5s23 23.833 38 31.5s32.5 11.5 52.5 11.5c19.333 0 36.5 -3.83301 51.5 -11.5
s27.667 -18.167 38 -31.5s18.166 -28.833 23.499 -46.5s8 -36.5 8 -56.5zM549.998 137c0 28.667 -6.5 53.334 -19.5 74.001s-32.167 31 -57.5 31s-44.333 -10.333 -57 -31s-19 -45.334 -19 -74.001c0 -28 6.33301 -52.333 19 -73s31.667 -31 57 -31s44.5 10.333 57.5 31
s19.5 45 19.5 73zM103.998 -16l-32 27l466 582l32 -27zM290.998 440c0 -19.333 -2.66406 -37.833 -7.99707 -55.5s-13.333 -33.167 -24 -46.5s-23.5 -24 -38.5 -32s-32.5 -12 -52.5 -12c-19.333 0 -36.5 4 -51.5 12s-27.667 18.667 -38 32s-18.166 28.833 -23.499 46.5
s-8 36.167 -8 55.5c0 20 2.66699 38.833 8 56.5s13.166 33.167 23.499 46.5s23.166 23.833 38.499 31.5s32.666 11.5 51.999 11.5c20 0 37.5 -3.83301 52.5 -11.5s27.667 -18.167 38 -31.5s18.166 -28.833 23.499 -46.5s8 -36.5 8 -56.5zM245.001 440
c0 28.667 -6.33301 53.334 -19 74.001s-31.667 31 -57 31s-44.5 -10.333 -57.5 -31s-19.5 -45.334 -19.5 -74.001c0 -28 6.5 -52.333 19.5 -73s32.167 -31 57.5 -31s44.333 10.333 57 31s19 45 19 73z" />
    <glyph glyph-name="guilsinglleft" unicode="&#x2039;" horiz-adv-x="257" 
d="M154 9l-105 164l105 163h58l-108 -163l108 -164h-58z" />
    <glyph glyph-name="guilsinglright" unicode="&#x203a;" horiz-adv-x="257" 
d="M103 9h-58l108 164l-108 163h58l105 -163z" />
    <glyph glyph-name="fraction" unicode="&#x2044;" horiz-adv-x="549" 
d="M51 -17l-35 28l482 581l35 -27z" />
    <glyph glyph-name="Euro" unicode="&#x20ac;" horiz-adv-x="639" 
d="M28 331l-0.00390625 49.002h79c9.33301 31.333 23.333 59.666 42 84.999s40.834 47 66.501 65s53.834 31.833 84.501 41.5s63 14.5 97 14.5c38 0 72.833 -5.33301 104.5 -16s60.167 -23.667 85.5 -39l-24 -46c-24 15.333 -50.333 27.666 -79 36.999s-59 14 -91 14
c-52.667 0 -99.5 -13.667 -140.5 -41s-69.833 -65.666 -86.5 -114.999h303v-49h-315c-2 -14 -3 -29 -3 -45c0 -15.333 1 -30 3 -44h315v-47h-302c8.66699 -24.667 20.667 -46.667 36 -66s33 -35.5 53 -48.5s42 -22.833 66 -29.5s49 -10 75 -10c32 0 62.333 4.66699 91 14
s55.334 21.666 80.001 36.999l19 -46c-25.333 -15.333 -53.833 -28.5 -85.5 -39.5s-66.5 -16.5 -104.5 -16.5c-34.667 0 -67.5 4.66699 -98.5 14s-59.333 22.833 -85 40.5s-47.667 39.167 -66 64.5s-32.166 54 -41.499 86h-78v47h67
c-0.666992 7.33301 -1.16699 14.5 -1.5 21.5s-0.5 14.5 -0.5 22.5c0 16 1 31 3 45h-68z" />
    <glyph glyph-name="published" unicode="&#x2117;" horiz-adv-x="842" 
d="M744 366c0 47.333 -8.5 91.333 -25.5 132s-40 76.334 -69 107.001s-63.167 54.667 -102.5 72s-81.333 26 -126 26s-86.5 -8.66699 -125.5 -26s-73 -41.333 -102 -72s-52 -66.334 -69 -107.001s-25.5 -84.667 -25.5 -132c0 -46.667 8.5 -90.334 25.5 -131.001
s40 -76.167 69 -106.5s63 -54.166 102 -71.499s80.833 -26 125.5 -26s86.5 8.66699 125.5 26s73.167 41.166 102.5 71.499s52.5 65.833 69.5 106.5s25.5 84.334 25.5 131.001zM792 366c0 -52 -9.66699 -101 -29 -147s-45.833 -86.167 -79.5 -120.5s-73 -61.333 -118 -81
s-93.167 -29.5 -144.5 -29.5s-99.5 9.83301 -144.5 29.5s-84.333 46.667 -118 81s-60.167 74.5 -79.5 120.5s-29 95 -29 147s9.66699 101 29 147s45.833 86.167 79.5 120.5s73 61.5 118 81.5s93.167 30 144.5 30s99.5 -10 144.5 -30s84.333 -47.167 118 -81.5
s60.167 -74.5 79.5 -120.5s29 -95 29 -147zM561 432c0 -37.333 -12.834 -67.666 -38.501 -90.999s-61.5 -35 -107.5 -35c-6 0 -12.667 0.166992 -20 0.5s-14.333 0.833008 -21 1.5v-124h-46v364c14.667 2 28.834 3.33301 42.501 4s27.5 1 41.5 1
c24.667 0 46.334 -3.16699 65.001 -9.5s34.167 -15 46.5 -26s21.666 -23.833 27.999 -38.5s9.5 -30.334 9.5 -47.001zM511.999 431c0 21.333 -7.66699 40 -23 56s-38.666 24 -69.999 24c-8 0 -15.667 -0.333008 -23 -1l-22 -2v-159c13.333 -2 26.666 -3 39.999 -3
c32.667 0 57.167 7.83301 73.5 23.5s24.5 36.167 24.5 61.5z" />
    <glyph glyph-name="servicemark" unicode="&#x2120;" horiz-adv-x="447" 
d="M387 515l-3 136l-72 -112h-4l-72 112l-2 -136h-34l9 221h5l97 -149l95 149h5l10 -221h-34zM31 565c8 -6 16.8301 -10.833 26.4971 -14.5s19.5 -5.5 29.5 -5.5c11.333 0 20 2.83301 26 8.5s9 12.5 9 20.5c0 8.66699 -2.66699 15.834 -8 21.501s-17 12.5 -35 20.5
s-31 17 -39 27s-12 21.667 -12 35c0 16.667 6.16699 30.667 18.5 42s29.5 17 51.5 17c11.333 0 21.833 -1.5 31.5 -4.5s17.834 -6.83301 24.501 -11.5l-11 -31c-5.33301 4 -12 7.5 -20 10.5s-16.333 4.5 -25 4.5c-22.667 0 -34 -8.66699 -34 -26
c0 -8.66699 3.33301 -15.667 10 -21s17 -11 31 -17c19.333 -9.33301 33 -18.833 41 -28.5s12 -21.834 12 -36.501c0 -18 -6.33301 -33.167 -19 -45.5s-30 -18.5 -52 -18.5c-13.333 0 -25.666 2 -36.999 6s-21.666 9.33301 -30.999 16z" />
    <glyph glyph-name="trademark" unicode="&#x2122;" horiz-adv-x="481" 
d="M124 700v-185h-37v185h-68v33h174v-33h-69zM420 515l-2 135l-70 -107h-4l-71 107l-1 -135h-36l9 221h5l96 -143l95 143h5l9 -221h-35z" />
    <glyph glyph-name="arrowleft" unicode="&#x2190;" horiz-adv-x="711" 
d="M127 242l222 -183l-30 -37l-288 239v9l288 239l30 -37l-222 -183l534 1v-49z" />
    <glyph glyph-name="arrowright" unicode="&#x2192;" horiz-adv-x="711" 
d="M584 289l-222 183l31 37l287 -239v-9l-287 -239l-31 37l222 183l-534 -1v49z" />
    <glyph glyph-name="minus" unicode="&#x2212;" horiz-adv-x="460" 
d="M60 305h340v-49h-340v49z" />
    <glyph glyph-name="NUL" horiz-adv-x="0" 
 />
    <glyph glyph-name="nonmarkingreturn" horiz-adv-x="214" 
 />
    <glyph glyph-name="G.alt" horiz-adv-x="828" 
d="M781 343c0 -50.667 -8.66992 -97.498 -26.0029 -140.498s-41.333 -80.333 -72 -112s-67 -56.334 -109 -74.001s-87.667 -26.5 -137 -26.5s-96.833 8.66699 -142.5 26s-86 42.166 -121 74.499s-63 71.666 -84 117.999s-31.5 98.833 -31.5 157.5s10.833 111.5 32.5 158.5
s50.167 86.833 85.5 119.5s76 57.667 122 75s93 26 141 26c29.333 0 56.5 -2.16699 81.5 -6.5s48.333 -10.5 70 -18.5s42.334 -17.5 62.001 -28.5s38.834 -23.167 57.501 -36.5l-30 -44c-35.333 25.333 -72.833 45.5 -112.5 60.5s-82.5 22.833 -128.5 23.5
c-45.333 0 -87.5 -8.16699 -126.5 -24.5s-72.833 -39 -101.5 -68s-51.167 -63.667 -67.5 -104s-24.5 -84.5 -24.5 -132.5c0 -49.333 8.5 -94 25.5 -134s40.167 -74.333 69.5 -103s63.333 -50.667 102 -66s79.667 -23 123 -23c38 0 73.5 6.33301 106.5 19
s62 30.334 87 53.001s45.333 49.5 61 80.5s24.834 64.5 27.501 100.5h-300v50h360z" />
    <glyph glyph-name="M.alt" horiz-adv-x="847" 
d="M714 0l-12 607l-274 -427h-10l-273 426l-12 -606h-57l25 742l13 2l312 -488l307 488l13 -2l25 -742h-57z" />
    <glyph glyph-name="f_f_i" horiz-adv-x="743" 
d="M621 0v418h56v-418h-56zM689 573c0 -11.333 -3.83301 -20.833 -11.5 -28.5s-17.167 -11.5 -28.5 -11.5s-20.833 3.83301 -28.5 11.5s-11.5 17.167 -11.5 28.5s3.83301 21 11.5 29s17.167 12 28.5 12s20.833 -4 28.5 -12s11.5 -17.667 11.5 -29zM573 682
c-7.33301 2.66699 -15.5 4.66699 -24.5 6s-17.167 2 -24.5 2c-34 0 -59 -9.83301 -75 -29.5s-24 -52.5 -24 -98.5v-144h124v-49h-124v-369h-55v369h-69v13l69 39v134c0 62 12.833 108.333 38.5 139s62.5 46 110.5 46c11.333 0 22.333 -0.666992 33 -2s21 -4 31 -8zM297 682
c-7.33301 2.66699 -15.668 4.66699 -25.001 6s-17.666 2 -24.999 2c-33.333 0 -58 -9.83301 -74 -29.5s-24 -52.5 -24 -98.5v-144h124v-49h-124v-369h-55v369h-70v13l70 39v134c0 62 12.833 108.333 38.5 139s62.167 46 109.5 46c11.333 0 22.5 -0.666992 33.5 -2
s21.5 -4 31.5 -8z" />
    <glyph glyph-name="f_f_l" horiz-adv-x="745" 
d="M621 0v733h56v-733h-56zM573 682c-7.33301 2.66699 -15.5 4.66699 -24.5 6s-17.167 2 -24.5 2c-34 0 -59 -9.83301 -75 -29.5s-24 -52.5 -24 -98.5v-144h124v-49h-124v-369h-55v369h-69v13l69 39v134c0 62 12.833 108.333 38.5 139s62.5 46 110.5 46
c11.333 0 22.333 -0.666992 33 -2s21 -4 31 -8zM297 682c-7.33301 2.66699 -15.668 4.66699 -25.001 6s-17.666 2 -24.999 2c-33.333 0 -58 -9.83301 -74 -29.5s-24 -52.5 -24 -98.5v-144h124v-49h-124v-369h-55v369h-70v13l70 39v134c0 62 12.833 108.333 38.5 139
s62.167 46 109.5 46c11.333 0 22.5 -0.666992 33.5 -2s21.5 -4 31.5 -8z" />
    <glyph glyph-name="f_f" horiz-adv-x="553" 
d="M573 682c-7.33301 2.66699 -15.5 4.66699 -24.5 6s-17.167 2 -24.5 2c-34 0 -59 -9.83301 -75 -29.5s-24 -52.5 -24 -98.5v-144h124v-49h-124v-369h-55v369h-69v13l69 39v134c0 62 12.833 108.333 38.5 139s62.5 46 110.5 46c11.333 0 22.333 -0.666992 33 -2
s21 -4 31 -8zM297 682c-7.33301 2.66699 -15.668 4.66699 -25.001 6s-17.666 2 -24.999 2c-33.333 0 -58 -9.83301 -74 -29.5s-24 -52.5 -24 -98.5v-144h124v-49h-124v-369h-55v369h-70v13l70 39v134c0 62 12.833 108.333 38.5 139s62.167 46 109.5 46
c11.333 0 22.5 -0.666992 33.5 -2s21.5 -4 31.5 -8z" />
    <glyph glyph-name="zero.lin" horiz-adv-x="657" 
d="M537 366c0 47.333 -4.66699 91 -14 131s-23 74.5 -41 103.5s-39.833 51.667 -65.5 68s-55.167 24.5 -88.5 24.5s-62.833 -8.16699 -88.5 -24.5s-47.334 -39 -65.001 -68s-31.167 -63.5 -40.5 -103.5s-14 -83.667 -14 -131c0 -46.667 4.66699 -90 14 -130
s23 -74.5 41 -103.5s40 -51.667 66 -68s55.333 -24.5 88 -24.5c33.333 0 62.833 8.16699 88.5 24.5s47.334 39 65.001 68s31.167 63.5 40.5 103.5s14 83.333 14 130zM597 366c0 -52.667 -6 -102 -18 -148s-29.5 -85.833 -52.5 -119.5s-51.333 -60.167 -85 -79.5
s-71.834 -29 -114.501 -29s-80.5 9.66699 -113.5 29s-60.833 45.833 -83.5 79.5s-40 73.5 -52 119.5s-18 95.333 -18 148c0 53.333 6 103 18 149s29.5 86 52.5 120s51.333 60.667 85 80s71.834 29 114.501 29s80.5 -9.66699 113.5 -29s60.833 -46 83.5 -80s40 -74 52 -120
s18 -95.667 18 -149z" />
    <glyph glyph-name="one.lin" horiz-adv-x="388" 
d="M192 0v673l-129 -44l-16 46l189 68h12v-743h-56z" />
    <glyph glyph-name="two.lin" horiz-adv-x="552" 
d="M25 0l-5.00098 13.002l158 169.5l109 122.5c40.667 48 70.667 90.167 90 126.5s29 72.166 29 107.499c0 22 -3.66699 42.333 -11 61s-18 34.667 -32 48s-31.167 23.833 -51.5 31.5s-43.166 11.5 -68.499 11.5c-30 0 -59.5 -5 -88.5 -15s-56.167 -23.333 -81.5 -40l-18 48
c29.333 19.333 60 34.166 92 44.499s63.667 15.5 95 15.5c34.667 0 65.834 -5 93.501 -15s51.167 -24 70.5 -42s34.166 -39.5 44.499 -64.5s15.5 -52.5 15.5 -82.5c0 -42.667 -11.667 -84 -35 -124s-55 -84 -95 -132c-26.667 -32 -58.167 -67.333 -94.5 -106l-119.5 -127
h363v-51h-460z" />
    <glyph glyph-name="three.lin" horiz-adv-x="535" 
d="M473 216c0 -31.333 -5.83203 -60.8301 -17.499 -88.4971s-28.167 -51.667 -49.5 -72s-47.333 -36.333 -78 -48s-64.667 -17.5 -102 -17.5c-34 0 -65.167 3 -93.5 9s-58.833 14.667 -91.5 26l20 47c30.667 -11.333 58.667 -19.5 84 -24.5s51.666 -7.5 78.999 -7.5
c29.333 0 55.833 4.33301 79.5 13s44 20.667 61 36s30.167 33.666 39.5 54.999s14 44.666 14 69.999c0 23.333 -5.16699 44.833 -15.5 64.5s-25 36.5 -44 50.5s-41.833 24.833 -68.5 32.5s-56 11.5 -88 11.5c-14 0 -28.5 -0.833008 -43.5 -2.5s-29.167 -3.5 -42.5 -5.5
l-9 12l282 306h-346v50h438l6 -12l-280 -302c38.667 -0.666992 74.334 -5.33398 107.001 -14.001s60.667 -21.5 84 -38.5s41.666 -38 54.999 -63s20 -54.167 20 -87.5z" />
    <glyph glyph-name="four.lin" horiz-adv-x="602" 
d="M397 626l-286 -355h286v355zM452 223v-223h-55v223h-372v16l410 506h17v-474h122v-48h-122z" />
    <glyph glyph-name="five.lin" horiz-adv-x="558" 
d="M496 218c0 -32.667 -6.00195 -62.834 -18.002 -90.501s-29 -51.667 -51 -72s-48.167 -36.333 -78.5 -48s-63.833 -17.5 -100.5 -17.5c-32.667 0 -64.167 3 -94.5 9s-60.166 14.333 -89.499 25l20 49c23.333 -9.33301 48.333 -17 75 -23s55 -9 85 -9s57 4.33301 81 13
s44.5 20.667 61.5 36s30 33.666 39 54.999s13.5 44.666 13.5 69.999c0 24 -4.5 46.333 -13.5 67s-22 38.667 -39 54s-38 27.333 -63 36s-53.5 13 -85.5 13c-25.333 0 -50.333 -1.66699 -75 -5s-45 -6.66602 -61 -9.99902l-7 9v354h371v-50h-315v-256
c26.667 5.33301 57.334 8 92.001 8c40 0 75.667 -5.5 107 -16.5s57.833 -26.167 79.5 -45.5s38.167 -42.166 49.5 -68.499s17 -55.166 17 -86.499z" />
    <glyph glyph-name="six.lin" horiz-adv-x="595" 
d="M483 227c0 27.333 -4.5 52.166 -13.5 74.499s-21.333 41.5 -37 57.5s-34.5 28.5 -56.5 37.5s-46 13.5 -72 13.5c-27.333 0 -52.333 -4.66699 -75 -14s-42 -22 -58 -38s-28.333 -34.833 -37 -56.5s-13 -44.834 -13 -69.501c0 -27.333 4.5 -52.666 13.5 -75.999
s21.667 -43.666 38 -60.999s35.5 -30.833 57.5 -40.5s46 -14.5 72 -14.5c26.667 0 51 4.66699 73 14s41 22.333 57 39s28.5 36.5 37.5 59.5s13.5 47.833 13.5 74.5zM541 232c0 -32.667 -5.66699 -63.666 -17 -92.999s-27.5 -55.166 -48.5 -77.499s-46.333 -40 -76 -53
s-62.5 -19.5 -98.5 -19.5s-68.667 6.33301 -98 19s-54.5 30.167 -75.5 52.5s-37.167 49.333 -48.5 81s-17 66.5 -17 104.5c0 44 7.16699 88.333 21.5 133s37.5 89 69.5 133s73.333 87 124 129s112.334 82.333 185.001 121l28 -47c-88 -44 -162 -94.833 -222 -152.5
s-102.333 -118.834 -127 -183.501c18.667 23.333 43.167 42.333 73.5 57s63.833 22 100.5 22c32 0 61.833 -5.66699 89.5 -17s51.667 -27 72 -47s36.166 -43.833 47.499 -71.5s17 -57.834 17 -90.501z" />
    <glyph glyph-name="seven.lin" horiz-adv-x="507" 
d="M173 0h-59l300 683h-389v50h465z" />
    </font>
</defs>
</svg>
